<?xml version="1.0" encoding="utf-8"?>
<!-- Generator: Adobe Illustrator 25.4.1, SVG Export Plug-In . SVG Version: 6.00 Build 0)  -->
<!DOCTYPE svg PUBLIC "-//W3C//DTD SVG 1.1//EN" "http://www.w3.org/Graphics/SVG/1.1/DTD/svg11.dtd" [
	<!ENTITY ns_extend "http://ns.adobe.com/Extensibility/1.0/">
	<!ENTITY ns_ai "http://ns.adobe.com/AdobeIllustrator/10.0/">
	<!ENTITY ns_graphs "http://ns.adobe.com/Graphs/1.0/">
	<!ENTITY ns_vars "http://ns.adobe.com/Variables/1.0/">
	<!ENTITY ns_imrep "http://ns.adobe.com/ImageReplacement/1.0/">
	<!ENTITY ns_sfw "http://ns.adobe.com/SaveForWeb/1.0/">
	<!ENTITY ns_custom "http://ns.adobe.com/GenericCustomNamespace/1.0/">
	<!ENTITY ns_adobe_xpath "http://ns.adobe.com/XPath/1.0/">
]>
<svg version="1.1" id="Capa_1" xmlns:x="&ns_extend;" xmlns:i="&ns_ai;" xmlns:graph="&ns_graphs;"
	 xmlns="http://www.w3.org/2000/svg" xmlns:xlink="http://www.w3.org/1999/xlink" x="0px" y="0px" viewBox="0 0 1242 1298"
	 style="enable-background:new 0 0 1242 1298;" xml:space="preserve">
<style type="text/css">
	.st0{fill:#62381A;}
</style>
<metadata>
	<sfw  xmlns="&ns_sfw;">
		<slices></slices>
		<sliceSourceBounds  bottomLeftOrigin="true" height="383.6" width="948.8" x="147.7" y="79.6"></sliceSourceBounds>
	</sfw>
</metadata>
<g>
	<path class="st0" d="M440.1,866.4c-20.4,2.8-51.7,13.6-58.4,41.7c3.4-26.9,32.5-39.2,53.6-42.7c5-0.8,10.4-1.4,15.8-1.8
		c15.8-17.8,34.7-25.3,44.2-27.3c29-6.2,42.1,9.1,26,21c-10.9,8-38.2,6.7-62.9,7.7c-14.8,16.7-20.7,33.7-21,51.5
		c-0.3,18.2,7.6,30.8,29,16.2c26.2-17.6,41.2-57.7,44.5-62.7c2.1-3.1,7.3,2,6,4.8c-2.5,5-9.9,20-14,33.7c-12.2,41.3,11.9,60.2,47,51
		c12.2-3.2,27.6-15.1,27.6-15.1c-22.7,22.3-65.2,28-79.8-0.3c-6.9-13.4-5.7-29.7,0.6-45.8c-7.3,17.1-24.4,34.4-37.7,40.2
		c-19.5,8.3-26.9-1.1-29.5-14.3c-1.1-5.5-4.3-18.5,8.5-44.9c2.9-5.2,6.3-9.8,9.8-13.9C446.3,865.6,443.2,866,440.1,866.4z
		 M464.6,858.8c-1.5,1.4-2.8,2.8-4.2,4.2c21.7-1,43.3-0.3,51.9-3.5c22.1-8.3,13.7-20.7-0.3-22.1C496.8,836,476.5,847.4,464.6,858.8z
		"/>
	<path class="st0" d="M533.2,902c-0.6,2-0.6,4.9,1.3,8c2.5,4.3,5.2,8,6.3,11.3c14-6.9,17.4-10.9,24.5-20.3
		c-3.1,9.5-12.9,16.4-24.1,21.7c2.1,6.6,1.8,11.9-2.4,18.5c-7.1,11.3-22.4,15-27.3,9c-6.7-8.4,3.9-17.5,19.5-24.5
		c2.2-1,4.1-2,5.9-2.8c-0.4-2.7-1.5-5.3-3.4-8.3c-6.7-10.5-5.6-11.8-5.5-14.1c0.3-4.5,5.6-9.1,5.6-9.1c3.1-2.2,3.9,2.2,3.2,4.9
		C535.3,898,533.8,900.1,533.2,902z M535,925.1c-13,5.6-24.5,13-23.5,20.2c0.7,4.9,4.9,6.4,10.1,3.5c5.3-2.9,16.7-12.2,15.5-24.4
		C536.4,924.6,535.7,924.8,535,925.1z"/>
	<path class="st0" d="M576.1,917.5c-6.4,8.5-11.5,13.9-16.9,12.2c-8.7-2.8-1.4-24.5,4.8-28.6c2.8-1.4,4.2,0.1,3.8,2.4
		c-0.6,3.5-4.3,8.7-5.9,14.8c-1.1,4.6-2.5,9.9,1,9.5c4.3-0.4,12.3-12.7,17.9-19.6c4.6-5.7,6-7.4,9-7.4
		C585.4,902.9,581.9,909.8,576.1,917.5z M569.3,895.2c-1.7-0.6-1.8-1.5-0.6-3.9c1.4-2.7,0.6-3.2,2.8-4.5c1.5-0.8,6.6-0.3,4.9,3.2
		C574.7,893.8,571.3,895.8,569.3,895.2z"/>
	<path class="st0" d="M590.2,902c-0.6,2-0.6,4.9,1.3,8c2.5,4.3,5.2,8,6.3,11.3c14-6.9,17.4-10.9,24.5-20.3
		c-3.1,9.5-12.9,16.4-24.1,21.7c2.1,6.6,1.8,11.9-2.4,18.5c-7.1,11.3-22.4,15-27.3,9c-6.7-8.4,3.9-17.5,19.5-24.5
		c2.2-1,4.1-2,5.9-2.8c-0.4-2.7-1.5-5.3-3.4-8.3c-6.7-10.5-5.6-11.8-5.5-14.1c0.3-4.5,5.6-9.1,5.6-9.1c3.1-2.2,3.9,2.2,3.2,4.9
		C592.3,898,590.8,900.1,590.2,902z M592,925.1c-13,5.6-24.5,13-23.5,20.2c0.7,4.9,4.9,6.4,10.1,3.5c5.3-2.9,16.7-12.2,15.5-24.4
		C593.4,924.6,592.7,924.8,592,925.1z"/>
	<path class="st0" d="M588.9,846.7c-3.5,2.4-6.4,7-2.7,10.8c6.7,6.7,26,6,49,3.6c5.9-10.9,9.1-13.9,9.1-13.9c1.4-2.2,6,2.8,4.6,5.2
		c-1.5,2.5-3.1,5-4.6,7.7c31.9-3.8,68-9.7,86-4.2c6.7,2.1,9.2,4.5,8.5,7.8c-0.3,1.8-2.2,2.9-3.1,1.1c-0.7-1.5,2.9-5.2-6.3-7.8
		c-18.5-5.2-54.3,0.8-86.1,4.6c-9.2,15.8-18.9,35.8-26.9,64.1c-5.7,20.3-0.6,29.5,8.7,17.9c10.4-13,20.3-41,31.4-42.8
		c-8.8,7.8-11.9,13.7-20.2,29.1c-11.6,21.8-18.2,23.1-22.8,19.3c-5.9-4.8-9-16.9,6.3-54.7c5.9-14.4,10.8-24.8,14.6-31.9
		c-23.1,2.4-42.6,2.8-49.6-4.6c-3.5-3.8-2.1-10.4,2.5-13.4C588.8,843.6,592.6,844.3,588.9,846.7z"/>
	<path class="st0" d="M650.1,915c-2.2,10.8,3.6,15,9.8,12.5c10.4-4.1,20.2-26.7,27.4-26.6c-7.1,6.6-7.7,8.7-12.6,15
		c-6.4,8.3-13.2,15.4-21.1,14.6c-10.5-1.1-11.8-14.3-9.1-20.4c2.8-6.4,8.4-13.7,17.2-14.3c7.3-0.4,10.1,6.4,3.1,12.3
		c-4.2,3.5-10.4,5.2-14.4,5.9C650.4,914.1,650.1,914.7,650.1,915z M656.1,910.9c11.3-3.8,13.3-12.3,7.4-10.9c0,0-9.2,1.1-12.7,12.3
		C652.2,912,654.2,911.6,656.1,910.9z"/>
	<path class="st0" d="M693,905.3c0.1,4.6-1.4,6.9-3.9,12.2c5.9-8.4,19.5-21.8,28.7-24.4c5.3-1.4,7.7,3.5,7.3,7.1
		c-0.7,5.5-16.2,26.7-18.2,34.6c-2.8,11.6,4.5,7.8,6.7,6.2c6.7-5,19.3-27.7,25.1-34.3c7-8.1,9.7-5.5,9.7-5.5
		c-11.1,2.7-24.5,38.4-36.8,43.3c-3.6,1.5-9.2,0.6-10.9-5.3c-3.2-11.8,18.1-38.9,18.8-43c0.7-4.6-12.9,3.6-22.4,14.6
		c-6.4,7.4-9.8,13-12.6,17.4c-0.6,1-3.8,1-5.2-1.4c-0.6-1-2.2-3.2,2.9-13.9c5.7-11.6,3.4-11.2,3.4-11.2
		C686.7,899.9,692.8,900.8,693,905.3z"/>
	<path class="st0" d="M743.6,911.8c-3.6,4.9-6.3,10.9-4.6,17.9c0.7,3.4,5.9,5.7,11.9,1.8c11.6-7.6,22.1-26.2,31.1-30.7
		c-6.4,5.3-13.3,16.5-23.4,26.3c-9.2,9-16.1,11.2-21.8,6.4c-6.7-5.6-4.5-19.3,1.1-26.2c6.4-8,14.3-12.2,21.6-10.1
		c7.7,2.1,4.9,8.5,2.7,11.8c-2.2,3.2-5.5,6.2-8.5,3.6c-3.1-2.5,1.1-5.2,2-4.9c0.8,0.3,3.6,0,5.6-2.2c2.7-2.9,0.4-5.3-2.9-4.8
		C756.1,901.1,750.2,902.9,743.6,911.8z"/>
	<path class="st0" d="M791.1,917.5c-6.4,8.5-11.5,13.9-16.9,12.2c-8.7-2.8-1.4-24.5,4.8-28.6c2.8-1.4,4.2,0.1,3.8,2.4
		c-0.6,3.5-4.3,8.7-5.9,14.8c-1.1,4.6-2.5,9.9,1,9.5c4.3-0.4,12.3-12.7,17.9-19.6c4.6-5.7,6-7.4,9-7.4
		C800.5,902.9,797,909.8,791.1,917.5z M784.4,895.2c-1.7-0.6-1.8-1.5-0.6-3.9c1.4-2.7,0.6-3.2,2.8-4.5c1.5-0.8,6.6-0.3,4.9,3.2
		C789.7,893.8,786.3,895.8,784.4,895.2z"/>
	<path class="st0" d="M820.9,934c8-11.8,17.8-31.8,24.6-33.3c-7,8-8.8,11.6-12.9,18.1c-7.7,12.5-11.9,20.9-16.4,20.2
		c-5-0.8-9.7-7.4-4.5-21.6c0.1-0.6,0.4-1.1,0.6-1.7c-5.7,7-11.2,13.7-16.5,7.7c-5.5-6.2-0.1-17.2,4.9-21.8
		c3.6-3.4,10.5-6.3,17.8-4.5c8.1,2.1,2,2.1,2,2.1s-10.4-2.2-17.8,9.7c-5.5,8.8-2.4,16.8,2,12.7c2.4-2.2,7.6-8.8,11.6-14
		c2.1-3.4,4.3-7.4,6.4-7.4c2.1-0.1,7.3,0.6,2.7,6.4C812.7,923.1,812.4,946.5,820.9,934z"/>
</g>
<g id="XMLID_6662_">
	<path class="st0" d="M166.9,1071.6h21.6l3.4-11.5c0.6-2.3,1-4,1-5.2c0-0.6-0.1-1.1-0.5-1.6c-0.2-0.4-0.7-0.7-1.3-1
		c-0.6-0.2-1.8-0.4-3.5-0.4l0.4-1.3h18.8l-0.5,1.3c-1.6,0-2.8,0.1-3.5,0.5c-1.1,0.5-1.9,1.1-2.6,1.9c-0.7,1.1-1.5,3-2.3,5.7
		l-8.3,28.3c-0.7,2.3-1,4-1,5.1c0,0.9,0.4,1.5,1,1.9c0.6,0.5,2.1,0.7,4.4,0.9l-0.4,1.3h-18.2l0.5-1.3c1.8,0,3-0.2,3.6-0.5
		c1-0.5,1.6-1,2.1-1.6c0.6-0.9,1.3-2.8,2.2-5.8l4.3-14.3h-21.7l-4.3,14.3c-0.6,2.3-1,4-1,5.1c0,0.9,0.2,1.5,0.9,1.9s2.1,0.7,4.4,0.9
		l-0.2,1.3h-18.3l0.5-1.3c1.8,0,3-0.2,3.6-0.5c1-0.5,1.6-1,2.1-1.6c0.6-1,1.3-2.9,2.2-5.8l8.3-28.3c0.6-2.3,1-4.1,1-5.2
		c0-0.6-0.1-1.1-0.5-1.6c-0.2-0.4-0.7-0.7-1.3-1c-0.6-0.2-1.8-0.4-3.6-0.4l0.5-1.3h18.5l-0.4,1.3c-1.6,0-2.7,0.1-3.4,0.5
		c-1.1,0.5-1.8,1.1-2.3,1.8c-0.7,1-1.5,2.9-2.3,5.7L166.9,1071.6z"/>
	<path class="st0" d="M231.6,1066.3l-6.8,23.4l-0.7,3.2c0,0.2-0.1,0.5-0.1,0.7c0,0.4,0.1,0.7,0.4,1c0.1,0.2,0.4,0.2,0.7,0.2
		s0.7-0.2,1.2-0.6c0.9-0.6,2.1-2.1,3.6-4.1l1.2,0.9c-1.6,2.4-3.2,4.3-4.9,5.5c-1.7,1.2-3.3,1.8-4.7,1.8c-1,0-1.7-0.2-2.2-0.7
		s-0.7-1.2-0.7-2.2c0-1.1,0.2-2.7,0.7-4.5l0.7-2.7c-3,4-5.8,6.7-8.4,8.3c-1.8,1.1-3.6,1.7-5.3,1.7s-3.2-0.7-4.4-2.1
		s-1.8-3.3-1.8-5.7c0-3.6,1.1-7.5,3.3-11.7c2.2-4.1,5-7.3,8.4-9.7c2.7-1.9,5.1-2.9,7.5-2.9c1.5,0,2.7,0.4,3.5,1.1
		c1,0.7,1.6,1.9,2.2,3.6l1.2-4L231.6,1066.3z M219.3,1068c-1.5,0-3,0.7-4.7,2.1c-2.4,1.9-4.5,4.9-6.3,8.7s-2.8,7.3-2.8,10.4
		c0,1.6,0.4,2.8,1.2,3.6c0.9,0.9,1.7,1.3,2.7,1.3c2.6,0,5.2-1.8,8.1-5.6c4-5,6-10,6-15.2c0-1.9-0.4-3.4-1.1-4.3
		S220.6,1068,219.3,1068z"/>
	<path class="st0" d="M237.5,1067.2h22v0.9l-23.9,24.9h10.1c2.4,0,3.9-0.1,4.6-0.2c0.7-0.1,1.2-0.6,1.8-1.2c0.5-0.6,1.1-1.7,1.8-3.3
		h1.3l-3,9.4h-22.6v-1l23.9-24.9h-10c-2.1,0-3.4,0-3.8,0.1c-0.6,0.1-1.3,0.5-1.9,1.1s-1.2,1.6-1.9,2.9h-1.3L237.5,1067.2z"/>
	<path class="st0" d="M299.8,1090.2c-2.4,2.9-4.9,5-7.3,6.3s-5,2.1-7.8,2.1c-3.3,0-5.8-1-7.7-2.8s-2.8-4.3-2.8-7.4
		c0-3.5,1-7,2.9-10.4c1.9-3.4,4.6-6.2,7.9-8.4c3.3-2.2,6.6-3.2,9.8-3.2c2.6,0,4.4,0.5,5.7,1.6c1.2,1.1,1.8,2.3,1.8,3.9
		c0,1.5-0.5,2.7-1.3,3.6c-0.6,0.9-1.5,1.2-2.3,1.2c-0.7,0-1.3-0.2-1.8-0.7s-0.7-1.1-0.7-1.7c0-0.5,0.1-0.9,0.2-1.2s0.5-0.9,1.1-1.3
		c0.5-0.5,0.9-0.9,1-1.1c0.1-0.2,0.1-0.5,0.1-0.7c0-0.5-0.2-0.9-0.6-1.2c-0.7-0.5-1.6-0.7-2.8-0.7c-2.3,0-4.5,0.9-6.7,2.4
		s-4.1,3.9-5.7,6.8c-1.9,3.5-2.8,7-2.8,10.7c0,2.3,0.7,4.3,2.1,5.6s3.2,2.1,5.5,2.1c1.8,0,3.5-0.5,5.2-1.3c1.7-0.9,3.6-2.6,5.8-4.9
		L299.8,1090.2z"/>
	<path class="st0" d="M322.8,1048.4l-11.8,41.2c-0.6,2.1-0.9,3.3-0.9,3.8c0,0.4,0.1,0.6,0.4,0.9c0.2,0.2,0.5,0.4,0.9,0.4
		c0.5,0,1-0.2,1.5-0.6c1.2-1,2.4-2.4,3.8-4.4l1,1.1c-2.2,3-4.3,5.2-6.1,6.4c-1.3,0.9-2.7,1.3-3.9,1.3c-0.9,0-1.6-0.2-2.2-0.9
		c-0.6-0.6-0.9-1.3-0.9-2.1c0-0.9,0.4-2.6,1.1-5.1l9.4-32.4c0.7-2.7,1.1-4.1,1.1-4.5c0-0.6-0.2-1.1-0.6-1.3s-1.1-0.5-2.1-0.5
		c-0.5,0-1.3,0.1-2.4,0.2v-1.3L322.8,1048.4z"/>
	<path class="st0" d="M335.5,1066.3l-6.8,24.3c-0.5,1.6-0.7,2.6-0.7,2.9s0.1,0.7,0.4,0.9c0.2,0.2,0.5,0.4,0.7,0.4
		c0.4,0,0.7-0.2,1.2-0.6c1.3-1,2.7-2.6,4-4.4l1.2,0.9c-1.6,2.4-3.4,4.4-5.6,6.1c-1.6,1.2-3,1.8-4.5,1.8c-1,0-1.7-0.2-2.3-0.9
		c-0.6-0.6-0.9-1.2-0.9-2.2c0-0.9,0.2-2.3,0.9-4.3l4.5-15.6c0.7-2.6,1.1-4.1,1.1-4.7c0-0.5-0.1-0.9-0.5-1.2s-0.9-0.5-1.5-0.5
		c-0.5,0-1.6,0.1-3.2,0.4v-1.3L335.5,1066.3z M335,1052.6c1,0,1.8,0.4,2.4,1c0.6,0.7,1,1.5,1,2.4s-0.4,1.8-1,2.4s-1.5,1-2.4,1
		s-1.8-0.4-2.4-1c-0.7-0.7-1-1.5-1-2.4s0.4-1.7,1-2.4C333.2,1053,334.1,1052.6,335,1052.6z"/>
	<path class="st0" d="M364.1,1090.2c-2.4,2.9-4.9,5-7.3,6.3c-2.4,1.3-5,2.1-7.8,2.1c-3.3,0-5.8-1-7.7-2.8s-2.8-4.3-2.8-7.4
		c0-3.5,1-7,2.9-10.4c1.9-3.4,4.6-6.2,7.9-8.4c3.3-2.2,6.6-3.2,9.8-3.2c2.6,0,4.4,0.5,5.7,1.6c1.2,1.1,1.8,2.3,1.8,3.9
		c0,1.5-0.5,2.7-1.3,3.6c-0.6,0.9-1.5,1.2-2.3,1.2c-0.7,0-1.3-0.2-1.8-0.7s-0.7-1.1-0.7-1.7c0-0.5,0.1-0.9,0.2-1.2s0.5-0.9,1.1-1.3
		c0.5-0.5,0.9-0.9,1-1.1c0.1-0.2,0.1-0.5,0.1-0.7c0-0.5-0.2-0.9-0.6-1.2c-0.7-0.5-1.6-0.7-2.8-0.7c-2.3,0-4.5,0.9-6.7,2.4
		c-2.2,1.6-4.1,3.9-5.7,6.8c-1.9,3.5-2.8,7-2.8,10.7c0,2.3,0.7,4.3,2.1,5.6s3.2,2.1,5.5,2.1c1.8,0,3.5-0.5,5.2-1.3s3.6-2.6,5.8-4.9
		L364.1,1090.2z"/>
	<path class="st0" d="M389.8,1084.6c-0.1,1.1-0.2,2.1-0.2,2.8c0,2.1,0.7,3.8,2.2,5.2c1.5,1.5,3.2,2.2,5.3,2.2c1.7,0,3.3-0.4,4.7-1
		c1.6-0.7,3.8-2.2,6.8-4.5l0.7,1c-5.5,5.5-10.7,8.1-15.7,8.1c-3.4,0-5.8-1.1-7.5-3.2c-1.7-2.1-2.6-4.5-2.6-7c0-3.4,1.1-6.9,3.2-10.6
		c2.1-3.6,4.7-6.4,8-8.4c3.2-1.9,6.4-3,10-3c2.4,0,4.3,0.5,5.5,1.5c1.2,1,1.7,2.2,1.7,3.5c0,1.9-0.7,3.8-2.3,5.5
		c-2.1,2.3-5,4.1-8.9,5.6C398.2,1083.3,394.6,1084.1,389.8,1084.6z M390.1,1082.9c3.4-0.4,6.2-1.1,8.4-2.1c2.8-1.2,5-2.8,6.4-4.5
		c1.5-1.8,2.2-3.4,2.2-5.1c0-1-0.4-1.7-1-2.3c-0.6-0.6-1.5-0.9-2.6-0.9c-2.3,0-4.9,1.2-7.5,3.8
		C393.3,1074.2,391.4,1078,390.1,1082.9z"/>
	<path class="st0" d="M426.3,1066.3l-4.6,15.8c4.3-6.4,7.7-10.7,10-12.8c2.3-2.1,4.5-3,6.7-3c1.1,0,2.1,0.4,2.8,1.2
		c0.7,0.7,1.1,1.8,1.1,2.9c0,1.5-0.4,3.3-1,5.6l-4.3,14.6c-0.5,1.7-0.7,2.7-0.7,3s0.1,0.6,0.2,0.9c0.2,0.2,0.4,0.4,0.6,0.4
		s0.6-0.1,1-0.5c1.2-1,2.6-2.4,4-4.4l1.1,0.6c-2.2,3-4.1,5.2-6.1,6.6c-1.3,0.9-2.6,1.3-3.6,1.3c-0.9,0-1.6-0.2-2.1-0.7
		c-0.5-0.5-0.7-1.2-0.7-2.1c0-1.1,0.4-3,1.2-5.7l4-14c0.5-1.7,0.7-3,0.7-4c0-0.5-0.1-0.9-0.5-1.1c-0.2-0.2-0.6-0.5-1.1-0.5
		c-0.6,0-1.5,0.2-2.3,0.9c-1.7,1-3.4,2.8-5.3,5.1c-1.8,2.4-3.8,5.5-5.8,9.1c-1.1,1.9-1.9,4.1-2.7,6.4l-1.7,5.7h-5.2l6.3-21.6
		c0.7-2.6,1.1-4.1,1.1-4.7c0-0.5-0.2-1-0.6-1.3c-0.4-0.4-0.9-0.6-1.5-0.6c-0.2,0-0.7,0-1.5,0.1l-1.3,0.1l-0.2-1.2L426.3,1066.3z"/>
	<path class="st0" d="M480.4,1048.4l-11.8,41.2c-0.6,2.1-0.9,3.3-0.9,3.8c0,0.4,0.1,0.6,0.4,0.9c0.2,0.2,0.5,0.4,0.9,0.4
		c0.5,0,1-0.2,1.5-0.6c1.2-1,2.4-2.4,3.8-4.4l1,1.1c-2.2,3-4.3,5.2-6.1,6.4c-1.3,0.9-2.7,1.3-3.9,1.3c-0.9,0-1.6-0.2-2.2-0.9
		s-0.9-1.3-0.9-2.1c0-0.9,0.4-2.6,1.1-5.1l9.4-32.4c0.7-2.7,1.1-4.1,1.1-4.5c0-0.6-0.2-1.1-0.6-1.3s-1.1-0.5-2.1-0.5
		c-0.5,0-1.3,0.1-2.4,0.2v-1.3L480.4,1048.4z"/>
	<path class="st0" d="M510.1,1066.3l-6.8,23.4l-0.7,3.2c0,0.2-0.1,0.5-0.1,0.7c0,0.4,0.1,0.7,0.4,1c0.1,0.2,0.4,0.2,0.7,0.2
		c0.4,0,0.7-0.2,1.2-0.6c0.9-0.6,2.1-2.1,3.6-4.1l1.2,0.9c-1.6,2.4-3.2,4.3-4.9,5.5c-1.7,1.2-3.3,1.8-4.7,1.8c-1,0-1.7-0.2-2.2-0.7
		c-0.5-0.5-0.7-1.2-0.7-2.2c0-1.1,0.2-2.7,0.7-4.5l0.7-2.7c-3,4-5.8,6.7-8.4,8.3c-1.8,1.1-3.6,1.7-5.3,1.7s-3.2-0.7-4.4-2.1
		s-1.8-3.3-1.8-5.7c0-3.6,1.1-7.5,3.3-11.7c2.2-4.1,5-7.3,8.4-9.7c2.7-1.9,5.1-2.9,7.5-2.9c1.5,0,2.7,0.4,3.5,1.1
		c1,0.7,1.6,1.9,2.2,3.6l1.2-4L510.1,1066.3z M497.7,1068c-1.5,0-3,0.7-4.7,2.1c-2.4,1.9-4.5,4.9-6.3,8.7s-2.8,7.3-2.8,10.4
		c0,1.6,0.4,2.8,1.2,3.6c0.9,0.9,1.7,1.3,2.7,1.3c2.6,0,5.2-1.8,8.1-5.6c4-5,6-10,6-15.2c0-1.9-0.4-3.4-1.1-4.3
		C500,1068.4,499,1068,497.7,1068z"/>
	<path class="st0" d="M541.8,1066.3l-6.8,24.3c-0.5,1.6-0.7,2.6-0.7,2.9s0.1,0.7,0.4,0.9c0.2,0.2,0.5,0.4,0.7,0.4
		c0.4,0,0.7-0.2,1.2-0.6c1.3-1,2.7-2.6,4-4.4l1.2,0.9c-1.6,2.4-3.4,4.4-5.6,6.1c-1.6,1.2-3,1.8-4.5,1.8c-1,0-1.7-0.2-2.3-0.9
		c-0.6-0.6-0.9-1.2-0.9-2.2c0-0.9,0.2-2.3,0.9-4.3l4.5-15.6c0.7-2.6,1.1-4.1,1.1-4.7c0-0.5-0.1-0.9-0.5-1.2
		c-0.4-0.4-0.9-0.5-1.5-0.5c-0.5,0-1.6,0.1-3.2,0.4v-1.3L541.8,1066.3z M541.4,1052.6c1,0,1.8,0.4,2.4,1c0.6,0.7,1,1.5,1,2.4
		s-0.4,1.8-1,2.4c-0.7,0.7-1.5,1-2.4,1s-1.8-0.4-2.4-1c-0.7-0.7-1-1.5-1-2.4s0.4-1.7,1-2.4C539.6,1053,540.5,1052.6,541.4,1052.6z"
		/>
	<path class="st0" d="M558.3,1066.3l-4.5,15.7c2.1-3.6,3.8-6.4,5.1-8.3c2.2-2.9,4.3-5,6.4-6.2c1.2-0.7,2.6-1.1,3.8-1.1
		c1.1,0,2.1,0.4,2.9,1.1c0.7,0.7,1.2,1.7,1.2,2.8s-0.2,2.7-0.9,4.4l-2.4,8.7c3.8-7,7.3-12,10.7-14.8c1.8-1.6,3.6-2.3,5.5-2.3
		c1.1,0,1.9,0.4,2.7,1.1c0.7,0.7,1,1.8,1,3.4c0,1.3-0.2,2.8-0.6,4.3l-3.8,13.5c-0.9,2.9-1.2,4.6-1.2,4.9c0,0.4,0.1,0.6,0.2,0.9
		c0.1,0.1,0.4,0.2,0.6,0.2s0.6-0.2,1.2-0.6c1.3-1,2.6-2.4,3.6-4l1.2,0.7c-0.6,1-1.6,2.2-3,3.8c-1.5,1.6-2.7,2.7-3.8,3.3
		c-1.1,0.6-1.9,0.9-2.9,0.9c-0.9,0-1.5-0.2-2.1-0.9c-0.6-0.6-0.9-1.2-0.9-2.1c0-1.1,0.5-3.4,1.5-6.7l3.2-11.1c0.7-2.6,1.1-4,1.1-4.3
		c0.1-0.5,0.1-0.9,0.1-1.3c0-0.6-0.1-1-0.4-1.3c-0.2-0.4-0.6-0.5-1-0.5c-1,0-1.9,0.5-3,1.5c-3.2,2.9-6.2,7-9,12.3
		c-1.8,3.5-3.5,8-5.1,13.4h-5.2l6-20.9c0.6-2.3,1-3.8,1-4.5c0-0.6-0.1-1.1-0.4-1.3s-0.6-0.5-1-0.5c-0.7,0-1.6,0.2-2.4,0.9
		c-1.3,1-3.2,2.8-5.3,5.8c-2.2,2.9-3.9,5.8-5.1,8.5c-0.6,1.2-1.9,5.3-4.1,12.1h-5l6.4-22.5l0.9-2.9c0.1-0.5,0.2-0.7,0.2-1
		c0-0.5-0.2-1-0.7-1.3c-0.5-0.4-1.1-0.6-1.7-0.6c-0.4,0-1.1,0.1-2.6,0.5l-0.2-1.3L558.3,1066.3z"/>
	<path class="st0" d="M625.3,1066.3l-6.8,23.4l-0.7,3.2c0,0.2-0.1,0.5-0.1,0.7c0,0.4,0.1,0.7,0.4,1c0.1,0.2,0.4,0.2,0.7,0.2
		c0.2,0,0.7-0.2,1.2-0.6c0.9-0.6,2.1-2.1,3.6-4.1l1.2,0.9c-1.6,2.4-3.2,4.3-4.9,5.5s-3.3,1.8-4.7,1.8c-1,0-1.7-0.2-2.2-0.7
		c-0.5-0.5-0.7-1.2-0.7-2.2c0-1.1,0.2-2.7,0.7-4.5l0.7-2.7c-3,4-5.8,6.7-8.4,8.3c-1.8,1.1-3.6,1.7-5.3,1.7c-1.7,0-3.2-0.7-4.4-2.1
		c-1.2-1.3-1.8-3.3-1.8-5.7c0-3.6,1.1-7.5,3.3-11.7c2.2-4.1,5-7.3,8.4-9.7c2.7-1.9,5.1-2.9,7.5-2.9c1.5,0,2.7,0.4,3.5,1.1
		c1,0.7,1.6,1.9,2.2,3.6l1.2-4L625.3,1066.3z M612.9,1068c-1.5,0-3,0.7-4.7,2.1c-2.4,1.9-4.5,4.9-6.3,8.7s-2.8,7.3-2.8,10.4
		c0,1.6,0.4,2.8,1.2,3.6c0.9,0.9,1.7,1.3,2.7,1.3c2.6,0,5.2-1.8,8.1-5.6c4-5,6-10,6-15.2c0-1.9-0.4-3.4-1.1-4.3
		C615.3,1068.5,614.2,1068,612.9,1068z"/>
	<path class="st0" d="M662.1,1068.4l-1,3.6h-5.8c0.5,1.2,0.6,2.4,0.6,3.5c0,3-1.3,5.8-3.9,8.1c-2.6,2.3-6.2,3.6-10.7,3.9
		c-2.4,0.7-4.3,1.6-5.5,2.7c-0.5,0.4-0.7,0.7-0.7,1.1c0,0.5,0.2,0.9,0.6,1.2s1.5,0.7,3.2,1.1l6.8,1.6c3.6,0.9,6.2,1.9,7.3,3
		c1.2,1.2,1.7,2.7,1.7,4.3c0,1.9-0.7,3.6-2.1,5.2s-3.4,2.8-6.1,3.6c-2.7,0.9-5.7,1.3-8.9,1.3c-2.9,0-5.5-0.4-7.8-1
		c-2.3-0.7-4-1.6-5.1-2.8c-1-1.1-1.6-2.3-1.6-3.5c0-1,0.4-1.9,1-3s1.5-1.9,2.4-2.7c0.6-0.5,2.4-1.5,5.2-3.2
		c-1.1-0.9-1.6-1.7-1.6-2.8c0-1,0.5-1.9,1.5-2.9c1-1,2.9-2.2,6-3.4c-2.6-0.5-4.6-1.6-6.1-3.2s-2.2-3.4-2.2-5.5
		c0-3.3,1.5-6.2,4.3-8.7c2.9-2.6,6.7-3.9,11.4-3.9c1.7,0,3.2,0.1,4.3,0.5s2.2,0.9,3.3,1.6h9.5V1068.4z M633.5,1097.6
		c-1.8,0.9-3.3,1.9-4.3,3.3s-1.5,2.7-1.5,3.9c0,1.5,0.7,2.8,2.1,3.8c2.1,1.5,4.9,2.2,8.7,2.2c3.3,0,6.1-0.6,8.5-1.7
		c2.3-1.1,3.5-2.6,3.5-4.4c0-1-0.5-1.8-1.3-2.6s-2.6-1.5-5.1-1.9C642.9,1099.9,639.4,1099,633.5,1097.6z M650,1073.9
		c0-1.8-0.5-3.3-1.6-4.4c-1-1.1-2.4-1.6-4-1.6c-2.6,0-4.7,1.3-6.4,3.9c-1.7,2.7-2.6,5.3-2.6,8.1c0,1.8,0.5,3.3,1.6,4.4
		c1.1,1.1,2.4,1.7,3.9,1.7c1.2,0,2.4-0.4,3.5-1c1.1-0.7,2.1-1.6,2.9-2.8c0.7-1.2,1.3-2.7,1.8-4.5
		C649.8,1076.1,650,1074.7,650,1073.9z"/>
	<path class="st0" d="M666.8,1084.6c-0.1,1.1-0.2,2.1-0.2,2.8c0,2.1,0.7,3.8,2.2,5.2s3.2,2.2,5.3,2.2c1.7,0,3.3-0.4,4.7-1
		c1.6-0.7,3.8-2.2,6.8-4.5l0.7,1c-5.5,5.5-10.7,8.1-15.7,8.1c-3.4,0-5.8-1.1-7.5-3.2c-1.7-2.1-2.6-4.5-2.6-7c0-3.4,1.1-6.9,3.2-10.6
		c2.1-3.6,4.7-6.4,8-8.4c3.2-1.9,6.4-3,10-3c2.4,0,4.3,0.5,5.5,1.5c1.2,1,1.7,2.2,1.7,3.5c0,1.9-0.7,3.8-2.3,5.5
		c-2.1,2.3-5,4.1-8.9,5.6C675.1,1083.3,671.5,1084.1,666.8,1084.6z M667,1082.9c3.4-0.4,6.2-1.1,8.4-2.1c2.8-1.2,5-2.8,6.4-4.5
		c1.5-1.8,2.2-3.4,2.2-5.1c0-1-0.4-1.7-1-2.3s-1.5-0.9-2.6-0.9c-2.3,0-4.9,1.2-7.5,3.8C670.2,1074.2,668.3,1078,667,1082.9z"/>
	<path class="st0" d="M703.3,1066.3l-4.6,15.8c4.3-6.4,7.7-10.7,10-12.8c2.3-2.1,4.5-3,6.7-3c1.1,0,2.1,0.4,2.8,1.2s1.1,1.8,1.1,2.9
		c0,1.5-0.4,3.3-1,5.6l-4.3,14.6c-0.5,1.7-0.7,2.7-0.7,3s0.1,0.6,0.2,0.9s0.4,0.4,0.6,0.4s0.6-0.1,1-0.5c1.2-1,2.6-2.4,4-4.4
		l1.1,0.6c-2.2,3-4.1,5.2-6.1,6.6c-1.3,0.9-2.6,1.3-3.6,1.3c-0.9,0-1.6-0.2-2.1-0.7c-0.5-0.5-0.7-1.2-0.7-2.1c0-1.1,0.4-3,1.2-5.7
		l4-14c0.5-1.7,0.7-3,0.7-4c0-0.5-0.1-0.9-0.5-1.1c-0.2-0.2-0.6-0.5-1.1-0.5c-0.6,0-1.5,0.2-2.3,0.9c-1.7,1-3.4,2.8-5.3,5.1
		c-1.8,2.4-3.8,5.5-5.8,9.1c-1.1,1.9-1.9,4.1-2.7,6.4l-1.7,5.7h-5.2l6.3-21.6c0.7-2.6,1.1-4.1,1.1-4.7c0-0.5-0.2-1-0.6-1.3
		s-0.9-0.6-1.5-0.6c-0.2,0-0.7,0-1.5,0.1l-1.3,0.1l-0.2-1.2L703.3,1066.3z"/>
	<path class="st0" d="M774.7,1048.4l-11.9,40.8c-0.6,2.2-1,3.6-1,4.4c0,0.2,0.1,0.5,0.2,0.6c0.1,0.1,0.4,0.2,0.6,0.2
		c0.4,0,0.7-0.1,1.1-0.5c0.9-0.6,2.1-1.9,4-4.1l1.2,0.7c-1.7,2.3-3.4,4.1-5.1,5.6c-1.7,1.5-3.3,2.2-4.7,2.2c-0.9,0-1.5-0.2-1.9-0.9
		c-0.5-0.5-0.7-1.3-0.7-2.3c0-1.3,0.4-3,1-5.2l1.3-4.3c-3.3,5.2-6.3,8.7-9.1,10.7c-1.9,1.3-3.6,2.1-5.5,2.1c-1.8,0-3.3-0.7-4.6-2.3
		c-1.3-1.6-1.9-3.6-1.9-6.3c0-3.4,1.1-7,3.3-11.1c2.2-3.9,5.1-7,8.7-9.5c2.8-1.9,5.5-2.9,7.8-2.9c1.2,0,2.3,0.2,3.2,0.7
		c0.9,0.5,1.8,1.3,2.7,2.6l3.4-12c0.2-0.9,0.5-1.6,0.6-2.1c0.2-1,0.5-1.7,0.5-2.3c0-0.5-0.1-0.9-0.5-1.2c-0.5-0.4-1.1-0.6-1.9-0.6
		c-0.5,0-1.3,0.1-2.7,0.2v-1.3L774.7,1048.4z M761.8,1073c0-1.5-0.4-2.7-1.2-3.5c-0.9-0.9-1.9-1.3-3.3-1.3c-2.9,0-6,2.4-9.1,7.2
		c-3.2,4.7-4.7,9.4-4.7,13.7c0,1.7,0.4,3,1.1,4c0.7,0.9,1.7,1.3,2.7,1.3c2.4,0,5.5-2.6,9-7.8C760,1081.4,761.8,1076.9,761.8,1073z"
		/>
	<path class="st0" d="M778,1084.6c-0.1,1.1-0.2,2.1-0.2,2.8c0,2.1,0.7,3.8,2.2,5.2c1.5,1.5,3.2,2.2,5.3,2.2c1.7,0,3.3-0.4,4.7-1
		c1.6-0.7,3.8-2.2,6.8-4.5l0.7,1c-5.5,5.5-10.7,8.1-15.7,8.1c-3.4,0-5.8-1.1-7.5-3.2s-2.6-4.5-2.6-7c0-3.4,1.1-6.9,3.2-10.6
		c2.1-3.6,4.7-6.4,8-8.4c3.2-1.9,6.4-3,10-3c2.4,0,4.3,0.5,5.5,1.5c1.2,1,1.7,2.2,1.7,3.5c0,1.9-0.7,3.8-2.3,5.5
		c-2.1,2.3-5,4.1-8.9,5.6C786.2,1083.3,782.6,1084.1,778,1084.6z M778.2,1082.9c3.4-0.4,6.2-1.1,8.4-2.1c2.8-1.2,5-2.8,6.4-4.5
		c1.5-1.8,2.2-3.4,2.2-5.1c0-1-0.4-1.7-1-2.3s-1.5-0.9-2.6-0.9c-2.3,0-4.9,1.2-7.5,3.8C781.4,1074.2,779.4,1078,778.2,1082.9z"/>
	<path class="st0" d="M819.8,1048.4l-11.8,41.2c-0.6,2.1-0.9,3.3-0.9,3.8c0,0.4,0.1,0.6,0.4,0.9s0.5,0.4,0.9,0.4
		c0.5,0,1-0.2,1.5-0.6c1.2-1,2.4-2.4,3.8-4.4l1,1.1c-2.2,3-4.3,5.2-6.1,6.4c-1.3,0.9-2.7,1.3-3.9,1.3c-0.9,0-1.6-0.2-2.2-0.9
		c-0.6-0.6-0.9-1.3-0.9-2.1c0-0.9,0.4-2.6,1.1-5.1l9.4-32.4c0.7-2.7,1.1-4.1,1.1-4.5c0-0.6-0.2-1.1-0.6-1.3s-1.1-0.5-2.1-0.5
		c-0.5,0-1.3,0.1-2.4,0.2v-1.3L819.8,1048.4z"/>
	<path class="st0" d="M847.5,1066.3l-2.4,8c2.6-2.9,4.7-5,6.8-6.2c1.9-1.2,4-1.8,6.1-1.8s3.8,0.9,5.2,2.4s2.2,3.8,2.2,6.3
		c0,5.1-2.1,10.2-6.2,15.4c-4.1,5.2-9,7.9-14.5,7.9c-1.1,0-2.2-0.1-3-0.4c-0.9-0.2-1.8-0.7-2.9-1.3l-2.6,9c-0.5,1.7-0.7,2.9-0.7,3.4
		s0.1,1,0.4,1.3c0.2,0.4,0.7,0.6,1.3,0.9c0.6,0.2,1.8,0.2,3.5,0.2l-0.2,1.3h-16.3l0.4-1.3c2.2-0.1,3.6-0.5,4.4-1.1s1.6-2.4,2.3-5.3
		l8.7-30.2c0.5-1.9,0.7-3.2,0.7-3.5c0-0.6-0.1-1.1-0.5-1.5c-0.4-0.4-0.9-0.5-1.6-0.5s-1.6,0.1-2.8,0.2v-1.3L847.5,1066.3z
		 M839.3,1093.9c1.5,1.7,3.4,2.6,5.8,2.6c1.2,0,2.4-0.4,3.6-1c1.2-0.7,2.4-1.7,3.6-2.9c1.2-1.3,2.3-2.8,3.2-4.5
		c1-1.7,1.8-3.8,2.6-6.1c0.7-2.3,1.1-4.6,1.1-6.9c0-1.8-0.4-3.3-1.2-4.3s-1.8-1.5-3-1.5c-2.6,0-5,1.5-7.4,4.3
		c-2.4,2.8-4.3,6.2-5.3,10.1L839.3,1093.9z"/>
	<path class="st0" d="M898.2,1066.3l-6.8,23.4l-0.7,3.2c0,0.2-0.1,0.5-0.1,0.7c0,0.4,0.1,0.7,0.4,1c0.1,0.2,0.4,0.2,0.7,0.2
		c0.2,0,0.7-0.2,1.2-0.6c0.9-0.6,2.1-2.1,3.6-4.1l1.2,0.9c-1.6,2.4-3.2,4.3-4.9,5.5c-1.7,1.2-3.3,1.8-4.7,1.8c-1,0-1.7-0.2-2.2-0.7
		c-0.5-0.5-0.7-1.2-0.7-2.2c0-1.1,0.2-2.7,0.7-4.5l0.7-2.7c-3,4-5.8,6.7-8.4,8.3c-1.8,1.1-3.6,1.7-5.3,1.7s-3.2-0.7-4.4-2.1
		s-1.8-3.3-1.8-5.7c0-3.6,1.1-7.5,3.3-11.7c2.2-4.1,5-7.3,8.4-9.7c2.7-1.9,5.1-2.9,7.5-2.9c1.5,0,2.7,0.4,3.5,1.1
		c1,0.7,1.6,1.9,2.2,3.6l1.2-4L898.2,1066.3z M885.8,1068c-1.5,0-3,0.7-4.7,2.1c-2.4,1.9-4.5,4.9-6.3,8.7s-2.8,7.3-2.8,10.4
		c0,1.6,0.4,2.8,1.2,3.6c0.9,0.9,1.7,1.3,2.7,1.3c2.6,0,5.2-1.8,8.1-5.6c4-5,6-10,6-15.2c0-1.9-0.4-3.4-1.1-4.3
		C888.3,1068.5,887.2,1068,885.8,1068z"/>
	<path class="st0" d="M923.9,1066.3l-2.1,10.7h-1.3c-0.1-3-0.7-5.3-1.9-6.8s-2.7-2.1-4.5-2.1c-1.5,0-2.6,0.4-3.4,1.2
		s-1.2,1.7-1.2,2.8c0,0.7,0.1,1.5,0.5,2.2c0.4,0.7,1.1,1.7,2.2,2.9c3,3.3,4.9,5.7,5.8,7.4c0.9,1.7,1.3,3.2,1.3,4.7
		c0,2.4-1,4.5-3,6.4c-2.1,1.9-4.5,2.8-7.5,2.8c-1.7,0-3.5-0.4-5.7-1.2c-0.7-0.2-1.3-0.5-1.7-0.5c-1,0-1.8,0.5-2.3,1.6h-1.2l2.1-11.2
		h1.3c0.1,3.5,0.9,6,2.2,7.4s3.2,2.2,5.5,2.2c1.7,0,3.2-0.5,4.1-1.5c1-1,1.6-2.2,1.6-3.6c0-1-0.2-1.8-0.6-2.6
		c-0.6-1.3-2.1-3.3-4.1-5.7s-3.4-4.3-4-5.5s-0.9-2.4-0.9-3.6c0-2.2,0.9-4.1,2.4-5.7c1.6-1.6,3.8-2.3,6.3-2.3c0.7,0,1.5,0,2.1,0.1
		c0.4,0.1,1.1,0.4,2.3,0.9c1.2,0.5,1.9,0.6,2.4,0.6c1,0,1.8-0.5,2.6-1.6h0.9V1066.3z"/>
	<path class="st0" d="M956.8,1066.3l-6.8,23.4l-0.7,3.2c0,0.2-0.1,0.5-0.1,0.7c0,0.4,0.1,0.7,0.4,1c0.1,0.2,0.4,0.2,0.7,0.2
		c0.2,0,0.7-0.2,1.2-0.6c0.9-0.6,2.1-2.1,3.6-4.1l1.2,0.9c-1.6,2.4-3.2,4.3-4.9,5.5c-1.7,1.2-3.3,1.8-4.7,1.8c-1,0-1.7-0.2-2.2-0.7
		c-0.5-0.5-0.7-1.2-0.7-2.2c0-1.1,0.2-2.7,0.7-4.5l0.7-2.7c-3,4-5.8,6.7-8.4,8.3c-1.8,1.1-3.6,1.7-5.3,1.7s-3.2-0.7-4.4-2.1
		s-1.8-3.3-1.8-5.7c0-3.6,1.1-7.5,3.3-11.7c2.2-4.1,5-7.3,8.4-9.7c2.7-1.9,5.1-2.9,7.5-2.9c1.5,0,2.7,0.4,3.5,1.1
		c1,0.7,1.6,1.9,2.2,3.6l1.2-4L956.8,1066.3z M944.4,1068c-1.5,0-3,0.7-4.7,2.1c-2.4,1.9-4.5,4.9-6.3,8.7c-1.8,3.9-2.8,7.3-2.8,10.4
		c0,1.6,0.4,2.8,1.2,3.6c0.9,0.9,1.7,1.3,2.7,1.3c2.6,0,5.2-1.8,8.1-5.6c4-5,6-10,6-15.2c0-1.9-0.4-3.4-1.1-4.3
		C946.8,1068.5,945.7,1068,944.4,1068z"/>
	<path class="st0" d="M972.3,1066.3l-2.4,8c2.6-2.9,4.7-5,6.8-6.2c1.9-1.2,4-1.8,6.1-1.8c2.1,0,3.8,0.9,5.2,2.4s2.2,3.8,2.2,6.3
		c0,5.1-2.1,10.2-6.2,15.4c-4.1,5.2-9,7.9-14.5,7.9c-1.1,0-2.2-0.1-3-0.4c-0.9-0.2-1.8-0.7-2.9-1.3l-2.6,9c-0.5,1.7-0.7,2.9-0.7,3.4
		s0.1,1,0.4,1.3s0.7,0.6,1.3,0.9s1.8,0.2,3.5,0.2l-0.2,1.3H949l0.4-1.3c2.2-0.1,3.6-0.5,4.4-1.1s1.6-2.4,2.3-5.3l8.7-30.2
		c0.5-1.9,0.7-3.2,0.7-3.5c0-0.6-0.1-1.1-0.5-1.5c-0.4-0.4-0.9-0.5-1.6-0.5s-1.6,0.1-2.8,0.2v-1.3L972.3,1066.3z M964.3,1093.9
		c1.5,1.7,3.4,2.6,5.8,2.6c1.2,0,2.4-0.4,3.6-1c1.2-0.7,2.4-1.7,3.6-2.9c1.2-1.3,2.3-2.8,3.2-4.5c1-1.7,1.8-3.8,2.6-6.1
		c0.7-2.3,1.1-4.6,1.1-6.9c0-1.8-0.4-3.3-1.2-4.3s-1.8-1.5-3-1.5c-2.6,0-5,1.5-7.4,4.3c-2.4,2.8-4.3,6.2-5.3,10.1L964.3,1093.9z"/>
	<path class="st0" d="M1022.6,1077.2c0,3.5-1,6.9-2.8,10.3c-1.8,3.4-4.4,6.1-7.7,8s-6.4,2.9-9.6,2.9s-5.7-1-7.8-3s-3-4.6-3-7.8
		c0-3.4,1-6.8,2.9-10.2c1.9-3.4,4.5-6.1,7.8-8.1c3.3-2.1,6.4-3,9.5-3s5.6,1,7.5,3C1021.7,1071.3,1022.6,1074,1022.6,1077.2z
		 M1016.9,1074.7c0-2.2-0.5-3.8-1.6-5c-1.1-1.1-2.4-1.7-4.1-1.7c-3.4,0-6.4,2.4-9.4,7.3c-2.9,4.9-4.3,9.7-4.3,14.5
		c0,2.2,0.6,3.9,1.7,5.1s2.6,1.8,4.1,1.8c3.3,0,6.3-2.4,9.1-7.3C1015.5,1084.7,1016.9,1079.7,1016.9,1074.7z"/>
	<path class="st0" d="M1026.8,1068.3l11.9-1.9l-4.9,16.8c4-6.9,7.7-11.8,11.1-14.5c1.8-1.6,3.4-2.3,4.5-2.3c0.7,0,1.3,0.2,1.8,0.7
		s0.6,1.1,0.6,1.9c0,1.5-0.4,2.9-1.2,4.4c-0.5,1-1.3,1.6-2.4,1.6c-0.5,0-1-0.1-1.3-0.5c-0.4-0.4-0.6-0.9-0.7-1.6
		c0-0.5-0.1-0.7-0.2-0.9c-0.2-0.1-0.4-0.2-0.6-0.2c-0.4,0-0.7,0.1-1.1,0.2c-0.6,0.4-1.5,1.2-2.8,2.7c-1.9,2.3-4,5.2-6.2,8.7
		c-1,1.5-1.8,3.3-2.6,5.1c-1,2.7-1.5,4.3-1.6,4.7l-1.1,4.4h-5.2l6.4-21.5c0.7-2.6,1.1-4.3,1.1-5.3c0-0.4-0.1-0.7-0.5-1
		c-0.5-0.4-1.1-0.6-1.8-0.6c-0.5,0-1.3,0.1-2.7,0.2L1026.8,1068.3z"/>
	<path class="st0" d="M1066.9,1057.7l-2.7,9.4h5.5l-0.6,2.2h-5.3l-6,20.4c-0.6,2.2-1,3.6-1,4.3c0,0.4,0.1,0.7,0.2,1
		c0.1,0.2,0.4,0.4,0.6,0.4c0.6,0,1.3-0.4,2.3-1.2c0.6-0.5,1.8-1.8,3.8-4.3l1.1,0.9c-2.1,3-4.1,5.2-6.1,6.6c-1.3,0.9-2.6,1.3-3.9,1.3
		c-1,0-1.8-0.4-2.4-1s-1-1.5-1-2.4c0-1.2,0.4-3.2,1.1-5.7l5.8-20h-5.2l0.4-1.3c2.6-0.7,4.6-1.7,6.3-3s3.5-3.8,5.7-7.2h1.3V1057.7z"
		/>
	<path class="st0" d="M1074.4,1084.6c-0.1,1.1-0.2,2.1-0.2,2.8c0,2.1,0.7,3.8,2.2,5.2c1.5,1.5,3.2,2.2,5.3,2.2c1.7,0,3.3-0.4,4.7-1
		c1.6-0.7,3.8-2.2,6.8-4.5l0.7,1c-5.5,5.5-10.7,8.1-15.7,8.1c-3.4,0-5.8-1.1-7.5-3.2s-2.6-4.5-2.6-7c0-3.4,1.1-6.9,3.2-10.6
		c2.1-3.6,4.7-6.4,8-8.4c3.2-1.9,6.4-3,10-3c2.4,0,4.3,0.5,5.5,1.5c1.2,1,1.7,2.2,1.7,3.5c0,1.9-0.7,3.8-2.3,5.5
		c-2.1,2.3-5,4.1-8.9,5.6C1082.8,1083.3,1079.1,1084.1,1074.4,1084.6z M1074.6,1082.9c3.4-0.4,6.2-1.1,8.4-2.1
		c2.8-1.2,5-2.8,6.4-4.5c1.5-1.8,2.2-3.4,2.2-5.1c0-1-0.4-1.7-1-2.3s-1.5-0.9-2.6-0.9c-2.3,0-4.9,1.2-7.5,3.8
		C1077.9,1074.2,1076,1078,1074.6,1082.9z"/>
	<path class="st0" d="M267.4,1171.9l-2.4,8c2.6-2.9,4.7-5,6.8-6.2c1.9-1.2,4-1.8,6.1-1.8c2.1,0,3.8,0.9,5.2,2.4s2.2,3.8,2.2,6.3
		c0,5.1-2.1,10.2-6.2,15.4c-4.1,5.2-9,7.9-14.5,7.9c-1.1,0-2.2-0.1-3-0.4s-1.8-0.7-2.9-1.3l-2.6,9c-0.5,1.7-0.7,2.9-0.7,3.4
		s0.1,1,0.4,1.3c0.2,0.4,0.7,0.6,1.3,0.9s1.8,0.2,3.5,0.2l-0.2,1.3H244l0.4-1.3c2.2-0.1,3.6-0.5,4.4-1.1s1.6-2.4,2.3-5.3l8.7-30.2
		c0.5-1.9,0.7-3.2,0.7-3.5c0-0.6-0.1-1.1-0.5-1.5c-0.4-0.4-0.9-0.5-1.6-0.5c-0.7,0-1.6,0.1-2.8,0.2v-1.3L267.4,1171.9z
		 M259.3,1199.5c1.5,1.7,3.4,2.6,5.8,2.6c1.2,0,2.4-0.4,3.6-1s2.4-1.7,3.6-2.9c1.2-1.3,2.3-2.8,3.2-4.5c1-1.7,1.8-3.8,2.6-6.1
		c0.7-2.3,1.1-4.6,1.1-6.9c0-1.8-0.4-3.3-1.2-4.3s-1.8-1.5-3-1.5c-2.6,0-5,1.5-7.4,4.3c-2.4,2.8-4.3,6.2-5.3,10.1L259.3,1199.5z"/>
	<path class="st0" d="M318.1,1171.9l-6.8,23.4l-0.7,3.2c0,0.2-0.1,0.5-0.1,0.7c0,0.4,0.1,0.7,0.4,1c0.1,0.2,0.4,0.2,0.7,0.2
		c0.2,0,0.7-0.2,1.2-0.6c0.9-0.6,2.1-2.1,3.6-4.1l1.2,0.9c-1.6,2.4-3.2,4.3-4.9,5.5s-3.3,1.8-4.7,1.8c-1,0-1.7-0.2-2.2-0.7
		s-0.7-1.2-0.7-2.2c0-1.1,0.2-2.7,0.7-4.5l0.7-2.7c-3,4-5.8,6.7-8.4,8.3c-1.8,1.1-3.6,1.7-5.3,1.7s-3.2-0.7-4.4-2.1
		c-1.2-1.3-1.8-3.3-1.8-5.7c0-3.6,1.1-7.5,3.3-11.7c2.2-4.1,5-7.3,8.4-9.7c2.7-1.9,5.1-2.9,7.5-2.9c1.5,0,2.7,0.4,3.5,1.1
		c1,0.7,1.6,1.9,2.2,3.6l1.2-4L318.1,1171.9z M305.9,1173.7c-1.5,0-3,0.7-4.7,2.1c-2.4,1.9-4.5,4.9-6.3,8.7s-2.8,7.3-2.8,10.4
		c0,1.6,0.4,2.8,1.2,3.6c0.7,1,1.7,1.3,2.7,1.3c2.6,0,5.2-1.8,8.1-5.6c4-5,6-10,6-15.2c0-1.9-0.4-3.4-1.1-4.3
		C308.2,1174.1,307.1,1173.7,305.9,1173.7z"/>
	<path class="st0" d="M321.8,1173.9l11.9-1.9l-5,16.9c4-6.9,7.7-11.8,11.1-14.5c1.8-1.6,3.4-2.3,4.5-2.3c0.7,0,1.3,0.2,1.8,0.7
		s0.6,1.1,0.6,1.9c0,1.5-0.4,2.9-1.2,4.4c-0.5,1-1.3,1.6-2.4,1.6c-0.5,0-1-0.1-1.3-0.5c-0.4-0.4-0.6-0.9-0.7-1.6
		c0-0.5-0.1-0.7-0.2-0.9c-0.2-0.1-0.4-0.2-0.6-0.2c-0.4,0-0.7,0.1-1.1,0.2c-0.6,0.4-1.5,1.2-2.8,2.7c-1.9,2.3-4,5.2-6.2,8.7
		c-1,1.5-1.8,3.3-2.6,5.1c-1,2.7-1.5,4.3-1.6,4.7l-1.1,4.4h-5.2l6.4-21.5c0.7-2.6,1.1-4.3,1.1-5.3c0-0.4-0.1-0.7-0.5-1
		c-0.5-0.4-1.1-0.6-1.8-0.6c-0.5,0-1.3,0.1-2.7,0.2L321.8,1173.9z"/>
	<path class="st0" d="M376.7,1171.9l-6.8,23.4l-0.7,3.2c0,0.2-0.1,0.5-0.1,0.7c0,0.4,0.1,0.7,0.4,1c0.1,0.2,0.4,0.2,0.7,0.2
		c0.2,0,0.7-0.2,1.2-0.6c0.9-0.6,2.1-2.1,3.6-4.1l1.2,0.9c-1.6,2.4-3.2,4.3-4.9,5.5s-3.3,1.8-4.7,1.8c-1,0-1.7-0.2-2.2-0.7
		s-0.7-1.2-0.7-2.2c0-1.1,0.2-2.7,0.7-4.5l0.7-2.7c-3,4-5.8,6.7-8.4,8.3c-1.8,1.1-3.6,1.7-5.3,1.7s-3.2-0.7-4.4-2.1
		c-1.2-1.3-1.8-3.3-1.8-5.7c0-3.6,1.1-7.5,3.3-11.7c2.2-4.1,5-7.3,8.4-9.7c2.7-1.9,5.1-2.9,7.5-2.9c1.5,0,2.7,0.4,3.5,1.1
		c1,0.7,1.6,1.9,2.2,3.6l1.2-4L376.7,1171.9z M364.4,1173.7c-1.5,0-3,0.7-4.7,2.1c-2.4,1.9-4.5,4.9-6.3,8.7s-2.8,7.3-2.8,10.4
		c0,1.6,0.4,2.8,1.2,3.6c0.7,1,1.7,1.3,2.7,1.3c2.6,0,5.2-1.8,8.1-5.6c4-5,6-10,6-15.2c0-1.9-0.4-3.4-1.1-4.3
		C366.7,1174.1,365.8,1173.7,364.4,1173.7z"/>
	<path class="st0" d="M419.6,1195.7c-2.4,2.9-4.9,5-7.3,6.3s-5,2.1-7.8,2.1c-3.3,0-5.8-1-7.7-2.8c-1.8-1.8-2.8-4.3-2.8-7.4
		c0-3.5,1-7,2.9-10.4c1.9-3.4,4.6-6.2,7.9-8.4c3.3-2.2,6.6-3.2,9.8-3.2c2.6,0,4.4,0.5,5.7,1.6c1.2,1.1,1.8,2.3,1.8,3.9
		c0,1.5-0.5,2.7-1.3,3.6c-0.6,0.9-1.5,1.2-2.3,1.2c-0.7,0-1.3-0.2-1.8-0.7s-0.7-1.1-0.7-1.7c0-0.5,0.1-0.9,0.2-1.2s0.5-0.9,1.1-1.3
		c0.5-0.5,0.9-0.9,1-1.1c0.1-0.2,0.1-0.5,0.1-0.7c0-0.5-0.2-0.9-0.6-1.2c-0.7-0.5-1.6-0.7-2.8-0.7c-2.3,0-4.5,0.9-6.7,2.4
		s-4.1,3.9-5.7,6.8c-1.9,3.5-2.8,7-2.8,10.7c0,2.3,0.7,4.3,2.1,5.6c1.3,1.3,3.2,2.1,5.5,2.1c1.8,0,3.5-0.5,5.2-1.3
		c1.7-0.9,3.6-2.6,5.8-4.9L419.6,1195.7z"/>
	<path class="st0" d="M454.2,1182.7c0,3.5-1,6.9-2.8,10.3s-4.4,6.1-7.7,8c-3.3,1.9-6.4,2.9-9.5,2.9c-3.2,0-5.7-1-7.8-3
		c-2.1-2.1-3-4.6-3-7.8c0-3.4,1-6.8,2.9-10.2c1.9-3.4,4.5-6.1,7.8-8.1s6.4-3,9.5-3s5.6,1,7.5,3
		C453.1,1176.9,454.2,1179.6,454.2,1182.7z M448.5,1180.3c0-2.2-0.5-3.8-1.6-5c-1.1-1.1-2.4-1.7-4.1-1.7c-3.4,0-6.4,2.4-9.4,7.3
		c-2.8,4.9-4.3,9.7-4.3,14.5c0,2.2,0.6,3.9,1.7,5.1c1.1,1.2,2.6,1.8,4.1,1.8c3.3,0,6.3-2.4,9.1-7.3
		C447,1190.3,448.5,1185.3,448.5,1180.3z"/>
	<path class="st0" d="M470.2,1171.9l-4.6,15.8c4.3-6.4,7.7-10.7,10-12.8c2.3-2.1,4.5-3,6.7-3c1.1,0,2.1,0.4,2.8,1.2s1.1,1.8,1.1,2.9
		c0,1.5-0.4,3.3-1,5.6l-4.3,14.6c-0.5,1.7-0.7,2.7-0.7,3s0.1,0.6,0.2,0.9c0.1,0.2,0.4,0.4,0.6,0.4s0.6-0.1,1-0.5
		c1.2-1,2.6-2.4,4-4.4l1.1,0.6c-2.2,3-4.1,5.2-6.1,6.6c-1.3,0.9-2.6,1.3-3.6,1.3c-0.9,0-1.6-0.2-2.1-0.7c-0.5-0.5-0.7-1.2-0.7-2.1
		c0-1.1,0.4-3,1.2-5.7l4-14c0.5-1.7,0.7-3,0.7-4c0-0.5-0.1-0.9-0.5-1.1c-0.2-0.2-0.6-0.5-1.1-0.5c-0.6,0-1.5,0.2-2.3,0.9
		c-1.7,1-3.4,2.8-5.3,5.1c-1.8,2.4-3.8,5.5-5.8,9.1c-1.1,1.9-1.9,4.1-2.7,6.4l-1.7,5.7h-5.2l6.3-21.6c0.7-2.6,1.1-4.1,1.1-4.7
		c0-0.5-0.2-1-0.6-1.3s-0.9-0.6-1.5-0.6c-0.2,0-0.7,0-1.5,0.1l-1.3,0.1l-0.2-1.2L470.2,1171.9z"/>
	<path class="st0" d="M508.9,1172.8l-0.6,2.3h-5l-3.8,15.1c-1.7,6.7-3.4,11.8-5.1,15.4c-2.4,5.1-5,8.6-7.8,10.6
		c-2.1,1.5-4.3,2.3-6.3,2.3c-1.5,0-2.6-0.4-3.5-1.2c-0.7-0.6-1.1-1.3-1.1-2.2c0-0.7,0.2-1.3,0.9-1.9c0.6-0.5,1.3-0.9,2.2-0.9
		c0.6,0,1.2,0.2,1.6,0.6c0.4,0.4,0.6,0.9,0.6,1.3s-0.2,1-0.7,1.5c-0.4,0.4-0.6,0.6-0.6,0.7c0,0.2,0.1,0.4,0.2,0.5
		c0.2,0.1,0.5,0.2,1,0.2c1,0,2.1-0.4,3.2-1s2.1-1.6,2.9-2.8c0.9-1.2,1.7-3,2.4-5.3c0.4-1,1.2-4.1,2.6-9.6l6.1-23.4h-6.1l0.5-2.3
		c1.9,0,3.3-0.1,4-0.4c0.7-0.2,1.5-0.7,2.1-1.6c0.6-0.7,1.5-2.2,2.6-4.3c1.3-2.8,2.7-4.9,3.9-6.4c1.7-2.1,3.5-3.6,5.3-4.6
		c1.9-1,3.6-1.6,5.3-1.6s3.2,0.5,4.3,1.3s1.6,1.8,1.6,2.9c0,0.9-0.2,1.5-0.9,2.1c-0.5,0.5-1.2,0.9-2.1,0.9c-0.7,0-1.3-0.2-1.8-0.6
		s-0.7-0.9-0.7-1.5c0-0.4,0.1-0.9,0.5-1.3c0.2-0.5,0.5-0.9,0.5-1.1c0-0.4-0.1-0.6-0.2-0.7c-0.2-0.2-0.7-0.4-1.3-0.4
		c-1.5,0-2.8,0.5-3.9,1.3c-1.6,1.2-2.9,3.2-4.1,5.7c-0.6,1.3-1.8,4.7-3.4,10.1h5V1172.8z"/>
	<path class="st0" d="M521.6,1171.9l-6.8,24.3c-0.5,1.6-0.7,2.6-0.7,2.9s0.1,0.7,0.4,0.9c0.2,0.2,0.5,0.4,0.7,0.4
		c0.4,0,0.7-0.2,1.2-0.6c1.3-1,2.7-2.6,4-4.4l1.2,0.9c-1.6,2.4-3.4,4.4-5.6,6.1c-1.6,1.2-3,1.8-4.5,1.8c-1,0-1.7-0.2-2.3-0.9
		s-0.9-1.2-0.9-2.2c0-0.9,0.2-2.3,0.9-4.3l4.5-15.6c0.7-2.6,1.1-4.1,1.1-4.7c0-0.5-0.1-0.9-0.5-1.2c-0.4-0.4-0.9-0.5-1.5-0.5
		c-0.5,0-1.6,0.1-3.2,0.4v-1.3L521.6,1171.9z M521.1,1158.2c1,0,1.8,0.4,2.4,1c0.6,0.7,1,1.5,1,2.4s-0.4,1.8-1,2.4s-1.5,1-2.4,1
		s-1.7-0.4-2.4-1s-1-1.5-1-2.4s0.4-1.7,1-2.4C519.3,1158.5,520.2,1158.2,521.1,1158.2z"/>
	<path class="st0" d="M526.5,1173.9l11.9-1.9l-5,16.9c4-6.9,7.7-11.8,11.1-14.5c1.8-1.6,3.4-2.3,4.5-2.3c0.7,0,1.3,0.2,1.8,0.7
		s0.6,1.1,0.6,1.9c0,1.5-0.4,2.9-1.2,4.4c-0.5,1-1.3,1.6-2.4,1.6c-0.5,0-1-0.1-1.3-0.5s-0.6-0.9-0.7-1.6c0-0.5-0.1-0.7-0.2-0.9
		c-0.2-0.1-0.4-0.2-0.6-0.2c-0.4,0-0.7,0.1-1.1,0.2c-0.6,0.4-1.5,1.2-2.8,2.7c-1.9,2.3-4,5.2-6.2,8.7c-1,1.5-1.8,3.3-2.6,5.1
		c-1,2.7-1.5,4.3-1.6,4.7l-1.1,4.4h-5.2l6.4-21.5c0.7-2.6,1.1-4.3,1.1-5.3c0-0.4-0.1-0.7-0.5-1c-0.5-0.4-1.1-0.6-1.8-0.6
		c-0.5,0-1.3,0.1-2.7,0.2L526.5,1173.9z"/>
	<path class="st0" d="M563.5,1171.9l-4.5,15.7c2.1-3.6,3.8-6.4,5.1-8.3c2.2-2.9,4.3-5,6.4-6.2c1.2-0.7,2.6-1.1,3.8-1.1
		c1.1,0,2.1,0.4,2.9,1.1c0.7,0.7,1.2,1.7,1.2,2.8s-0.2,2.7-0.9,4.4l-2.4,8.7c3.8-7,7.3-12,10.7-14.8c1.8-1.6,3.6-2.3,5.5-2.3
		c1.1,0,1.9,0.4,2.7,1.1c0.7,0.7,1,1.8,1,3.4c0,1.3-0.2,2.8-0.6,4.3l-3.8,13.5c-0.9,2.9-1.2,4.6-1.2,4.9c0,0.4,0.1,0.6,0.2,0.9
		c0.1,0.1,0.4,0.2,0.6,0.2s0.6-0.2,1.2-0.6c1.3-1,2.6-2.4,3.6-4l1.2,0.7c-0.6,1-1.6,2.2-3,3.8c-1.5,1.6-2.7,2.7-3.8,3.3
		c-1.1,0.6-1.9,0.9-2.9,0.9c-0.9,0-1.5-0.2-2.1-0.9s-0.9-1.2-0.9-2.1c0-1.1,0.5-3.4,1.5-6.7l3.2-11.1c0.7-2.6,1.1-4,1.1-4.3
		c0.1-0.5,0.1-0.9,0.1-1.3c0-0.6-0.1-1-0.4-1.3c-0.2-0.4-0.6-0.5-1-0.5c-1,0-1.9,0.5-3,1.5c-3.2,2.9-6.2,7-9,12.3
		c-1.8,3.5-3.5,8-5.1,13.4h-5.2l6-20.9c0.6-2.3,1-3.8,1-4.5c0-0.6-0.1-1.1-0.4-1.3s-0.6-0.5-1-0.5c-0.7,0-1.6,0.2-2.4,0.9
		c-1.3,1-3.2,2.8-5.3,5.8c-2.2,2.9-3.9,5.8-5.1,8.5c-0.6,1.2-1.9,5.3-4.1,12.1h-5.1l6.4-22.5l0.9-2.9c0.1-0.5,0.2-0.7,0.2-1
		c0-0.5-0.2-1-0.7-1.3c-0.5-0.4-1.1-0.6-1.7-0.6c-0.4,0-1.1,0.1-2.6,0.5l-0.2-1.3L563.5,1171.9z"/>
	<path class="st0" d="M630.4,1171.9l-6.8,23.4l-0.7,3.2c0,0.2-0.1,0.5-0.1,0.7c0,0.4,0.1,0.7,0.4,1c0.1,0.2,0.4,0.2,0.7,0.2
		c0.2,0,0.7-0.2,1.2-0.6c0.9-0.6,2.1-2.1,3.6-4.1l1.2,0.9c-1.6,2.4-3.2,4.3-4.9,5.5c-1.7,1.2-3.3,1.8-4.7,1.8c-1,0-1.7-0.2-2.2-0.7
		c-0.5-0.5-0.7-1.2-0.7-2.2c0-1.1,0.2-2.7,0.7-4.5l0.7-2.7c-3,4-5.8,6.7-8.4,8.3c-1.8,1.1-3.6,1.7-5.3,1.7s-3.2-0.7-4.4-2.1
		s-1.8-3.3-1.8-5.7c0-3.6,1.1-7.5,3.3-11.7s5-7.3,8.4-9.7c2.7-1.9,5.1-2.9,7.5-2.9c1.5,0,2.7,0.4,3.5,1.1c1,0.7,1.6,1.9,2.2,3.6
		l1.2-4L630.4,1171.9z M618.1,1173.7c-1.5,0-3,0.7-4.7,2.1c-2.4,1.9-4.5,4.9-6.3,8.7s-2.8,7.3-2.8,10.4c0,1.6,0.4,2.8,1.2,3.6
		s1.7,1.3,2.7,1.3c2.6,0,5.2-1.8,8.1-5.6c4-5,6-10,6-15.2c0-1.9-0.4-3.4-1.1-4.3C620.4,1174.1,619.3,1173.7,618.1,1173.7z"/>
	<path class="st0" d="M634,1173.9l11.9-1.9l-5,16.9c4-6.9,7.7-11.8,11.1-14.5c1.8-1.6,3.4-2.3,4.5-2.3c0.7,0,1.3,0.2,1.8,0.7
		s0.6,1.1,0.6,1.9c0,1.5-0.4,2.9-1.2,4.4c-0.5,1-1.3,1.6-2.4,1.6c-0.5,0-1-0.1-1.3-0.5s-0.6-0.9-0.7-1.6c0-0.5-0.1-0.7-0.2-0.9
		c-0.2-0.1-0.4-0.2-0.6-0.2c-0.4,0-0.7,0.1-1.1,0.2c-0.6,0.4-1.5,1.2-2.8,2.7c-1.9,2.3-4,5.2-6.2,8.7c-1,1.5-1.8,3.3-2.6,5.1
		c-1,2.7-1.5,4.3-1.6,4.7l-1.1,4.4h-5.2l6.4-21.5c0.7-2.6,1.1-4.3,1.1-5.3c0-0.4-0.1-0.7-0.5-1c-0.5-0.4-1.1-0.6-1.8-0.6
		c-0.5,0-1.3,0.1-2.7,0.2L634,1173.9z"/>
	<path class="st0" d="M689.5,1163.3l-2.7,9.4h5.5l-0.6,2.2h-5.3l-6,20.4c-0.6,2.2-1,3.6-1,4.3c0,0.4,0.1,0.7,0.2,1
		c0.1,0.2,0.4,0.4,0.6,0.4c0.6,0,1.3-0.4,2.3-1.2c0.6-0.5,1.8-1.8,3.8-4.3l1.1,0.9c-2.1,3-4.1,5.2-6.1,6.6c-1.3,0.9-2.6,1.3-3.9,1.3
		c-1,0-1.8-0.4-2.4-1s-1-1.5-1-2.4c0-1.2,0.4-3.2,1.1-5.7l5.8-20h-5.2l0.4-1.3c2.6-0.7,4.6-1.7,6.3-3s3.5-3.8,5.7-7.2h1.3V1163.3z"
		/>
	<path class="st0" d="M722,1172.8l-6.1,20.7c-0.9,3-1.3,5-1.3,5.8c0,0.4,0.1,0.7,0.2,0.9c0.1,0.2,0.4,0.2,0.6,0.2
		c0.4,0,0.9-0.1,1.3-0.5c0.5-0.4,1.7-1.8,3.5-4.3l1.1,0.9c-1.8,2.9-3.8,5-5.6,6.3c-1.2,0.9-2.4,1.3-3.6,1.3c-1,0-1.6-0.2-2.2-0.7
		c-0.5-0.5-0.7-1.1-0.7-1.9s0.1-1.8,0.5-3.2c0.4-1.7,1.5-5.3,3.2-11.2c-3.9,6.4-7.2,10.9-9.8,13.4c-2.7,2.4-5.1,3.6-7.3,3.6
		c-1.1,0-1.9-0.4-2.7-1.1c-0.7-0.7-1.1-1.7-1.1-2.8c0-1.7,0.5-4.4,1.5-7.9l3-10.7c0.7-2.6,1.1-4.1,1.1-4.7c0-0.2-0.1-0.5-0.2-0.7
		s-0.4-0.2-0.6-0.2c-0.5,0-1,0.1-1.5,0.5s-1.6,1.6-3.3,3.8l-1.1-0.7c1.7-2.7,3.5-4.6,5.5-6c1.5-1,2.8-1.5,4.1-1.5
		c0.9,0,1.6,0.2,2.1,0.9c0.5,0.5,0.9,1.2,0.9,2.1c0,1.2-0.5,3.5-1.3,6.7l-3.3,11.2c-0.9,3-1.3,5-1.3,5.8c0,0.5,0.1,0.7,0.5,1.1
		s0.7,0.4,1.2,0.4c0.7,0,1.7-0.4,2.9-1.1c1.2-0.7,2.9-2.4,4.9-5.1c2.1-2.7,3.8-5.1,5.1-7.4c1.3-2.3,2.8-6,4.3-10.9l0.7-2.7h5V1172.8
		z"/>
	<path class="st0" d="M753.1,1171.9l-2.4,8c2.6-2.9,4.7-5,6.8-6.2c1.9-1.2,4-1.8,6.1-1.8c2.1,0,3.8,0.9,5.2,2.4s2.2,3.8,2.2,6.3
		c0,5.1-2.1,10.2-6.2,15.4c-4.1,5.2-9,7.9-14.5,7.9c-1.1,0-2.2-0.1-3-0.4s-1.8-0.7-2.9-1.3l-2.6,9c-0.5,1.7-0.7,2.9-0.7,3.4
		s0.1,1,0.4,1.3s0.7,0.6,1.3,0.9s1.8,0.2,3.5,0.2l-0.2,1.3h-16.3l0.4-1.3c2.2-0.1,3.6-0.5,4.4-1.1s1.6-2.4,2.3-5.3l8.7-30.2
		c0.5-1.9,0.7-3.2,0.7-3.5c0-0.6-0.1-1.1-0.5-1.5c-0.4-0.4-0.9-0.5-1.6-0.5s-1.6,0.1-2.8,0.2v-1.3L753.1,1171.9z M744.9,1199.5
		c1.5,1.7,3.4,2.6,5.8,2.6c1.2,0,2.4-0.4,3.6-1c1.2-0.7,2.4-1.7,3.6-2.9c1.2-1.3,2.3-2.8,3.2-4.5c1-1.7,1.8-3.8,2.6-6.1
		c0.7-2.3,1.1-4.6,1.1-6.9c0-1.8-0.4-3.3-1.2-4.3s-1.8-1.5-3-1.5c-2.6,0-5,1.5-7.4,4.3c-2.4,2.8-4.3,6.2-5.3,10.1L744.9,1199.5z"/>
	<path class="st0" d="M774.3,1173.9l11.9-1.9l-5,16.9c4-6.9,7.7-11.8,11.1-14.5c1.8-1.6,3.4-2.3,4.5-2.3c0.7,0,1.3,0.2,1.8,0.7
		c0.5,0.5,0.6,1.1,0.6,1.9c0,1.5-0.4,2.9-1.2,4.4c-0.5,1-1.3,1.6-2.4,1.6c-0.5,0-1-0.1-1.3-0.5s-0.6-0.9-0.7-1.6
		c0-0.5-0.1-0.7-0.2-0.9c-0.2-0.1-0.4-0.2-0.6-0.2c-0.4,0-0.7,0.1-1.1,0.2c-0.6,0.4-1.5,1.2-2.8,2.7c-1.9,2.3-4,5.2-6.2,8.7
		c-1,1.5-1.8,3.3-2.6,5.1c-1,2.7-1.5,4.3-1.6,4.7l-1.1,4.4h-5.2l6.4-21.5c0.7-2.6,1.1-4.3,1.1-5.3c0-0.4-0.1-0.7-0.5-1
		c-0.5-0.4-1.1-0.6-1.8-0.6c-0.5,0-1.3,0.1-2.7,0.2L774.3,1173.9z"/>
	<path class="st0" d="M804.3,1190.1c-0.1,1.1-0.2,2.1-0.2,2.8c0,2.1,0.7,3.8,2.2,5.2s3.2,2.2,5.3,2.2c1.7,0,3.3-0.4,4.7-1
		c1.6-0.7,3.8-2.2,6.8-4.5l0.7,1c-5.5,5.5-10.7,8.1-15.7,8.1c-3.4,0-5.8-1.1-7.5-3.2c-1.7-2.1-2.6-4.5-2.6-7c0-3.4,1.1-6.9,3.2-10.6
		c2.1-3.6,4.7-6.4,8-8.4c3.2-1.9,6.4-3,10-3c2.4,0,4.3,0.5,5.5,1.5c1.2,1,1.7,2.2,1.7,3.5c0,1.9-0.7,3.8-2.3,5.5
		c-2.1,2.3-5,4.1-8.9,5.6C812.7,1188.9,809.1,1189.6,804.3,1190.1z M804.6,1188.4c3.4-0.4,6.2-1.1,8.4-2.1c2.8-1.2,5-2.8,6.4-4.5
		c1.5-1.8,2.2-3.4,2.2-5.1c0-1-0.4-1.7-1-2.3s-1.5-0.9-2.6-0.9c-2.3,0-4.9,1.2-7.5,3.8C807.9,1179.8,805.9,1183.6,804.6,1188.4z"/>
	<path class="st0" d="M850.9,1171.9l-2.1,10.7h-1.3c-0.1-3-0.7-5.3-1.9-6.8c-1.2-1.5-2.7-2.1-4.5-2.1c-1.5,0-2.6,0.4-3.4,1.2
		s-1.2,1.7-1.2,2.8c0,0.7,0.1,1.5,0.5,2.2c0.4,0.7,1.1,1.7,2.2,2.9c3,3.3,4.9,5.7,5.8,7.4c0.9,1.7,1.3,3.2,1.3,4.7
		c0,2.4-1,4.5-3,6.4c-2.1,1.9-4.5,2.8-7.5,2.8c-1.7,0-3.5-0.4-5.7-1.2c-0.7-0.2-1.3-0.5-1.7-0.5c-1,0-1.8,0.5-2.3,1.6h-1.2l2.1-11.2
		h1.3c0.1,3.5,0.9,6,2.2,7.4s3.2,2.2,5.5,2.2c1.7,0,3.2-0.5,4.1-1.5c1-1,1.6-2.2,1.6-3.6c0-1-0.2-1.8-0.6-2.6
		c-0.6-1.3-2.1-3.3-4.1-5.7c-2.1-2.4-3.4-4.3-4-5.5s-0.9-2.4-0.9-3.6c0-2.2,0.9-4.1,2.4-5.7c1.6-1.6,3.8-2.3,6.3-2.3
		c0.7,0,1.5,0,2.1,0.1c0.4,0.1,1.1,0.4,2.3,0.9c1.2,0.5,1.9,0.6,2.4,0.6c1,0,1.8-0.5,2.6-1.6h0.9V1171.9z"/>
	<path class="st0" d="M859,1190.1c-0.1,1.1-0.2,2.1-0.2,2.8c0,2.1,0.7,3.8,2.2,5.2s3.2,2.2,5.3,2.2c1.7,0,3.3-0.4,4.7-1
		c1.6-0.7,3.8-2.2,6.8-4.5l0.7,1c-5.5,5.5-10.7,8.1-15.7,8.1c-3.4,0-5.8-1.1-7.5-3.2c-1.7-2.1-2.6-4.5-2.6-7c0-3.4,1.1-6.9,3.2-10.6
		c2.1-3.6,4.7-6.4,8-8.4c3.2-1.9,6.4-3,10-3c2.4,0,4.3,0.5,5.5,1.5c1.2,1,1.7,2.2,1.7,3.5c0,1.9-0.7,3.8-2.3,5.5
		c-2.1,2.3-5,4.1-8.9,5.6C867.4,1188.9,863.7,1189.6,859,1190.1z M859.2,1188.4c3.4-0.4,6.2-1.1,8.4-2.1c2.8-1.2,5-2.8,6.4-4.5
		c1.5-1.8,2.2-3.4,2.2-5.1c0-1-0.4-1.7-1-2.3s-1.5-0.9-2.6-0.9c-2.3,0-4.9,1.2-7.5,3.8C862.5,1179.8,860.6,1183.6,859.2,1188.4z"/>
	<path class="st0" d="M895.4,1171.9l-4.6,15.8c4.3-6.4,7.7-10.7,10-12.8c2.3-2.1,4.5-3,6.7-3c1.1,0,2.1,0.4,2.8,1.2s1.1,1.8,1.1,2.9
		c0,1.5-0.4,3.3-1,5.6l-4.3,14.6c-0.5,1.7-0.7,2.7-0.7,3s0.1,0.6,0.2,0.9s0.4,0.4,0.6,0.4s0.6-0.1,1-0.5c1.2-1,2.6-2.4,4-4.4
		l1.1,0.6c-2.2,3-4.1,5.2-6.1,6.6c-1.3,0.9-2.6,1.3-3.6,1.3c-0.9,0-1.6-0.2-2.1-0.7s-0.7-1.2-0.7-2.1c0-1.1,0.4-3,1.2-5.7l4-14
		c0.5-1.7,0.7-3,0.7-4c0-0.5-0.1-0.9-0.5-1.1c-0.2-0.2-0.6-0.5-1.1-0.5c-0.6,0-1.5,0.2-2.3,0.9c-1.7,1-3.4,2.8-5.3,5.1
		c-1.8,2.4-3.8,5.5-5.8,9.1c-1.1,1.9-1.9,4.1-2.7,6.4l-1.7,5.7h-5.2l6.3-21.6c0.7-2.6,1.1-4.1,1.1-4.7c0-0.5-0.2-1-0.6-1.3
		s-0.9-0.6-1.5-0.6c-0.2,0-0.7,0-1.5,0.1l-1.3,0.1l-0.2-1.2L895.4,1171.9z"/>
	<path class="st0" d="M940.4,1195.7c-2.4,2.9-4.9,5-7.3,6.3c-2.4,1.3-5,2.1-7.8,2.1c-3.3,0-5.8-1-7.7-2.8c-1.8-1.8-2.8-4.3-2.8-7.4
		c0-3.5,1-7,2.9-10.4c1.9-3.4,4.6-6.2,7.9-8.4s6.6-3.2,9.8-3.2c2.6,0,4.4,0.5,5.7,1.6c1.2,1.1,1.8,2.3,1.8,3.9
		c0,1.5-0.5,2.7-1.3,3.6c-0.6,0.9-1.5,1.2-2.3,1.2c-0.7,0-1.3-0.2-1.8-0.7s-0.7-1.1-0.7-1.7c0-0.5,0.1-0.9,0.2-1.2
		c0.1-0.4,0.5-0.9,1.1-1.3c0.5-0.5,0.9-0.9,1-1.1c0.1-0.2,0.1-0.5,0.1-0.7c0-0.5-0.2-0.9-0.6-1.2c-0.7-0.5-1.6-0.7-2.8-0.7
		c-2.3,0-4.5,0.9-6.7,2.4s-4.1,3.9-5.7,6.8c-1.9,3.5-2.8,7-2.8,10.7c0,2.3,0.7,4.3,2.1,5.6c1.3,1.3,3.2,2.1,5.5,2.1
		c1.8,0,3.5-0.5,5.2-1.3c1.7-0.9,3.6-2.6,5.8-4.9L940.4,1195.7z"/>
	<path class="st0" d="M958.6,1171.9l-6.8,24.3c-0.5,1.6-0.7,2.6-0.7,2.9s0.1,0.7,0.4,0.9c0.2,0.2,0.5,0.4,0.7,0.4
		c0.4,0,0.7-0.2,1.2-0.6c1.3-1,2.7-2.6,4-4.4l1.2,0.9c-1.6,2.4-3.4,4.4-5.6,6.1c-1.6,1.2-3,1.8-4.5,1.8c-1,0-1.7-0.2-2.3-0.9
		s-0.9-1.2-0.9-2.2c0-0.9,0.2-2.3,0.9-4.3l4.5-15.6c0.7-2.6,1.1-4.1,1.1-4.7c0-0.5-0.1-0.9-0.5-1.2c-0.4-0.4-0.9-0.5-1.5-0.5
		c-0.5,0-1.6,0.1-3.2,0.4v-1.3L958.6,1171.9z M958.1,1158.2c1,0,1.8,0.4,2.4,1c0.6,0.7,1,1.5,1,2.4s-0.4,1.8-1,2.4
		c-0.7,0.7-1.5,1-2.4,1s-1.8-0.4-2.4-1c-0.7-0.7-1-1.5-1-2.4s0.4-1.7,1-2.4C956.3,1158.5,957.2,1158.2,958.1,1158.2z"/>
	<path class="st0" d="M993,1171.9l-6.8,23.4l-0.7,3.2c0,0.2-0.1,0.5-0.1,0.7c0,0.4,0.1,0.7,0.4,1c0.1,0.2,0.4,0.2,0.7,0.2
		c0.2,0,0.7-0.2,1.2-0.6c0.9-0.6,2.1-2.1,3.6-4.1l1.2,0.9c-1.6,2.4-3.2,4.3-4.9,5.5s-3.3,1.8-4.7,1.8c-1,0-1.7-0.2-2.2-0.7
		c-0.5-0.5-0.7-1.2-0.7-2.2c0-1.1,0.2-2.7,0.7-4.5l0.7-2.7c-3,4-5.8,6.7-8.4,8.3c-1.8,1.1-3.6,1.7-5.3,1.7c-1.7,0-3.2-0.7-4.4-2.1
		s-1.8-3.3-1.8-5.7c0-3.6,1.1-7.5,3.3-11.7s5-7.3,8.4-9.7c2.7-1.9,5.1-2.9,7.5-2.9c1.5,0,2.7,0.4,3.5,1.1c1,0.7,1.6,1.9,2.2,3.6
		l1.2-4L993,1171.9z M980.7,1173.7c-1.5,0-3,0.7-4.7,2.1c-2.4,1.9-4.5,4.9-6.3,8.7c-1.8,3.9-2.8,7.3-2.8,10.4c0,1.6,0.4,2.8,1.2,3.6
		c0.9,0.9,1.7,1.3,2.7,1.3c2.6,0,5.2-1.8,8.1-5.6c4-5,6-10,6-15.2c0-1.9-0.4-3.4-1.1-4.3C983,1174.1,981.9,1173.7,980.7,1173.7z"/>
</g>
</svg>
