<?xml version="1.0" encoding="utf-8"?>
<!-- Generator: Adobe Illustrator 25.4.1, SVG Export Plug-In . SVG Version: 6.00 Build 0)  -->
<svg version="1.1" id="Capa_1" xmlns="http://www.w3.org/2000/svg" xmlns:xlink="http://www.w3.org/1999/xlink" x="0px" y="0px"
	 viewBox="0 0 1242 2208" style="enable-background:new 0 0 1242 2208;" xml:space="preserve">
<style type="text/css">
	.st0{fill:#775F3B;}
	.st1{fill:#62391B;}
	.st2{fill:#A63434;stroke:#A63434;stroke-miterlimit:10;}
	.st3{fill:none;}
	.st4{fill:#805F36;}
</style>
<g id="fondo">
</g>
<g id="Capa_2_00000171000038569402273490000012704646517353608069_">
</g>
<g id="Capa_4">
</g>
<g id="onda_sola_grande">
	<g id="_x35_">
		<g>
			<path class="st0" d="M-15.3,1796.9c0.6,0.7,1.4,1.1,2.3,1.6c8.8-3.5,17.4-7.4,25.9-11.7c0.2-0.6,0.3-1.1,0.3-1.6l-2.5-2.1
				c1.9,0.4,2.5,1.1,2.5,2.1l1.1,0.9c0.6-0.3,1.2-0.6,1.7-0.9c1.6-3,2.5-5.1,7.5-7.6c0.2,1.5,0.9,2.3,2,2.6
				c69.5-37.5,134.4-91.4,216.3-67.5c8.4-4.4-0.7-3.5,9.5-6.4c-107-26.1-180.3,53.3-266.4,88.2c0.4,0.2,0.8,0.7,1.4,1.4
				L-15.3,1796.9z"/>
			<path class="st0" d="M-130.5,1804.6c-2.8,2,5.1,1.7,9.3,2.2c2.4,0.7,4.8,1.3,7.2,1.8c0-0.2,0.1-0.4,0.1-0.6
				C-119.4,1807.2-124.9,1806.1-130.5,1804.6z"/>
			<path class="st0" d="M-64.2,1811.1c0.1,0.2,0.1,0.4,0.2,0.6c16.4-1.7,32.3-6,47.7-11.8c-0.7-0.3-1.5-0.6-2.3-0.8
				c1.3-0.8,1.6-2.8,2.1-3.9c-6.5,2.6-13,4.9-19.6,6.9c0.2,1.2-1.1,1-2.5,0.7c-5.6,1.6-11.3,3-17,4.1l2.1,2.9l-4.3-2.4
				c-1.2,0.2-2.4,0.4-3.6,0.6c0.6,0.7,1.2,1.4,1.7,2C-60.6,1810.5-62.9,1810.5-64.2,1811.1z"/>
			<path class="st0" d="M-64.2,1811.1c-0.4-0.9-0.9-1.7-1.6-2.5c-6.8,0.9-13.7,1.4-20.8,1.5c-0.2,0.2-0.5,0.4-0.7,0.6l2.9,1.8
				c6.6,0.2,13,0,19.4-0.7C-64.9,1811.4-64.6,1811.2-64.2,1811.1z"/>
			<path class="st0" d="M-120,1856.2c2.3,0.6,4.7,1.1,7,1.6C-108.2,1854.7-111,1854.6-120,1856.2z"/>
			<path class="st0" d="M122.9,1781.4c41.4-19.5,85.6-31.4,137.6-18.8c-5.3-1.5,3.4-3.7-6.6-3.7c-41.7-12.5-79.3-4.1-115.8,12.3
				l0.4,1.1l-2.5,1.5l0.2-1.8c-5.2,2.4-10.3,4.9-15.5,7.5C121.9,1779.9,122.7,1780.3,122.9,1781.4z"/>
			<path class="st0" d="M55.3,1818.5c4.2-2.4,8.4-4.9,12.6-7.3c-0.3-0.5-0.6-0.9-0.9-1.3c-4.3,2.5-8.5,4.9-12.8,7.4
				C54.6,1817.5,55,1817.9,55.3,1818.5z"/>
			<path class="st0" d="M120,1782.7c-0.6-0.3-0.9-1.2-1-2.3c-16.1,8.3-32.1,17.8-48.2,27.2c-0.2,0.8-0.3,1.5-0.5,2.1
				C86.7,1800.3,103.2,1790.9,120,1782.7z"/>
			<path class="st0" d="M-13.3,1851.6c1.2-0.8,3.3-2.4,5.4-3.1c-0.2-0.3-0.3-0.5-0.5-0.8c-3.6,1.3-7.2,2.6-10.8,3.8
				c1.3,0.4,2.5,1.4,3.6,2.2c1.3-0.5,2.7-1,4-1.5C-11.8,1851.9-12.3,1851.7-13.3,1851.6z"/>
			<path class="st0" d="M-113,1857.8c-1.1,0.7-2.6,1.6-4.5,2.6c16.4,4.3,32,5.7,47.1,5c1.4-1.4,2.7-2.9,3.8-4.5
				C-81.4,1861.9-96.9,1861.1-113,1857.8z"/>
			<path class="st0" d="M42.9,1823.6c0,0.4,0.3,0.8,1.2,1.3c1.8-1,3.7-2.1,5.5-3.1c-0.4-0.4-0.8-0.8-1.2-1.2
				C46.5,1821.6,44.7,1822.6,42.9,1823.6z"/>
			<path class="st0" d="M-65.2,1860.8c-0.4,1.3-0.8,2.5-1.5,3.4c0.6,0.3,1.2,0.6,1.7,0.9c3.1-0.3,6.2-0.6,9.3-1
				c0.8-1.3,1.4-2.9,2-4.5C-57.5,1860.1-61.3,1860.5-65.2,1860.8z"/>
			<path class="st0" d="M-3.1,1845.7c-0.9,0.3-1.7,0.7-2.6,1c0.2,0.5,0.5,1.1,0.8,1.6c0.5,0.1,0.9,0.3,1.3,0.6
				c0.7-0.3,1.4-0.6,2-0.9C-1.8,1847.2-2.3,1846.3-3.1,1845.7z"/>
			<path class="st0" d="M-22.1,1852.4c-0.8,0.3-1.6,0.5-2.4,0.8c-0.3,1.2-0.5,2.4-0.7,3.6c0.1,0.1,0.3,0.1,0.4,0.1
				c1.6-0.5,3.1-1,4.7-1.5c0.4-0.3,0.7-0.7,0.9-1.2L-22.1,1852.4z"/>
			<path class="st0" d="M3,1844.1c-1.8,0.7-2.5,1.9-2.6,3.2c1-0.4,2-0.9,3-1.3c0.4-0.5,0.7-1,1-1.6C4,1844.2,3.5,1844.1,3,1844.1z"
				/>
			<path class="st0" d="M114.3,1844.1l0.8,0.3c15.6-8.8,31.1-16.9,47-23.2c0-0.1-0.1-0.2-0.1-0.2c0.1,0.1,0.2,0.1,0.2,0.2
				c29-11.5,59-16.9,91.9-9.7c-0.1-0.9,0.4-2.1,2-3.5c0.3,0.9,0.3,4.1,2.3,4.1c0.9-1.5,0.2-3.3-0.2-4.9
				c-37.6-7.4-71.2-0.1-103.4,13.4c-0.8,1.5-2,2.4-4.3,1.8c-0.2,0.1-0.5,0.2-0.7,0.3c0,0.1,0.1,0.2,0.1,0.3l-0.1-0.3
				c-12.1,5.3-23.9,11.5-35.7,18.1c0.1,0,0.1,0,0.2,0C114.8,1842.7,114.8,1842.7,114.3,1844.1z"/>
			<path class="st0" d="M72.8,1869c0-0.2-0.1-0.4-0.1-0.6c-0.2-1.1-0.4-2.3-0.6-3.5c-15.2,8.7-30.5,17.2-46.2,24.5l2.3,3.3
				C43.5,1885.7,58.3,1877.5,72.8,1869z"/>
			<path class="st0" d="M-5.4,1901.9c-2.1,0.7-4.1,1.3-6.2,1.9c0.8,0.5,1,1.2-0.5,2.7c-4.7-1-7.7,1.1-9.8,3.7
				c7.3-1.7,14.5-3.7,21.6-6.1c-1.5,0.4-3.3,0.3-5.8-0.2C-5.8,1903.3-5.6,1902.6-5.4,1901.9z"/>
			<path class="st0" d="M81.4,1864c-0.3-1.2-0.5-2.4,0.9-3.2c0,0.9,0.2,1.7,0.3,2.5c10.2-6,20.4-12.1,30.5-17.8l-2.4-0.2
				c0.5-1.3,0.8-2.4,1.2-3.2c-12.2,6.8-24.3,14-36.6,21.1c0.8,1.1,1.7,2.2,2.7,2.9C79.1,1865.3,80.3,1864.7,81.4,1864z"/>
			<path class="st0" d="M8.5,1901.1c3.8-1.4,7.5-3,11.3-4.6c-1.3-0.2-2.3-1-2.6-3.1c-3.7,1.6-7.4,3.1-11.1,4.5
				c-0.1,0.2-0.3,0.4-0.4,0.7L8.5,1901.1z"/>
			<path class="st0" d="M23.5,1890.6c-0.6,0.3-1.2,0.5-1.8,0.8C22.4,1891.4,23.1,1891.2,23.5,1890.6z"/>
			<path class="st0" d="M0.9,1903.8c1.5-0.5,3-1,4.5-1.6c0.2-1.1,0.4-2.3,0-3.4C4,1901.1,2.9,1902.9,0.9,1903.8z"/>
			<path class="st0" d="M259.4,1809.3l-0.9,3.3c2.4,0.6,4.9,1.3,7.4,2c3.5-1.8-1.8-2.4,3.8-4.8c-1.9-0.5-3.8-1-5.7-1.4
				c-0.1,0.5-0.2,1-0.4,1.5C262.2,1811.8,261.7,1810.1,259.4,1809.3z"/>
			<path class="st0" d="M7.9,1956.3c-0.5-0.9-0.9-1.8-1.4-2.7c-3.8,1.2-7.7,2.2-11.5,3.2l-2,3.8C-1.9,1959.4,3,1957.9,7.9,1956.3z"
				/>
			<path class="st0" d="M161,1877.6c36.9-16.5,76.7-25.9,123.5-16.4c-1.1-0.4-1.6-1,0.2-2c-44-12.7-82.9-3.4-120.3,13.9
				C163.6,1874.5,162.3,1876,161,1877.6z"/>
			<path class="st0" d="M12.3,1954.8c51-18,96-53.2,146-76c-0.3-0.8-0.6-1.6-0.9-2.5c-41.2,20.1-80.8,48.7-123.9,67.3
				c-0.9,0.9-2,1.3-3.2,1.4c-5.3,2.2-10.7,4.3-16.2,6.2c0,0.1,0,0.3,0,0.4C13,1952.1,12.5,1953.4,12.3,1954.8z"/>
			<path class="st0" d="M-26.6,1964.5c0.5-0.1,1-0.2,1.5-0.2c2.5-1.7,5.8-2.7,8-4.9c-4.6,0.8-9.3,1.4-14.1,1.9
				C-29.8,1962.7-28.2,1963.8-26.6,1964.5z"/>
			<path class="st0" d="M286.5,1861.6c0.7,0.1,1.3,0.3,2,0.4C288.7,1861.8,287.7,1861.8,286.5,1861.6z"/>
			<path class="st0" d="M284.4,1861.2c0.6,0.2,1.4,0.3,2.1,0.4C285.8,1861.4,285.1,1861.3,284.4,1861.2z"/>
			<path class="st0" d="M290.9,1911.7c1.3,0.6,7.1,1.7,14.5,1.2c-8.8-2-17.3-3.3-25.7-4.1C283.4,1909.6,287.1,1910.5,290.9,1911.7z"
				/>
			<path class="st0" d="M-52.7,2014.1c0.6-1.2,1.2-2,2-2.4c-1.6-0.2-3.2-0.4-4.8-0.7C-54.9,2012.7-54.2,2014.2-52.7,2014.1z"/>
			<path class="st0" d="M206,1912.8c-29.6,8.9-58.2,25.1-87,41.9c-0.8,1.9-2.9,3.8-2.6,5.2c28.2-16.3,56.7-32.4,87.5-42.2
				C205,1916.3,206.2,1914.7,206,1912.8z"/>
			<path class="st0" d="M206.1,1912.8l1.2,3.8c22.6-6.8,46.5-10.3,72.4-7.9C254.2,1903.1,229.9,1905.6,206.1,1912.8z"/>
			<path class="st0" d="M-74.6,2007.8c-4.7,1.9,3,0.6-2.1,4.3c1.4,0.3,2.7,0.6,4.1,0.9C-73,2010.7-73.6,2008.7-74.6,2007.8z"/>
			<path class="st0" d="M-15,2011.9c1.6,1.1,7.1-2,8.7,2.2c44.1-7.8,83.1-31.2,122.6-54.1l-2.4-2.3C72.4,1982,30.5,2006.7-15,2011.9
				z"/>
			<path class="st0" d="M-38.8,2013.8c2.2-0.6,4.4-1.8,3.7,2.4c0.2,0.3,0.5,0.4,0.7,0.6c0.7,0,1.3,0,2,0c0.7-0.8,1.1-2.4,1.5-3.9
				c-3.7,0-7.4-0.1-11.1-0.3C-41.5,2014.2-40.2,2014.1-38.8,2013.8z"/>
			<path class="st0" d="M-63.7,2011.8c-1.8-2.1-2.7,0-3.5,2.2c1.6,0.3,3.2,0.6,4.8,0.8C-62.7,2013.6-63.1,2012.6-63.7,2011.8z"/>
		</g>
	</g>
</g>
<g>
	<g>
		<g>
			<path class="st1" d="M631.5,449.3c-3.4,0-6.5-1.9-8.2-4.9l-54.7-105.8c-9.9-21.7-8.4-46.8,3.9-67.1c12.1-19.9,32.2-32,55.1-33.2
				l0,0c2.5-0.1,5.1-0.1,7.7,0c22.9,1.2,43,13.2,55.1,33.2c12.4,20.4,13.9,45.4,4,66.9l-54.8,106C638,447.4,634.9,449.3,631.5,449.3
				L631.5,449.3z M628,245.6c-20.5,1-38.4,11.9-49.2,29.7c-11.1,18.3-12.5,40.8-3.6,60.2L629.8,441c0.5,0.9,1.4,1,1.7,1
				c0.4,0,1.3-0.1,1.8-1.1l54.6-105.7c8.8-19.2,7.4-41.7-3.7-60c-10.8-17.8-28.8-28.6-49.2-29.7C632.7,245.4,630.3,245.4,628,245.6
				L628,245.6z"/>
		</g>
		<path class="st2" d="M650.9,287c-7-1.6-14.6,1.5-19.4,7.9c-4.8-6.4-12.4-9.6-19.4-7.9c-7.7,1.8-12.8,8.5-13,17.1
			c-0.4,24.2,31.7,44,32,44.1c0.1,0,0.2,0.1,0.4,0.1c0.1,0,0.2,0,0.4-0.1c0.3-0.1,32.4-20,32-44.1
			C663.7,295.5,658.6,288.8,650.9,287z"/>
	</g>
</g>
<g>
	<g>
		<g>
			<path class="st1" d="M331,1357.5c3.8-21.6,26.6-32.1,45.2-34.3c1.7-0.3,3.5-0.4,5.5-0.4c10.6-12.9,24.7-17.2,31.1-18.2
				c16.4-2.5,25.1,6.9,16.1,13.3c-6.4,4.5-26.5,5-41.7,5.9c-8.4,10.5-11.9,21.4-10.5,28.6c2,9.7,8.4,12.3,24.5,5.9
				c12.3-4.9,24.1-22.4,28.2-29.4c0.6-1.3,1-2,1-2c1.8-1.1,3.4,0.4,2.8,6.3c0,0-9.7,26.2-19.9,47.8c5.3,0.8,10.6,1.8,19.1,2.5
				c16.8,1.4,25.5-1.3,35.4-5c-9.8,4.5-20.3,9.2-53.1,3.6c-0.6-0.1-1.3-0.3-2-0.4c-4.3,9.2-9,17.5-12.9,22.6
				c-9.1,11.3-20.3,14.1-28.7,13.4c-14.4-1.1-14.8-14-10.6-21c6.2-10.6,22.3-16.5,37-16.9c4.1-0.1,7.6,0,10.6,0.4
				c1.5-3.5,2.8-7.1,4.3-10.9c5.2-13.4,9.8-24,12.9-31c-5.9,9.1-15.5,18.9-27.3,22.8c-27.5,9.1-30-15.5-21-31.2
				c1.1-2,2.4-3.8,3.8-5.6C354.3,1326.2,337.3,1338.1,331,1357.5z M369.8,1389.1c-14.1,9.1-13.2,25.9,0.6,27.3
				c17.8,1.7,27.7-13.6,37-35.3C390.4,1379.6,378.8,1383.5,369.8,1389.1z M392.5,1317.8c-1.5,1.4-2.8,2.9-4.2,4.5
				c13-0.8,28.9-1.4,34.9-3.4c13.9-4.3,6.3-12.9-2-13.2C409.6,1305.2,399.8,1310.7,392.5,1317.8z"/>
			<path class="st1" d="M443.4,1343.7c4.5-0.1,8.3,2.7,8.3,9.9c0,2.1-0.4,5.2-1.3,8c1.4-0.6,2.9-1.5,4.5-2.8c6-4.9,7.6-9.9,10.6-9.5
				c-3.4,2.5-6.2,8.5-12,12c-1.1,0.7-2.4,1.1-3.6,1.7c-2.2,6.7-6.6,13.7-11.6,13.4c-7.1-0.3-7.7-9.7-4.3-16.2
				c0.4-0.8,0.8-1.7,1.1-2.4C431,1350,437.8,1343.9,443.4,1343.7z M438.6,1361.7c-1.1,1.8-1.8,3.6-2.4,5.5c-1.3,5,1.1,10.5,5.6,6.6
				c2.1-2,4.5-5.9,6.3-10.5C444.9,1364.1,441.4,1363.6,438.6,1361.7z M441.8,1349.5c2.8-0.4,3.1,2.2,2.8,3.8c0,0.1-2.9,3.2-5.3,7.4
				c2.4,1.8,5.7,2.5,9.4,1.7c2.1-6,2.8-12.9-0.8-15.7c-4.8-4.1-10.6,0.6-11.5,4.1c-0.4,2-0.4,3.8,0,5.5
				C438.9,1351.9,441,1349.5,441.8,1349.5z"/>
			<path class="st1" d="M465.6,1343.7c4.5-0.1,8.3,2.7,8.3,9.9c0,2.1-0.4,5.2-1.3,8c1.4-0.6,2.9-1.5,4.5-2.8c6-4.9,7.6-9.9,10.6-9.5
				c-3.4,2.5-6.2,8.5-12,12c-1.1,0.7-2.4,1.1-3.6,1.7c-2.2,6.7-6.6,13.7-11.6,13.4c-7.1-0.3-7.7-9.7-4.3-16.2
				c0.4-0.8,0.8-1.7,1.1-2.4C453.3,1350,460,1343.9,465.6,1343.7z M460.9,1361.7c-1.1,1.8-1.8,3.6-2.4,5.5c-1.3,5,1.1,10.5,5.6,6.6
				c2.1-2,4.5-5.9,6.3-10.5C467,1364.1,463.5,1363.6,460.9,1361.7z M464.1,1349.5c2.8-0.4,3.1,2.2,2.8,3.8c0,0.1-2.9,3.2-5.3,7.4
				c2.4,1.8,5.7,2.5,9.4,1.7c2.1-6,2.8-12.9-0.8-15.7c-4.8-4.1-10.6,0.6-11.5,4.1c-0.4,2-0.4,3.8,0,5.5
				C461.2,1351.9,463.3,1349.5,464.1,1349.5z"/>
			<path class="st1" d="M489.3,1367.7c3.9-1.1,7.1-1,9.5,0.3c9.8-6.2,15.4-10.5,19.9-18.6c-1,6.6-8.8,13-18.6,19.3
				c4.3,2.9,5.3,9.5,4.3,14.7c-2,9.7-7.7,17.8-18.2,24.5c-8,5-18.6,6.2-22.8,3.4c-10.6-7.4,4.5-23.8,16-31.1
				c7-4.5,12.9-8.3,17.7-11.2c-1.8-0.7-3.9-1-6.9-0.4c-4.8,1.1-8.1,2.5-8.1,2.5S485,1368.8,489.3,1367.7z M480.2,1381.3
				c-24.5,16.2-24.1,36.1-4.1,27c22.7-10.6,25.8-26.5,24.8-33.3c-0.4-1.8-1.1-3.8-2.8-5C492.5,1373.6,486.2,1377.2,480.2,1381.3z
				 M499.1,1347.9c0.4,0.4,1.1,0.8,1.4,1.7c1.8,5.2-4.3,13.2-11.6,17.1c-6.6,3.6-11.1,2.1-12-3.5c-1.7-9.1,9.1-16.2,13.9-17.5
				c2.1-0.6,3.8-0.7,5.2-0.7C499.1,1345.4,500,1347.1,499.1,1347.9z M485.1,1354.5c-5.2,5.6-6.4,12.5-2.2,12.2c4.3-0.4,9-3.5,13-8.5
				c3.2-4.1,3.1-8.3,2.1-9.9C496.2,1348.2,490.4,1349.3,485.1,1354.5z"/>
			<path class="st1" d="M512.7,1377.9c-0.4,2.9,0.1,5.2,2.8,1.5c8-11.2,17.7-26.5,25.9-30c-5.6,5.2-12.9,13.4-18.6,22
				c-8,11.8-9.1,12.5-11.3,11.3c-4.2-2.1-2.1-14.3,0.4-22.6c3.1-9.9,11.2-29.7,20.2-42.9c4.3-6.3,8.3-11.3,12.2-13.9
				c3.1-2.1,6.9-2.9,9.1,0.1c4.5,6.7-20.7,35.6-28.3,42.4c-1.4,1.3-2.4,2.2-3.2,2.8C515,1363.9,513.3,1372.5,512.7,1377.9z
				 M525.9,1339.1c-1.1,2.5-2.4,5-3.4,7.3c3.9-4.1,11.3-11.9,15.5-17.4c9.9-12.6,12.9-18.9,13.6-21.7c1.8-7.1-5.5,0.4-7.6,2.5
				C540.9,1313.6,534.3,1321.9,525.9,1339.1z"/>
			<path class="st1" d="M536.4,1359.7c-1.7,8,2.7,10.9,7.1,9.1c7.6-2.9,14.7-19.5,20-19.3c-5.2,4.8-5.6,6.3-9.2,10.9
				c-4.6,5.9-9.7,11.3-15.4,10.6c-7.7-0.8-8.5-10.5-6.6-14.8c2-4.6,6-9.9,12.6-10.5c5.2-0.4,7.4,4.6,2.2,9.1
				c-3.1,2.5-7.6,3.8-10.6,4.3C536.5,1359,536.4,1359.4,536.4,1359.7z M540.7,1356.6c8.3-2.8,9.8-9.1,5.3-8c0,0-6.7,0.8-9.2,9.1
				C537.9,1357.5,539.3,1357.2,540.7,1356.6z"/>
			<path class="st1" d="M603.1,1353.8c0.1,2.1-2.4,7-2.8,8c0.4,0,1.1-1.4,3.4-4.2c2.8-3.5,5.9-5.9,8.1-5.6c3.2,1.1,3.5,3.8,2.1,6.9
				c-1.3,3.1-2.8,9.1,0.4,5.2c2.4-2.9,12.9-16.7,17.1-18.6c3.5-1.7,7.6,1,5.2,7.6c-0.7,2.5-3.1,6.7-7,12.9
				c-5.9,8.8-5.9,17.7,0.4,12.5c9.9-8,14-29.3,23.4-28.9c-7.7,3.5-10.6,13.4-14,19.1c-6.3,10.9-11.6,14.4-15.4,11.8
				c-3.8-2.7-4.8-7.3-0.3-14.7c6.3-10.2,11.5-22.6,6.7-18.6c-6.6,5.6-14.1,16.5-16.2,18.6c-1.8,1.8-3.6,1.8-5,0.4
				c-1.1-1.1-1.8-3.8,0.7-9.9c2.2-5.5-0.7-2.8-3.1-0.7c-4.3,3.9-10.1,15.3-11.5,17.4c-2.2,3.5-5.3-1-4.1-4.5
				c0.3-0.6,7.6-16.7,6.6-18.5C599.3,1348.9,602.9,1348.8,603.1,1353.8z"/>
			<path class="st1" d="M665.4,1373.6c5.9-8.5,13-23.3,17.9-24.4c-5.2,5.9-6.4,8.5-9.4,13.2c-5.6,9.1-8.7,15.3-12,14.7
				c-3.6-0.6-7-5.3-3.2-15.7c0.1-0.4,0.4-0.8,0.4-1.1c-4.2,5.2-8.3,9.9-12.2,5.6c-3.9-4.5-0.1-12.6,3.5-16c2.7-2.5,7.7-4.5,13-3.2
				c5.9,1.5,1.4,1.5,1.4,1.5s-7.6-1.7-13,7c-3.9,6.4-1.8,12.3,1.4,9.2c1.8-1.7,5.5-6.4,8.5-10.2c1.5-2.5,3.1-5.3,4.6-5.3
				c1.5-0.1,5.2,0.4,2,4.6C659.2,1365.6,659.1,1382.7,665.4,1373.6z"/>
			<path class="st1" d="M641.2,1413.8c-1-13.4,23.8-35.6,27.9-39.2c1.5-1.4,2.8-2.5,3.8-3.1c1.8-5.9,2.9-10.2,3.5-11.5
				c3.2-9.5,5.2-10.8,6.6-10.4c1.8,0.8,1.7,2.8,0.6,5.9c3.2-3.9,7.6-8,13.3-8c7-0.3,9.1,6.6,6.7,14.6c5.3-1.8,10.6-4.9,15.4-12.3
				c-2.5,8.1-9,11.2-15.8,13.4c-0.8,2.4-2.1,5-3.8,7.4c-7.6,10.6-17.1,9.2-18.2,5.9c-1-2.9,1-5.6,4.1-7.7c4.3-2.8,9-3.8,13.4-5.2
				c2.4-6.3,2.9-13.9-1.5-14.3c-5.9-0.6-11.1,4.6-14.7,9.5c-1.7,4.2-4.1,9.8-5.9,16.2c-3.5,12-8.5,26.5-14.7,36
				C653.5,1423.5,641.9,1423.2,641.2,1413.8z M666.1,1379.5c-8.5,8-14.3,14.6-19.3,23.1c-5.5,9.2-4.5,16.9,0.4,16.4
				c10.6-1,20-28.4,25.2-45.7C671,1374.6,669,1376.5,666.1,1379.5z M686,1369.2c-3.6,2.4-4.5,5.3-3.6,6.7c2.1,3.5,8.7-0.7,13-7
				c1-1.1,1.8-2.7,2.4-4.3C693.8,1366,689.6,1367.1,686,1369.2z"/>
			<path class="st1" d="M721,1350.3c-0.4,1.4-0.4,3.5,1,5.9c1.8,3.1,3.8,5.9,4.5,8.3c10.2-5,12.7-8,17.8-14.7
				c-2.2,6.9-9.4,12-17.7,15.8c1.5,4.8,1.3,8.7-1.8,13.4c-5.2,8.3-16.2,10.9-19.9,6.6c-4.9-6,2.8-12.9,14.1-17.8
				c1.7-0.7,2.9-1.4,4.3-2c-0.4-2-1.1-3.8-2.4-5.9c-4.9-7.7-4.1-8.5-3.9-10.4c0.3-3.2,4.1-6.6,4.1-6.6c2.2-1.7,2.8,1.7,2.4,3.5
				C722.6,1347.2,721.4,1348.8,721,1350.3z M722.4,1367c-9.5,4.1-17.8,9.5-17.1,14.7c0.4,3.5,3.5,4.6,7.4,2.5
				c3.8-2.1,12.2-9,11.3-17.8C723.4,1366.9,722.8,1366.9,722.4,1367z"/>
			<path class="st1" d="M774.7,1377.9c-0.4,2.9,0.1,5.2,2.8,1.5c8-11.2,17.7-26.5,25.9-30c-5.6,5.2-12.9,13.4-18.6,22
				c-8,11.8-9.1,12.5-11.3,11.3c-4.2-2.1-2.1-14.3,0.4-22.6c3.1-9.9,11.2-29.7,20.2-42.9c4.3-6.3,8.3-11.3,12.2-13.9
				c3.1-2.1,6.9-2.9,9.1,0.1c4.5,6.7-20.7,35.6-28.3,42.4c-1.4,1.3-2.4,2.2-3.2,2.8C777.2,1363.9,775.4,1372.5,774.7,1377.9z
				 M788.1,1339.1c-1.1,2.5-2.4,5-3.4,7.3c3.9-4.1,11.3-11.9,15.5-17.4c9.9-12.6,12.9-18.9,13.6-21.7c1.8-7.1-5.5,0.4-7.6,2.5
				C803,1313.6,796.5,1321.9,788.1,1339.1z"/>
			<path class="st1" d="M810.2,1361.4c-4.6,6.2-8.4,10.1-12.3,9c-6.3-2-1-17.8,3.5-20.9c2-1,3.1,0.1,2.8,1.7
				c-0.4,2.5-3.1,6.3-4.3,10.8c-0.8,3.4-1.8,7.3,0.7,6.9c3.1-0.4,9.1-9.2,13-14.3c3.4-4.2,4.3-5.3,6.6-5.3
				C817,1351,814.4,1355.8,810.2,1361.4z M805.2,1345.3c-1.1-0.4-1.3-1.1-0.4-2.8c1-2,0.4-2.4,2-3.2c1.1-0.6,4.8-0.3,3.5,2.4
				C809.1,1344.2,806.6,1345.6,805.2,1345.3z"/>
			<path class="st1" d="M823.5,1352.7c0.1,3.4-1,5-2.8,9c4.3-6,14.1-16,21-17.8c3.8-1,5.6,2.5,5.2,5.2c-0.4,3.9-11.9,19.5-13.3,25.2
				c-2,8.5,3.2,5.7,4.9,4.5c4.9-3.6,14.1-20.2,18.2-25.1c5.2-5.9,7-3.9,7-3.9c-8.1,2-17.8,28-26.9,31.5c-2.7,1.1-6.7,0.4-8-3.8
				c-2.4-8.5,13.2-28.4,13.7-31.4c0.4-3.4-9.4,2.7-16.2,10.6c-4.6,5.3-7.1,9.5-9.2,12.7c-0.4,0.7-2.8,0.7-3.8-1
				c-0.4-0.7-1.7-2.4,2.1-10.1c4.2-8.5,2.4-8.3,2.4-8.3C818.9,1348.6,823.5,1349.5,823.5,1352.7z"/>
			<path class="st1" d="M901,1306.2c-1,12.2-27.3,37.1-36,44c-2.1,3.8-2.4,5.9-3.9,10.1c1.5-2.8,10.9-14.3,18.5-12.9
				c7,1.4,4.3,9.2-1.1,12.3c-3.8,2.1-10.8,4.6-11.1,5.5c7.7,3.4,1.8,12.6,5.2,16.2c5.9,3.8,15.4-25.6,27.3-32.1
				c-1.3,1.1-2.4,3.1-4.2,5.2c-8.5,9.5-12.9,21.4-17.8,26.5c-2.4,2.4-5.2,2.1-6.4,1.3c-8-4.5-0.6-15.1-5.9-16.2
				c-1.1-0.3-2.1-2.1-0.8-3.5c2-2.1,8.8-4.1,13.4-7.6c7.7-5.5,1.7-9.2-5.9-3.9c-9.7,6.7-11.3,12.9-14.6,22.6c-4.3,0-4.2-3.6-3.5-7.6
				c0.3-1,9.9-30.5,19.3-44.5c9.1-14.7,17.2-18.9,19.1-19.6C897.5,1300.3,901.3,1302.7,901,1306.2z M894.3,1305.6
				c-12.3,8-23.4,29.1-28.7,42.2c13.2-10.9,32.5-32.9,33.6-40.2C899.9,1304.4,897.4,1303.7,894.3,1305.6z"/>
		</g>
	</g>
</g>
<g>
	<a xlink:href="https://goo.gl/maps/z1pBCEFg8khhKcLC6"  pointer-events="all" target="_blank">
		<rect x="527.1" y="1437.2" class="st3" width="203" height="252.1"/>
		<path class="st1" d="M713.9,1479.2c-12.7-28.9-51.3-36.1-73.7-14c-1,0.8-1.8,1.3-3.1,1.3c-22.4,0-44.8,0-67.2,0
			c-12.2,0-21.6,9.4-21.6,21.6c0,37.5,0,74.8,0,112.3c0,1.4,0.1,3.1,0.4,4.5c2.4,10.5,10.6,17.1,21.4,17.1c18.6,0,37.1,0,55.8,0
			s37.1,0,55.8,0c2.4,0,5-0.4,7.3-1.1c9.1-3.1,14.7-10.9,14.7-20.6c0-21.6,0-43.1,0-64.6c0-1,0.4-2,0.8-2.8
			c2.2-3.5,4.5-6.9,6.6-10.6C719,1508.2,720.5,1493.9,713.9,1479.2z M643.4,1534.1c10.5,14.3,19.5,29.7,23.7,47.6
			c-12-12-24-24-35.7-35.6C635.3,1542.1,639.3,1538.2,643.4,1534.1z M559.6,1606.3c-0.4,0.4-0.7,0.8-1.4,1.3
			c-0.1-0.8-0.1-1.1-0.1-1.7c0-40.5,0-81,0-121.7c0-5,3.2-8.3,8.1-8.3c22,0,44.3,0,66.3,0c0.4,0,0.7,0,0.8,0
			c-1,3.9-2.2,7.7-2.8,11.6c-2.1,12,0.6,23.5,6.3,34c0.6,1,0.8,2.1,1.7,2.8c1.3,1.5,0.7,2.5-0.6,3.9
			C611.6,1554.3,585.7,1580.3,559.6,1606.3z M565.2,1613.4c20-20,40.2-40.2,60.4-60.2c19.8,19.8,39.9,39.9,60.2,60.2
			C645.4,1613.4,605,1613.4,565.2,1613.4z M694.5,1602.6c0,1.7-0.6,3.4-1,4.9c-8.3-8.3-16.2-16.2-24.2-24.2c0.8-0.1,1.7-0.1,2.7-0.3
			c6.2-1.1,9.2-5.2,10.5-10.9c2.2-9.8,5.7-19.2,10.4-28.2c0.3-0.7,0.7-1.4,1.3-2.2c0.1,0.8,0.3,1.3,0.3,1.7
			C694.7,1563,694.7,1582.7,694.5,1602.6z M702.2,1512.3c-3.1,5.6-6.6,10.8-10.1,16.1c-7.7,11.2-14.3,23-19.3,35.6
			c-0.1,0.4-0.4,0.7-0.6,1.3c-1.7-3.8-3.2-7.3-4.8-10.8c-5.2-11.3-12-21.6-19.1-31.8c-3.8-5.5-7.1-11.2-9.1-17.7
			c-5.7-19.1,7-39.9,26.8-43.3c18.2-3.2,34.9,7.4,39.6,25.4C707.8,1495.7,706.6,1504.3,702.2,1512.3z"/>
		<path class="st1" d="M605.7,1493.6c-1.7,1.7-3.2,3.2-5,4.9c-7.4-4.9-13.2-5.2-18.5-1c-4.9,3.8-6.7,10.1-4.6,16
			c2,5.6,7.6,9.4,13.4,9.2c4.9-0.1,10.5-3.2,11.5-7c-3.9,0-7.7,0-11.6,0c0-2.4,0-4.6,0-7c7,0,13.9,0,20.9,0
			c1.8,5.9-4.8,16.1-12.5,19.3c-9.9,4.3-21.7,0.4-27-9.1s-2.5-21.4,6.4-27.7C587.9,1485.1,599.7,1487.3,605.7,1493.6z"/>
		<path class="st1" d="M661.6,1498c0-5.9,4.8-10.6,10.6-10.5c5.9,0,10.5,4.8,10.5,10.6s-4.8,10.6-10.6,10.6
			C666.2,1508.8,661.5,1504,661.6,1498z"/>
	</a>
	<g>
		<path class="st4" d="M593.1,1675.1v0.8c-2.2-1.1-4.1-2.4-5.5-3.9c-2.1-2.1-3.8-4.6-4.9-7.6c-1.1-3-1.7-5.9-1.7-9
			c0-4.5,1.1-8.7,3.4-12.5c2.2-3.8,5.2-6.4,8.7-8v1c-1.8,1-3.2,2.4-4.3,4.1s-2.1,3.9-2.5,6.6c-0.6,2.7-0.8,5.3-0.8,8.3
			c0,3.2,0.3,6,0.7,8.5c0.4,2.1,0.8,3.6,1.4,4.9c0.4,1.3,1.3,2.4,2.2,3.5C590.4,1673.1,591.6,1674.1,593.1,1675.1z"/>
		<path class="st4" d="M613.1,1658.8c-0.4,2.7-1.5,4.8-3.2,6c-1.5,1.4-3.2,2.2-5.2,2.2c-2.4,0-4.2-1-6-2.9c-1.7-2-2.5-4.5-2.5-7.8
			c0-3.2,1-5.7,2.8-7.7s4.2-2.9,6.9-2.9c2,0,3.6,0.4,4.9,1.5c1.3,1.1,2,2.2,2,3.2c0,0.6-0.1,1-0.4,1.4c-0.4,0.4-0.8,0.4-1.4,0.4
			c-0.8,0-1.4-0.3-2-0.8c-0.3-0.4-0.4-0.8-0.4-1.7c-0.1-0.8-0.4-1.5-0.8-2c-0.4-0.5-1.3-0.6-2.1-0.6c-1.4,0-2.7,0.4-3.5,1.5
			c-1.3,1.4-1.8,3.2-1.8,5.7c0,2.4,0.6,4.5,1.7,6.3c1.3,1.8,2.8,2.8,4.8,2.8c1.4,0,2.7-0.4,3.9-1.4c0.8-0.7,1.5-2,2.4-3.6
			L613.1,1658.8z"/>
		<path class="st4" d="M623.5,1635.2v26.6c0,1.3,0.1,2.1,0.3,2.5c0.1,0.4,0.4,0.7,0.8,1s1.1,0.4,2.1,0.4v0.7h-9.8v-0.7
			c1,0,1.5-0.1,2-0.3c0.4-0.3,0.6-0.4,0.7-1c0.1-0.6,0.3-1.4,0.3-2.5v-18.2c0-2.4,0-3.6-0.1-4.1c-0.1-0.4-0.3-0.8-0.4-1.1
			c-0.3-0.3-0.4-0.3-0.8-0.3c-0.4,0-0.8,0.1-1.4,0.4l-0.4-0.7l6-2.4h1.1L623.5,1635.2L623.5,1635.2z"/>
		<path class="st4" d="M636.5,1645.8v16.2c0,1.3,0.1,2.1,0.3,2.5c0.1,0.4,0.4,0.7,0.8,1c0.4,0.3,1,0.4,2,0.4v0.7h-9.8v-0.7
			c1,0,1.5-0.1,2-0.3c0.4-0.3,0.6-0.4,0.7-1c0.3-0.4,0.3-1.4,0.3-2.5v-7.8c0-2.2-0.1-3.5-0.3-4.2c-0.1-0.4-0.3-0.8-0.4-1
			c-0.3-0.1-0.4-0.3-0.8-0.3c-0.4,0-0.8,0.1-1.4,0.4l-0.4-0.7l6-2.4h1.1L636.5,1645.8L636.5,1645.8z M634.6,1635.2
			c0.6,0,1.1,0.3,1.5,0.6c0.4,0.4,0.6,1,0.6,1.5c0,0.6-0.3,1.1-0.6,1.5c-0.4,0.4-1,0.6-1.5,0.6c-0.6,0-1.1-0.3-1.5-0.6
			c-0.4-0.4-0.6-1-0.6-1.5c0-0.6,0.3-1.1,0.6-1.5C633.4,1635.4,634.1,1635.2,634.6,1635.2z"/>
		<path class="st4" d="M659.6,1658.8c-0.4,2.7-1.5,4.8-3.2,6c-1.5,1.4-3.2,2.2-5.2,2.2c-2.4,0-4.2-1-6-2.9c-1.7-2-2.5-4.5-2.5-7.8
			c0-3.2,1-5.7,2.8-7.7s4.2-2.9,6.9-2.9c2,0,3.6,0.4,4.9,1.5c1.3,1.1,2,2.2,2,3.2c0,0.6-0.1,1-0.4,1.4c-0.4,0.4-0.8,0.4-1.4,0.4
			c-0.8,0-1.4-0.3-2-0.8c-0.3-0.4-0.4-0.8-0.4-1.7c-0.1-0.8-0.4-1.5-0.8-2c-0.4-0.5-1.3-0.6-2.1-0.6c-1.4,0-2.7,0.4-3.5,1.5
			c-1.3,1.4-1.8,3.2-1.8,5.7c0,2.4,0.6,4.5,1.7,6.3c1.3,1.8,2.8,2.8,4.8,2.8c1.4,0,2.7-0.4,3.9-1.4c0.8-0.7,1.5-2,2.4-3.6
			L659.6,1658.8z"/>
		<path class="st4" d="M662.6,1636.1v-1c2.2,1.1,4.1,2.4,5.6,3.9c2.1,2.1,3.6,4.6,4.9,7.6c1.1,2.9,1.7,5.9,1.7,9
			c0,4.5-1.1,8.7-3.2,12.5c-2.2,3.8-5.2,6.4-8.7,8v-0.8c1.8-1,3.2-2.4,4.3-4.1c1.3-1.7,2.1-3.9,2.5-6.6c0.6-2.7,0.8-5.5,0.8-8.3
			c0-3.2-0.3-6-0.7-8.5c-0.4-2.1-0.8-3.6-1.4-4.9c-0.4-1.3-1.3-2.4-2.2-3.5C665.3,1638.2,664.2,1637.1,662.6,1636.1z"/>
	</g>
</g>
<g>
	<path class="st1" d="M333.6,911l-4,17.3h-1.4l-0.1-4.3c-0.2-1.6-0.5-3-1-4.2s-1.2-2.3-2.1-3.2s-2.1-1.6-3.6-2.1
		c-1.4-0.5-3.1-0.8-4.8-0.8c-4.7,0-8.8,1.3-12.3,3.9c-4.5,3.3-8,7.9-10.5,13.9c-2.1,4.9-3.1,9.9-3.1,15c0,5.2,1.5,9.3,4.5,12.4
		c3,3.1,6.9,4.6,11.7,4.6c3.6,0,6.9-0.8,9.7-2.4c2.8-1.6,5.5-4.1,7.9-7.5h1.8c-2.9,4.6-6.1,8-9.6,10.1s-7.7,3.2-12.6,3.2
		c-4.4,0-8.2-0.9-11.6-2.7s-5.9-4.4-7.7-7.7c-1.8-3.3-2.6-6.9-2.6-10.7c0-5.8,1.6-11.4,4.7-16.9s7.4-9.8,12.8-13s10.9-4.7,16.5-4.7
		c2.6,0,5.5,0.6,8.7,1.9c1.4,0.5,2.5,0.8,3.1,0.8s1.2-0.1,1.6-0.4c0.5-0.3,1.3-1,2.4-2.2h1.6V911z"/>
	<path class="st1" d="M340.3,950.7c-0.2,1.3-0.2,2.4-0.2,3.2c0,2.3,0.8,4.3,2.5,6c1.6,1.6,3.7,2.5,6,2.5c1.9,0,3.7-0.4,5.4-1.2
		c1.7-0.8,4.3-2.5,7.7-5.1l0.8,1.1c-6.2,6.2-12.1,9.2-17.8,9.2c-3.8,0-6.7-1.2-8.6-3.6c-1.9-2.4-2.9-5.1-2.9-8c0-3.9,1.2-7.9,3.6-12
		s5.4-7.3,9.1-9.5c3.6-2.3,7.4-3.4,11.3-3.4c2.8,0,4.8,0.6,6.2,1.7c1.3,1.1,2,2.5,2,4c0,2.2-0.9,4.3-2.6,6.2
		c-2.3,2.6-5.6,4.7-10.1,6.3C349.8,949.3,345.6,950.1,340.3,950.7z M340.6,948.8c3.9-0.5,7-1.2,9.5-2.3c3.2-1.4,5.6-3.1,7.3-5.2
		s2.4-3.9,2.4-5.7c0-1.1-0.4-2-1-2.6c-0.7-0.7-1.7-1-3-1c-2.7,0-5.5,1.4-8.5,4.2C344.2,939,342,943.2,340.6,948.8z"/>
	<path class="st1" d="M384.2,929.9l-5.2,17.9c4.9-7.3,8.6-12.1,11.3-14.5c2.6-2.3,5.1-3.5,7.5-3.5c1.3,0,2.4,0.4,3.2,1.3
		c0.8,0.9,1.3,2,1.3,3.4c0,1.6-0.4,3.7-1.1,6.3l-4.8,16.6c-0.6,1.9-0.8,3.1-0.8,3.5s0.1,0.7,0.3,0.9c0.2,0.2,0.4,0.4,0.7,0.4
		c0.3,0,0.7-0.2,1.1-0.5c1.4-1.1,2.9-2.8,4.6-5l1.2,0.7c-2.4,3.5-4.8,6-6.9,7.5c-1.5,1-2.9,1.5-4.1,1.5c-1,0-1.8-0.3-2.3-0.9
		c-0.6-0.6-0.9-1.4-0.9-2.3c0-1.3,0.4-3.4,1.3-6.5l4.6-15.8c0.6-2,0.8-3.5,0.8-4.6c0-0.5-0.2-0.9-0.5-1.3c-0.3-0.3-0.8-0.5-1.2-0.5
		c-0.7,0-1.6,0.3-2.6,0.9c-1.9,1.2-3.9,3.1-6,5.8s-4.3,6.2-6.7,10.4c-1.2,2.2-2.3,4.7-3.1,7.3l-2,6.5H368l7.2-24.6
		c0.8-3,1.3-4.7,1.3-5.3s-0.2-1.1-0.7-1.5s-1-0.7-1.7-0.7c-0.3,0-0.9,0.1-1.7,0.2l-1.5,0.2l-0.2-1.4L384.2,929.9z"/>
	<path class="st1" d="M427.6,920.2l-3.1,10.7h6.2l-0.7,2.5h-6.1l-6.8,23.1c-0.7,2.5-1.1,4.1-1.1,4.8c0,0.5,0.1,0.8,0.3,1
		s0.4,0.4,0.7,0.4c0.7,0,1.5-0.5,2.6-1.4c0.7-0.5,2.1-2.1,4.2-4.8l1.3,1c-2.4,3.5-4.7,6-6.8,7.4c-1.5,1-2.9,1.5-4.4,1.5
		c-1.1,0-2.1-0.4-2.8-1.1s-1.1-1.6-1.1-2.8c0-1.4,0.4-3.5,1.2-6.4l6.6-22.8h-6l0.4-1.6c2.9-0.8,5.3-2,7.2-3.5s4-4.3,6.4-8.1
		L427.6,920.2L427.6,920.2z"/>
	<path class="st1" d="M433.2,932.2l13.6-2.2l-5.7,19.1c4.6-7.8,8.8-13.3,12.5-16.5c2.1-1.8,3.8-2.7,5.2-2.7c0.9,0,1.6,0.3,2.1,0.8
		s0.7,1.3,0.7,2.2c0,1.7-0.4,3.4-1.3,4.9c-0.6,1.2-1.5,1.8-2.7,1.8c-0.6,0-1.1-0.2-1.5-0.6s-0.7-1-0.8-1.8c0-0.5-0.1-0.8-0.3-1
		c-0.2-0.2-0.5-0.3-0.7-0.3c-0.5,0-0.9,0.1-1.3,0.3c-0.7,0.4-1.7,1.4-3.1,3.1c-2.2,2.6-4.5,5.9-7.1,10c-1.1,1.7-2,3.7-2.8,5.9
		c-1.1,3-1.7,4.8-1.9,5.4l-1.3,4.9h-6l7.3-24.4c0.8-2.8,1.2-4.9,1.2-6.1c0-0.5-0.2-0.8-0.6-1.2c-0.5-0.4-1.2-0.6-2.1-0.6
		c-0.6,0-1.6,0.1-3,0.3L433.2,932.2z"/>
	<path class="st1" d="M497.6,942.2c0,3.9-1,7.8-3.1,11.7s-5,6.9-8.7,9.2s-7.3,3.4-10.8,3.4c-3.6,0-6.5-1.1-8.8-3.4
		c-2.3-2.3-3.4-5.2-3.4-8.9c0-3.9,1.1-7.7,3.3-11.6c2.2-3.9,5.2-6.9,8.9-9.2c3.7-2.3,7.3-3.4,10.7-3.4c3.5,0,6.3,1.1,8.6,3.4
		C496.5,935.7,497.6,938.6,497.6,942.2z M491.1,939.5c0-2.4-0.6-4.3-1.8-5.6c-1.2-1.3-2.8-2-4.6-2c-3.8,0-7.4,2.8-10.6,8.3
		s-4.9,11-4.9,16.5c0,2.5,0.6,4.4,1.9,5.7c1.3,1.4,2.8,2,4.7,2c3.7,0,7.2-2.7,10.4-8.2C489.5,950.8,491.1,945.2,491.1,939.5z"/>
	<path class="st1" d="M577.4,911l-4,17.3H572l-0.1-4.3c-0.2-1.6-0.5-3-1-4.2s-1.2-2.3-2.1-3.2c-0.9-0.9-2.1-1.6-3.6-2.1
		c-1.4-0.5-3.1-0.8-4.8-0.8c-4.7,0-8.8,1.3-12.3,3.9c-4.5,3.3-8,7.9-10.5,13.9c-2.1,4.9-3.1,9.9-3.1,15c0,5.2,1.5,9.3,4.5,12.4
		c3,3.1,6.9,4.6,11.7,4.6c3.6,0,6.9-0.8,9.7-2.4c2.8-1.6,5.5-4.1,7.9-7.5h1.8c-2.9,4.6-6.1,8-9.6,10.1s-7.7,3.2-12.6,3.2
		c-4.4,0-8.2-0.9-11.6-2.7c-3.4-1.8-5.9-4.4-7.7-7.7s-2.6-6.9-2.6-10.7c0-5.8,1.6-11.4,4.7-16.9c3.1-5.5,7.4-9.8,12.8-13
		c5.4-3.2,10.9-4.7,16.5-4.7c2.6,0,5.5,0.6,8.7,1.9c1.4,0.5,2.5,0.8,3.1,0.8s1.2-0.1,1.6-0.4c0.5-0.3,1.3-1,2.4-2.2h1.6V911z"/>
	<path class="st1" d="M593,929.9l-7.8,27.6c-0.5,1.9-0.8,3-0.8,3.3c0,0.4,0.1,0.8,0.4,1c0.2,0.3,0.5,0.4,0.9,0.4s0.9-0.2,1.4-0.6
		c1.5-1.2,3-2.8,4.5-5l1.4,0.9c-1.8,2.7-3.9,5-6.3,6.9c-1.8,1.4-3.5,2.1-5.1,2.1c-1.1,0-2-0.3-2.6-1s-1-1.4-1-2.4s0.3-2.6,1-4.8
		l5.1-17.6c0.8-2.9,1.2-4.7,1.2-5.4c0-0.6-0.2-1-0.6-1.4c-0.4-0.4-1-0.6-1.6-0.6s-1.8,0.1-3.6,0.4v-1.5L593,929.9z M601.4,910.4
		l-11.5,13.5h-1.4l4.1-13.5H601.4z"/>
	<path class="st1" d="M598.5,932.4l11.4-2.4c0.8,2,1.5,3.9,2,6c0.7,3,1.3,6.5,1.8,10.5c0.2,2.1,0.5,6.4,0.8,12.9
		c3.3-3.6,5.2-5.8,5.9-6.7c3.5-4.7,5.5-7.4,6-8.3c0.8-1.4,1.4-2.6,1.8-3.7c0.3-0.8,0.4-1.5,0.4-2.2s-0.6-1.5-1.8-2.4s-1.8-1.9-1.8-3
		c0-0.8,0.3-1.6,1-2.2c0.7-0.7,1.5-1,2.4-1c1.1,0,2.1,0.5,2.9,1.4c0.8,0.9,1.2,2,1.2,3.4c0,1.3-0.2,2.6-0.6,3.9
		c-0.7,2-1.9,4.4-3.8,7.3c-1.9,2.9-4.9,6.7-9,11.6c-0.5,0.6-3.4,3.6-8.7,9.1H609c-0.7-16.6-2-26.9-4-31.1c-0.7-1.3-1.7-2-3.3-2
		c-0.7,0-1.6,0.1-2.8,0.4L598.5,932.4z"/>
	<path class="st1" d="M651.1,929.9l-7.8,27.6c-0.5,1.9-0.8,3-0.8,3.3c0,0.4,0.1,0.8,0.4,1c0.2,0.3,0.5,0.4,0.9,0.4s0.9-0.2,1.4-0.6
		c1.5-1.2,3-2.8,4.5-5l1.4,0.9c-1.8,2.7-3.9,5-6.3,6.9c-1.8,1.4-3.5,2.1-5.1,2.1c-1.1,0-2-0.3-2.6-1s-1-1.4-1-2.4s0.3-2.6,1-4.8
		l5.1-17.6c0.8-2.9,1.2-4.7,1.2-5.4c0-0.6-0.2-1-0.6-1.4c-0.4-0.4-1-0.6-1.6-0.6s-1.8,0.1-3.6,0.4v-1.5L651.1,929.9z M650.6,914.3
		c1.1,0,2,0.4,2.8,1.1c0.7,0.8,1.1,1.7,1.1,2.8s-0.4,2-1.1,2.8c-0.8,0.8-1.7,1.2-2.8,1.2s-2-0.4-2.8-1.2s-1.2-1.7-1.2-2.8
		s0.4-2,1.1-2.8C648.5,914.7,649.5,914.3,650.6,914.3z"/>
	<path class="st1" d="M686,957c-2.7,3.3-5.5,5.6-8.3,7.2s-5.7,2.3-8.8,2.3c-3.7,0-6.6-1-8.7-3.1c-2.1-2.1-3.1-4.9-3.1-8.4
		c0-4,1.1-8,3.4-11.8c2.2-3.9,5.3-7,9-9.5c3.8-2.4,7.5-3.6,11.1-3.6c2.9,0,5,0.6,6.4,1.8s2.1,2.7,2.1,4.4c0,1.6-0.5,3-1.5,4.2
		c-0.7,0.9-1.6,1.4-2.7,1.4c-0.8,0-1.5-0.3-2-0.8s-0.8-1.2-0.8-2c0-0.5,0.1-0.9,0.3-1.4c0.2-0.4,0.6-0.9,1.2-1.5
		c0.6-0.6,1-1,1.1-1.3s0.2-0.5,0.2-0.8c0-0.6-0.2-1-0.7-1.4c-0.8-0.5-1.9-0.8-3.2-0.8c-2.6,0-5.1,0.9-7.6,2.7s-4.7,4.4-6.5,7.7
		c-2.1,4-3.2,8.1-3.2,12.1c0,2.7,0.8,4.8,2.3,6.3c1.5,1.6,3.6,2.3,6.2,2.3c2,0,4-0.5,6-1.5s4.2-2.8,6.6-5.5L686,957z"/>
	<path class="st1" d="M727.9,942.2c0,3.9-1,7.8-3.1,11.7s-5,6.9-8.7,9.2s-7.3,3.4-10.8,3.4c-3.6,0-6.5-1.1-8.8-3.4
		c-2.3-2.3-3.4-5.2-3.4-8.9c0-3.9,1.1-7.7,3.3-11.6c2.2-3.9,5.2-6.9,8.9-9.2s7.3-3.4,10.7-3.4c3.5,0,6.3,1.1,8.6,3.4
		C726.8,935.7,727.9,938.6,727.9,942.2z M721.4,939.5c0-2.4-0.6-4.3-1.8-5.6s-2.8-2-4.6-2c-3.8,0-7.4,2.8-10.6,8.3
		c-3.2,5.5-4.9,11-4.9,16.5c0,2.5,0.6,4.4,1.9,5.7c1.3,1.4,2.8,2,4.7,2c3.7,0,7.2-2.7,10.4-8.2C719.8,950.8,721.4,945.2,721.4,939.5
		z"/>
	<path class="st1" d="M792.5,911l-4.1,44.4c-0.2,2.1-0.3,3.4-0.3,4.1c0,1,0.2,1.8,0.6,2.4c0.5,0.8,1.2,1.4,2,1.7
		c0.9,0.4,2.3,0.5,4.3,0.5l-0.4,1.5h-21l0.4-1.5h0.9c1.7,0,3.1-0.4,4.2-1.1c0.7-0.5,1.3-1.4,1.8-2.5c0.3-0.8,0.6-2.7,0.8-5.8
		l0.6-6.7H767l-5.4,7.4c-1.2,1.6-2,2.8-2.3,3.5s-0.5,1.4-0.5,2.1c0,0.8,0.3,1.6,1,2.2c0.7,0.6,1.8,0.9,3.4,1l-0.4,1.5H747l0.4-1.5
		c2-0.1,3.7-0.7,5.2-1.9s3.7-3.8,6.6-7.8l31.8-43.4h1.5V911z M784.7,924.1l-15.4,21h13.4L784.7,924.1z"/>
	<path class="st1" d="M824.1,909.6l-13.4,46.8c-0.7,2.3-1,3.8-1,4.3c0,0.4,0.1,0.7,0.4,1c0.2,0.3,0.5,0.4,0.9,0.4
		c0.5,0,1.1-0.2,1.6-0.7c1.4-1.1,2.8-2.7,4.3-5l1.2,1.2c-2.5,3.5-4.8,6-6.9,7.4c-1.5,1-3,1.5-4.4,1.5c-1,0-1.8-0.3-2.5-1
		s-1-1.5-1-2.3c0-0.9,0.4-2.9,1.2-5.8l10.7-36.9c0.8-3,1.3-4.8,1.3-5.2c0-0.7-0.3-1.2-0.8-1.6c-0.5-0.4-1.3-0.6-2.3-0.6
		c-0.6,0-1.5,0.1-2.7,0.3v-1.5L824.1,909.6z"/>
	<path class="st1" d="M853.7,957c-2.7,3.3-5.5,5.6-8.3,7.2s-5.7,2.3-8.8,2.3c-3.7,0-6.6-1-8.7-3.1c-2.1-2.1-3.1-4.9-3.1-8.4
		c0-4,1.1-8,3.4-11.8c2.2-3.9,5.3-7,9-9.5c3.8-2.4,7.5-3.6,11.1-3.6c2.9,0,5,0.6,6.4,1.8s2.1,2.7,2.1,4.4c0,1.6-0.5,3-1.5,4.2
		c-0.7,0.9-1.6,1.4-2.7,1.4c-0.8,0-1.5-0.3-2-0.8s-0.8-1.2-0.8-2c0-0.5,0.1-0.9,0.3-1.4c0.2-0.4,0.6-0.9,1.2-1.5
		c0.6-0.6,1-1,1.1-1.3s0.2-0.5,0.2-0.8c0-0.6-0.2-1-0.7-1.4c-0.8-0.5-1.9-0.8-3.2-0.8c-2.6,0-5.1,0.9-7.6,2.7s-4.7,4.4-6.5,7.7
		c-2.1,4-3.2,8.1-3.2,12.1c0,2.7,0.8,4.8,2.3,6.3c1.5,1.6,3.6,2.3,6.2,2.3c2,0,4-0.5,6-1.5s4.2-2.8,6.6-5.5L853.7,957z"/>
	<path class="st1" d="M895.5,942.2c0,3.9-1,7.8-3.1,11.7s-5,6.9-8.7,9.2s-7.3,3.4-10.8,3.4c-3.6,0-6.5-1.1-8.8-3.4
		c-2.3-2.3-3.4-5.2-3.4-8.9c0-3.9,1.1-7.7,3.3-11.6c2.2-3.9,5.2-6.9,8.9-9.2s7.3-3.4,10.7-3.4c3.5,0,6.3,1.1,8.6,3.4
		C894.4,935.7,895.5,938.6,895.5,942.2z M889,939.5c0-2.4-0.6-4.3-1.8-5.6s-2.8-2-4.6-2c-3.8,0-7.4,2.8-10.6,8.3
		c-3.2,5.5-4.9,11-4.9,16.5c0,2.5,0.6,4.4,1.9,5.7c1.3,1.4,2.8,2,4.7,2c3.7,0,7.2-2.7,10.4-8.2C887.4,950.8,889,945.2,889,939.5z"/>
	<path class="st1" d="M927.7,929.9l-2.4,12.1h-1.5c-0.1-3.5-0.9-6.1-2.2-7.7c-1.4-1.6-3.1-2.4-5.1-2.4c-1.6,0-2.9,0.4-3.8,1.3
		c-1,0.9-1.4,2-1.4,3.2c0,0.8,0.2,1.7,0.6,2.5c0.4,0.8,1.2,1.9,2.5,3.3c3.4,3.7,5.6,6.6,6.6,8.4c1,1.9,1.5,3.7,1.5,5.3
		c0,2.7-1.1,5.2-3.4,7.3c-2.3,2.1-5.1,3.1-8.6,3.1c-1.9,0-4.1-0.4-6.5-1.3c-0.8-0.3-1.5-0.5-2-0.5c-1.2,0-2.1,0.6-2.7,1.8h-1.4
		l2.4-12.7h1.5c0.1,4,0.9,6.8,2.4,8.5c1.5,1.6,3.5,2.5,6.2,2.5c2,0,3.6-0.6,4.7-1.7c1.2-1.1,1.8-2.5,1.8-4.1c0-1-0.2-2-0.6-2.9
		c-0.7-1.6-2.3-3.7-4.6-6.5s-3.8-4.9-4.5-6.2c-0.7-1.4-1-2.8-1-4.2c0-2.5,0.9-4.7,2.8-6.4s4.2-2.6,7.1-2.6c0.8,0,1.6,0.1,2.3,0.2
		c0.4,0.1,1.2,0.4,2.6,0.9c1.4,0.5,2.3,0.8,2.7,0.8c1.1,0,2.1-0.6,2.8-1.9L927.7,929.9L927.7,929.9z"/>
	<path class="st1" d="M967.7,929.9l-7.7,26.7l-0.9,3.6c-0.1,0.3-0.1,0.6-0.1,0.8c0,0.4,0.1,0.8,0.4,1.1c0.2,0.2,0.5,0.3,0.8,0.3
		s0.8-0.2,1.3-0.6c1-0.7,2.4-2.3,4.1-4.7l1.3,0.9c-1.8,2.7-3.6,4.8-5.6,6.2c-1.9,1.4-3.7,2.1-5.3,2.1c-1.1,0-1.9-0.3-2.5-0.8
		c-0.6-0.6-0.9-1.4-0.9-2.4c0-1.3,0.3-3,0.9-5.1l0.8-3c-3.5,4.5-6.6,7.6-9.5,9.4c-2.1,1.3-4.1,1.9-6.1,1.9c-1.9,0-3.6-0.8-5-2.4
		c-1.4-1.6-2.1-3.8-2.1-6.5c0-4.2,1.2-8.6,3.7-13.2s5.7-8.3,9.5-11.1c3-2.2,5.8-3.3,8.5-3.3c1.6,0,3,0.4,4,1.3
		c1.1,0.8,1.9,2.2,2.4,4.2l1.4-4.5L967.7,929.9z M953.7,932c-1.7,0-3.4,0.8-5.3,2.4c-2.7,2.2-5.1,5.5-7.2,9.9
		c-2.1,4.4-3.1,8.3-3.1,11.9c0,1.8,0.4,3.2,1.3,4.2c0.9,1,1.9,1.6,3.1,1.6c2.8,0,5.9-2.1,9.3-6.3c4.5-5.6,6.7-11.3,6.7-17.2
		c0-2.2-0.4-3.8-1.3-4.8C956.3,932.5,955.2,932,953.7,932z"/>
</g>
<g>
	<path class="st1" d="M316.2,1060.2l0.9,12.7h-0.9c-1.1-3.8-2.8-6.5-4.9-8.2s-4.6-2.5-7.6-2.5c-2.5,0-4.7,0.6-6.7,1.9
		s-3.6,3.3-4.7,6c-1.2,2.7-1.7,6.2-1.7,10.3c0,3.4,0.5,6.3,1.6,8.8s2.7,4.4,4.9,5.7c2.2,1.3,4.7,2,7.4,2c2.4,0,4.6-0.5,6.4-1.6
		c1.8-1,3.9-3.1,6.1-6.2l0.8,0.5c-1.9,3.3-4.1,5.8-6.5,7.3c-2.5,1.5-5.5,2.3-8.9,2.3c-6.2,0-11-2.3-14.4-6.9
		c-2.5-3.4-3.8-7.4-3.8-12.1c0-3.7,0.8-7.1,2.5-10.3c1.7-3.1,4-5.5,6.9-7.3c2.9-1.7,6.1-2.6,9.6-2.6c2.7,0,5.3,0.7,8,2
		c0.8,0.4,1.3,0.6,1.7,0.6c0.5,0,0.9-0.2,1.3-0.5c0.5-0.5,0.8-1.2,1-2.1h1V1060.2z"/>
	<path class="st1" d="M326.9,1093c0.9,0,1.6,0.3,2.2,0.9s0.9,1.3,0.9,2.2c0,0.8-0.3,1.6-0.9,2.2s-1.3,0.9-2.2,0.9
		c-0.8,0-1.6-0.3-2.2-0.9s-0.9-1.3-0.9-2.2c0-0.9,0.3-1.6,0.9-2.2S326,1093,326.9,1093z"/>
	<path class="st1" d="M353.6,1062.1v-1h16v1h-1.4c-1.5,0-2.6,0.5-3.3,1.4c-0.4,0.6-0.6,2-0.6,4.2v18.2c0,2.8-0.3,5.1-0.9,6.8
		s-1.7,3.3-3.2,4.6s-3.3,1.9-5.5,1.9c-1.7,0-3.1-0.4-4.1-1.3s-1.5-1.8-1.5-2.9c0-0.9,0.2-1.6,0.7-2.1c0.6-0.6,1.3-0.9,2.1-0.9
		c0.6,0,1.1,0.2,1.6,0.6s1.1,1.4,1.8,3.1c0.4,1,1,1.5,1.6,1.5c0.5,0,0.9-0.3,1.4-0.9c0.4-0.6,0.6-1.7,0.6-3.2v-25.5
		c0-1.9-0.1-3.1-0.3-3.8c-0.2-0.5-0.6-0.8-1.2-1.2c-0.8-0.5-1.6-0.7-2.5-0.7h-1.3V1062.1z"/>
	<path class="st1" d="M375.9,1082.6c0,3.8,0.9,6.7,2.7,8.8c1.8,2.1,4,3.2,6.5,3.2c1.7,0,3.1-0.4,4.3-1.4c1.2-0.9,2.2-2.5,3.1-4.7
		l0.9,0.5c-0.4,2.5-1.5,4.8-3.3,6.9s-4.2,3.1-7,3.1c-3,0-5.6-1.2-7.8-3.5s-3.2-5.5-3.2-9.5c0-4.3,1.1-7.7,3.3-10.1
		c2.2-2.4,5-3.6,8.3-3.6c2.8,0,5.1,0.9,7,2.8c1.8,1.9,2.7,4.3,2.7,7.5L375.9,1082.6L375.9,1082.6z M375.9,1081.1h11.7
		c-0.1-1.6-0.3-2.8-0.6-3.4c-0.5-1-1.1-1.8-2.1-2.4c-0.9-0.6-1.9-0.9-2.8-0.9c-1.5,0-2.9,0.6-4.1,1.8
		C376.8,1077.3,376.1,1078.9,375.9,1081.1z"/>
	<path class="st1" d="M413,1072.4v8.6h-0.9c-0.7-2.7-1.6-4.5-2.7-5.5s-2.5-1.5-4.2-1.5c-1.3,0-2.3,0.3-3.1,1
		c-0.8,0.7-1.2,1.4-1.2,2.3c0,1,0.3,1.9,0.9,2.6c0.6,0.8,1.7,1.5,3.5,2.4l4,2c3.7,1.8,5.6,4.2,5.6,7.2c0,2.3-0.9,4.1-2.6,5.5
		s-3.7,2.1-5.8,2.1c-1.5,0-3.3-0.3-5.3-0.9c-0.6-0.2-1.1-0.3-1.5-0.3s-0.7,0.2-1,0.7h-0.9v-9h0.9c0.5,2.6,1.5,4.5,3,5.8
		c1.4,1.3,3.1,1.9,4.9,1.9c1.3,0,2.3-0.4,3.1-1.1c0.8-0.7,1.2-1.6,1.2-2.7c0-1.3-0.4-2.3-1.3-3.2s-2.7-1.9-5.3-3.3
		c-2.7-1.3-4.4-2.5-5.2-3.6c-0.8-1-1.2-2.4-1.2-4c0-2.1,0.7-3.8,2.1-5.2c1.4-1.4,3.2-2.1,5.5-2.1c1,0,2.2,0.2,3.6,0.6
		c0.9,0.3,1.5,0.4,1.8,0.4s0.5-0.1,0.7-0.2s0.4-0.4,0.6-0.8h0.8V1072.4z"/>
	<path class="st1" d="M440.8,1073.2v15.2c0,2.9,0.1,4.7,0.2,5.4c0.1,0.7,0.4,1.1,0.7,1.4c0.3,0.3,0.7,0.4,1,0.4
		c0.6,0,1.2-0.2,1.9-0.5l0.4,1l-7.6,3.1h-1.2v-5.4c-2.2,2.3-3.8,3.8-5,4.4c-1.1,0.6-2.3,0.9-3.6,0.9c-1.4,0-2.6-0.4-3.7-1.2
		c-1-0.8-1.8-1.9-2.2-3.2c-0.4-1.3-0.6-3.1-0.6-5.5V1078c0-1.2-0.1-2-0.4-2.5s-0.6-0.8-1.1-1.1c-0.5-0.2-1.4-0.4-2.7-0.4v-1h8.8
		v16.9c0,2.3,0.4,3.9,1.2,4.6c0.8,0.7,1.8,1.1,2.9,1.1c0.8,0,1.7-0.3,2.7-0.8s2.2-1.4,3.6-2.8v-14.3c0-1.4-0.3-2.4-0.8-2.9
		s-1.6-0.8-3.2-0.8v-1h8.7V1073.2z M436.1,1060.1l-8.1,9.5h-0.9l2.9-9.5H436.1z"/>
	<path class="st1" d="M463.1,1072.4v8.6h-0.9c-0.7-2.7-1.6-4.5-2.7-5.5s-2.5-1.5-4.2-1.5c-1.3,0-2.3,0.3-3.1,1
		c-0.8,0.7-1.2,1.4-1.2,2.3c0,1,0.3,1.9,0.9,2.6c0.6,0.8,1.7,1.5,3.5,2.4l4,2c3.7,1.8,5.6,4.2,5.6,7.2c0,2.3-0.9,4.1-2.6,5.5
		s-3.7,2.1-5.8,2.1c-1.5,0-3.3-0.3-5.3-0.9c-0.6-0.2-1.1-0.3-1.5-0.3s-0.7,0.2-1,0.7h-0.9v-9h0.9c0.5,2.6,1.5,4.5,3,5.8
		c1.4,1.3,3.1,1.9,4.9,1.9c1.3,0,2.3-0.4,3.1-1.1c0.8-0.7,1.2-1.6,1.2-2.7c0-1.3-0.4-2.3-1.3-3.2s-2.7-1.9-5.3-3.3
		c-2.7-1.3-4.4-2.5-5.2-3.6c-0.8-1-1.2-2.4-1.2-4c0-2.1,0.7-3.8,2.1-5.2c1.4-1.4,3.2-2.1,5.5-2.1c1,0,2.2,0.2,3.6,0.6
		c0.9,0.3,1.5,0.4,1.8,0.4s0.5-0.1,0.7-0.2s0.4-0.4,0.6-0.8h0.8V1072.4z"/>
	<path class="st1" d="M500.6,1095.5c-1.2,1.3-2.4,2.2-3.6,2.8c-1.2,0.6-2.4,0.9-3.8,0.9c-2.8,0-5.2-1.2-7.2-3.5
		c-2.1-2.3-3.1-5.3-3.1-8.9s1.1-6.9,3.4-9.9s5.2-4.5,8.8-4.5c2.2,0,4.1,0.7,5.5,2.1v-4.6c0-2.9-0.1-4.6-0.2-5.3
		c-0.1-0.7-0.3-1.1-0.6-1.4c-0.3-0.2-0.7-0.4-1.1-0.4c-0.5,0-1.1,0.1-1.9,0.4l-0.4-1l7.5-3.1h1.2v29.2c0,2.9,0.1,4.7,0.2,5.4
		c0.1,0.7,0.4,1.1,0.7,1.4c0.3,0.3,0.7,0.4,1.1,0.4c0.5,0,1.1-0.2,1.9-0.5l0.3,1l-7.5,3.1h-1.3v-3.6H500.6z M500.6,1093.6v-13
		c-0.1-1.3-0.4-2.4-1-3.4s-1.3-1.8-2.2-2.3c-0.9-0.5-1.8-0.8-2.6-0.8c-1.6,0-3.1,0.7-4.3,2.2c-1.7,1.9-2.5,4.7-2.5,8.3
		c0,3.7,0.8,6.6,2.4,8.5c1.6,2,3.4,3,5.4,3C497.5,1096.1,499.1,1095.3,500.6,1093.6z"/>
	<path class="st1" d="M515.2,1082.6c0,3.8,0.9,6.7,2.7,8.8c1.8,2.1,4,3.2,6.5,3.2c1.7,0,3.1-0.4,4.3-1.4c1.2-0.9,2.2-2.5,3.1-4.7
		l0.9,0.5c-0.4,2.5-1.5,4.8-3.3,6.9s-4.2,3.1-7,3.1c-3,0-5.6-1.2-7.8-3.5s-3.2-5.5-3.2-9.5c0-4.3,1.1-7.7,3.3-10.1s5-3.6,8.3-3.6
		c2.8,0,5.1,0.9,7,2.8c1.8,1.9,2.7,4.3,2.7,7.5L515.2,1082.6L515.2,1082.6z M515.2,1081.1h11.7c-0.1-1.6-0.3-2.8-0.6-3.4
		c-0.5-1-1.1-1.8-2.1-2.4c-0.9-0.6-1.9-0.9-2.8-0.9c-1.5,0-2.9,0.6-4.1,1.8C516.1,1077.3,515.4,1078.9,515.2,1081.1z"/>
	<path class="st1" d="M544.7,1059.2v33.4c0,1.6,0.1,2.6,0.3,3.2c0.2,0.5,0.6,0.9,1.1,1.2c0.5,0.3,1.4,0.4,2.7,0.4v1h-12.3v-1
		c1.2,0,2-0.1,2.4-0.4c0.4-0.2,0.7-0.6,1-1.2c0.2-0.5,0.3-1.6,0.3-3.2v-22.9c0-2.8-0.1-4.6-0.2-5.2c-0.1-0.6-0.3-1.1-0.6-1.3
		c-0.3-0.2-0.6-0.4-1.1-0.4s-1.1,0.1-1.8,0.4l-0.5-1l7.5-3.1L544.7,1059.2L544.7,1059.2z"/>
	<path class="st1" d="M565,1098.4v-1h1.4c1.6,0,2.7-0.5,3.3-1.5c0.4-0.6,0.6-2,0.6-4.1v-24.1c0-2.3-0.3-3.8-0.8-4.4
		c-0.7-0.8-1.8-1.2-3.2-1.2H565v-1h15.2c5.6,0,9.8,0.6,12.7,1.9s5.2,3.4,7,6.3c1.8,3,2.7,6.4,2.7,10.2c0,5.2-1.6,9.5-4.8,13
		c-3.5,3.9-8.9,5.8-16.2,5.8L565,1098.4L565,1098.4z M575.6,1095.7c2.3,0.5,4.3,0.8,5.8,0.8c4.3,0,7.8-1.5,10.6-4.5s4.2-7,4.2-12.2
		s-1.4-9.2-4.2-12.2s-6.4-4.4-10.8-4.4c-1.7,0-3.5,0.3-5.6,0.8V1095.7z"/>
	<path class="st1" d="M615.2,1072.4v20.2c0,1.6,0.1,2.6,0.3,3.2c0.2,0.5,0.6,0.9,1,1.2c0.4,0.3,1.3,0.4,2.5,0.4v1h-12.2v-1
		c1.2,0,2.1-0.1,2.5-0.4c0.4-0.2,0.8-0.6,1-1.2s0.4-1.6,0.4-3.2v-9.7c0-2.7-0.1-4.5-0.2-5.3c-0.1-0.6-0.3-1-0.6-1.2
		s-0.6-0.3-1.1-0.3s-1.1,0.1-1.8,0.4l-0.4-1l7.6-3.1H615.2z M612.9,1059.2c0.8,0,1.4,0.3,2,0.8c0.5,0.5,0.8,1.2,0.8,2
		s-0.3,1.4-0.8,2s-1.2,0.8-2,0.8s-1.4-0.3-2-0.8c-0.5-0.6-0.8-1.2-0.8-2s0.3-1.4,0.8-2C611.4,1059.5,612.1,1059.2,612.9,1059.2z"/>
	<path class="st1" d="M620.8,1073.2h11.9v1h-0.8c-0.7,0-1.2,0.2-1.6,0.5c-0.4,0.4-0.6,0.8-0.6,1.4s0.2,1.4,0.6,2.3l5.8,13.9
		l5.9-14.5c0.4-1,0.6-1.8,0.6-2.3c0-0.3-0.1-0.5-0.2-0.6c-0.2-0.3-0.4-0.5-0.8-0.6c-0.3-0.1-1-0.2-1.9-0.2v-1h8.2v1
		c-1,0.1-1.6,0.3-2,0.6c-0.6,0.5-1.2,1.5-1.7,2.8l-8.9,21.6h-1.1l-9-21.3c-0.4-1-0.8-1.7-1.1-2.1c-0.4-0.4-0.8-0.8-1.4-1.1
		c-0.3-0.2-0.9-0.3-1.8-0.5v-0.9H620.8z"/>
	<path class="st1" d="M659,1072.4v20.2c0,1.6,0.1,2.6,0.3,3.2c0.2,0.5,0.6,0.9,1,1.2c0.4,0.3,1.3,0.4,2.5,0.4v1h-12.2v-1
		c1.2,0,2.1-0.1,2.5-0.4c0.4-0.2,0.8-0.6,1-1.2c0.2-0.5,0.4-1.6,0.4-3.2v-9.7c0-2.7-0.1-4.5-0.2-5.3c-0.1-0.6-0.3-1-0.6-1.2
		s-0.6-0.3-1.1-0.3s-1.1,0.1-1.8,0.4l-0.4-1l7.6-3.1H659z M656.7,1059.2c0.8,0,1.4,0.3,2,0.8c0.5,0.5,0.8,1.2,0.8,2s-0.3,1.4-0.8,2
		s-1.2,0.8-2,0.8s-1.4-0.3-2-0.8c-0.5-0.6-0.8-1.2-0.8-2s0.3-1.4,0.8-2C655.2,1059.5,655.9,1059.2,656.7,1059.2z"/>
	<path class="st1" d="M673.3,1077.8c3-3.6,5.8-5.3,8.5-5.3c1.4,0,2.5,0.3,3.5,1s1.8,1.8,2.4,3.4c0.4,1.1,0.6,2.8,0.6,5.1v10.7
		c0,1.6,0.1,2.7,0.4,3.2c0.2,0.5,0.5,0.8,1,1.1c0.4,0.3,1.3,0.4,2.5,0.4v1h-12.5v-1h0.5c1.2,0,2-0.2,2.4-0.5c0.5-0.4,0.8-0.9,1-1.6
		c0.1-0.3,0.1-1.1,0.1-2.6v-10.3c0-2.3-0.3-3.9-0.9-5c-0.6-1-1.6-1.6-3-1.6c-2.2,0-4.4,1.2-6.5,3.6v13.3c0,1.7,0.1,2.8,0.3,3.2
		c0.3,0.5,0.6,0.9,1.1,1.2c0.4,0.3,1.3,0.4,2.7,0.4v1H665v-1h0.5c1.3,0,2.1-0.3,2.6-1c0.5-0.6,0.7-1.9,0.7-3.7v-9.3
		c0-3-0.1-4.9-0.2-5.5c-0.1-0.7-0.3-1.1-0.6-1.4s-0.7-0.4-1.1-0.4c-0.5,0-1.1,0.1-1.8,0.4l-0.4-1l7.6-3.1h1.2v5.3H673.3z"/>
	<path class="st1" d="M706.4,1072.4c3.8,0,6.9,1.4,9.2,4.3c2,2.5,2.9,5.3,2.9,8.5c0,2.3-0.5,4.5-1.6,6.8s-2.6,4-4.5,5.2
		s-4,1.8-6.4,1.8c-3.8,0-6.8-1.5-9.1-4.5c-1.9-2.6-2.8-5.4-2.8-8.6c0-2.3,0.6-4.6,1.7-6.9c1.1-2.3,2.6-4,4.5-5.1
		C702.4,1073,704.3,1072.4,706.4,1072.4z M705.6,1074.2c-1,0-1.9,0.3-2.9,0.9s-1.8,1.6-2.4,3c-0.6,1.4-0.9,3.3-0.9,5.6
		c0,3.7,0.7,6.8,2.2,9.5s3.4,4,5.8,4c1.8,0,3.2-0.7,4.4-2.2c1.1-1.5,1.7-4,1.7-7.6c0-4.5-1-8-2.9-10.6
		C709.3,1075.1,707.6,1074.2,705.6,1074.2z"/>
	<path class="st1" d="M746.2,1080.9v10.9c0,2.3,0.3,3.8,0.8,4.4c0.7,0.8,1.7,1.2,3.1,1.2h1.4v1h-16v-1h1.4c1.6,0,2.7-0.5,3.4-1.5
		c0.4-0.6,0.6-1.9,0.6-4v-24.1c0-2.3-0.3-3.8-0.8-4.4c-0.7-0.8-1.8-1.2-3.2-1.2h-1.4v-1h13.7c3.3,0,6,0.3,7.9,1s3.5,1.9,4.9,3.5
		c1.3,1.6,2,3.6,2,5.8c0,3.1-1,5.5-3,7.4s-4.8,2.9-8.5,2.9c-0.9,0-1.9-0.1-2.9-0.2C748.5,1081.3,747.3,1081.1,746.2,1080.9z
		 M746.2,1079.3c1,0.2,1.8,0.3,2.6,0.4s1.4,0.1,1.9,0.1c1.9,0,3.6-0.7,4.9-2.2c1.4-1.5,2.1-3.4,2.1-5.7c0-1.6-0.3-3.1-1-4.5
		s-1.6-2.4-2.8-3.1s-2.6-1-4.1-1c-0.9,0-2.1,0.2-3.6,0.5L746.2,1079.3L746.2,1079.3z"/>
	<path class="st1" d="M771.9,1082.6c0,3.8,0.9,6.7,2.7,8.8c1.8,2.1,4,3.2,6.5,3.2c1.7,0,3.1-0.4,4.3-1.4c1.2-0.9,2.2-2.5,3.1-4.7
		l0.9,0.5c-0.4,2.5-1.5,4.8-3.3,6.9s-4.2,3.1-7,3.1c-3,0-5.6-1.2-7.8-3.5c-2.2-2.4-3.2-5.5-3.2-9.5c0-4.3,1.1-7.7,3.3-10.1
		s5-3.6,8.3-3.6c2.8,0,5.1,0.9,7,2.8c1.8,1.9,2.7,4.3,2.7,7.5L771.9,1082.6L771.9,1082.6z M771.9,1081.1h11.7
		c-0.1-1.6-0.3-2.8-0.6-3.4c-0.5-1-1.1-1.8-2.1-2.4c-0.9-0.6-1.9-0.9-2.8-0.9c-1.5,0-2.9,0.6-4.1,1.8
		C772.8,1077.3,772.1,1078.9,771.9,1081.1z"/>
	<path class="st1" d="M800.1,1072.4v5.7c2.1-3.8,4.3-5.7,6.5-5.7c1,0,1.9,0.3,2.5,0.9s1,1.3,1,2.1c0,0.7-0.2,1.3-0.7,1.8
		s-1,0.7-1.7,0.7s-1.4-0.3-2.2-0.9s-1.4-0.9-1.7-0.9s-0.7,0.2-1.1,0.5c-0.8,0.8-1.7,2-2.6,3.7v12.1c0,1.4,0.2,2.4,0.5,3.1
		c0.2,0.5,0.6,0.9,1.2,1.2c0.6,0.3,1.5,0.5,2.6,0.5v1h-12.9v-1c1.3,0,2.2-0.2,2.8-0.6c0.5-0.3,0.8-0.8,1-1.4
		c0.1-0.3,0.1-1.2,0.1-2.7v-9.8c0-2.9-0.1-4.7-0.2-5.2c-0.1-0.6-0.3-1-0.6-1.2c-0.3-0.3-0.7-0.4-1.2-0.4c-0.6,0-1.2,0.1-1.9,0.4
		l-0.3-1l7.6-3.1h1.3V1072.4z"/>
	<path class="st1" d="M829.3,1095.5c-1.2,1.3-2.4,2.2-3.6,2.8c-1.2,0.6-2.4,0.9-3.8,0.9c-2.8,0-5.2-1.2-7.2-3.5
		c-2.1-2.3-3.1-5.3-3.1-8.9s1.1-6.9,3.4-9.9c2.3-3,5.2-4.5,8.8-4.5c2.2,0,4.1,0.7,5.5,2.1v-4.6c0-2.9-0.1-4.6-0.2-5.3
		c-0.1-0.7-0.3-1.1-0.6-1.4s-0.7-0.4-1.1-0.4c-0.5,0-1.1,0.1-1.9,0.4l-0.4-1l7.5-3.1h1.2v29.2c0,2.9,0.1,4.7,0.2,5.4
		c0.1,0.7,0.4,1.1,0.7,1.4s0.7,0.4,1.1,0.4c0.5,0,1.1-0.2,1.9-0.5l0.3,1l-7.5,3.1h-1.3L829.3,1095.5L829.3,1095.5z M829.3,1093.6
		v-13c-0.1-1.3-0.4-2.4-1-3.4s-1.3-1.8-2.2-2.3s-1.8-0.8-2.6-0.8c-1.6,0-3.1,0.7-4.3,2.2c-1.7,1.9-2.5,4.7-2.5,8.3
		c0,3.7,0.8,6.6,2.4,8.5c1.6,2,3.4,3,5.4,3C826.1,1096.1,827.7,1095.3,829.3,1093.6z"/>
	<path class="st1" d="M852,1072.4c3.8,0,6.9,1.4,9.2,4.3c2,2.5,2.9,5.3,2.9,8.5c0,2.3-0.5,4.5-1.6,6.8s-2.6,4-4.5,5.2
		s-4,1.8-6.4,1.8c-3.8,0-6.8-1.5-9.1-4.5c-1.9-2.6-2.8-5.4-2.8-8.6c0-2.3,0.6-4.6,1.7-6.9c1.1-2.3,2.6-4,4.5-5.1
		C847.9,1073,849.9,1072.4,852,1072.4z M851.1,1074.2c-1,0-1.9,0.3-2.9,0.9s-1.8,1.6-2.4,3c-0.6,1.4-0.9,3.3-0.9,5.6
		c0,3.7,0.7,6.8,2.2,9.5s3.4,4,5.8,4c1.8,0,3.2-0.7,4.4-2.2c1.1-1.5,1.7-4,1.7-7.6c0-4.5-1-8-2.9-10.6
		C854.8,1075.1,853.1,1074.2,851.1,1074.2z M857.8,1060.1l-8.1,9.5h-0.9l2.9-9.5H857.8z"/>
	<path class="st1" d="M875.1,1077.8c3-3.6,5.8-5.3,8.5-5.3c1.4,0,2.5,0.3,3.5,1s1.8,1.8,2.4,3.4c0.4,1.1,0.6,2.8,0.6,5.1v10.7
		c0,1.6,0.1,2.7,0.4,3.2c0.2,0.5,0.5,0.8,1,1.1c0.4,0.3,1.3,0.4,2.5,0.4v1h-12.5v-1h0.5c1.2,0,2-0.2,2.4-0.5c0.5-0.4,0.8-0.9,1-1.6
		c0.1-0.3,0.1-1.1,0.1-2.6v-10.3c0-2.3-0.3-3.9-0.9-5c-0.6-1-1.6-1.6-3-1.6c-2.2,0-4.4,1.2-6.5,3.6v13.3c0,1.7,0.1,2.8,0.3,3.2
		c0.3,0.5,0.6,0.9,1.1,1.2c0.4,0.3,1.3,0.4,2.7,0.4v1h-12.4v-1h0.5c1.3,0,2.1-0.3,2.6-1c0.5-0.6,0.7-1.9,0.7-3.7v-9.3
		c0-3-0.1-4.9-0.2-5.5c-0.1-0.7-0.3-1.1-0.6-1.4s-0.7-0.4-1.1-0.4c-0.5,0-1.1,0.1-1.8,0.4l-0.4-1l7.6-3.1h1.2v5.3H875.1z"/>
	<path class="st1" d="M897.3,1107.8v-1.2c1.9-0.6,3.3-1.6,4.4-2.9c1-1.3,1.6-2.7,1.6-4.2c0-0.3-0.1-0.6-0.2-0.9
		c-0.1-0.2-0.2-0.2-0.4-0.2s-0.6,0.2-1.3,0.5c-0.3,0.2-0.7,0.3-1,0.3c-0.9,0-1.6-0.3-2.2-0.8c-0.5-0.5-0.8-1.3-0.8-2.2
		c0-0.9,0.3-1.7,1-2.3c0.7-0.6,1.5-1,2.5-1c1.2,0,2.3,0.5,3.2,1.6s1.4,2.5,1.4,4.2c0,1.9-0.7,3.6-2,5.3
		C902.2,1105.5,900.1,1106.8,897.3,1107.8z"/>
	<path class="st1" d="M948.2,1091.2l-2.6,7.2h-22v-1c6.5-5.9,11.1-10.7,13.7-14.5c2.6-3.7,3.9-7.2,3.9-10.3c0-2.4-0.7-4.3-2.2-5.8
		c-1.4-1.5-3.2-2.3-5.2-2.3c-1.8,0-3.5,0.5-5,1.6s-2.5,2.6-3.2,4.7h-1c0.5-3.4,1.6-6,3.5-7.8s4.3-2.7,7.1-2.7c3,0,5.6,1,7.6,2.9
		s3,4.2,3,6.9c0,1.9-0.4,3.8-1.3,5.7c-1.3,3-3.5,6.1-6.6,9.4c-4.6,5-7.4,8-8.5,9h9.7c2,0,3.4-0.1,4.2-0.2s1.5-0.4,2.2-0.9
		c0.6-0.5,1.2-1.1,1.7-1.9L948.2,1091.2L948.2,1091.2z"/>
	<path class="st1" d="M953.6,1107.8v-1.2c1.9-0.6,3.3-1.6,4.4-2.9c1-1.3,1.6-2.7,1.6-4.2c0-0.3-0.1-0.6-0.2-0.9
		c-0.1-0.2-0.2-0.2-0.4-0.2s-0.6,0.2-1.3,0.5c-0.3,0.2-0.7,0.3-1,0.3c-0.9,0-1.6-0.3-2.2-0.8c-0.5-0.5-0.8-1.3-0.8-2.2
		c0-0.9,0.3-1.7,1-2.3c0.7-0.6,1.5-1,2.5-1c1.2,0,2.3,0.5,3.2,1.6s1.4,2.5,1.4,4.2c0,1.9-0.7,3.6-2,5.3
		C958.5,1105.5,956.4,1106.8,953.6,1107.8z"/>
	<path class="st1" d="M493.9,1168.6v3.9h-5v9.8h-4.5v-9.8h-15.8v-3.5l17.3-24.7h3v24.3L493.9,1168.6L493.9,1168.6z M484.4,1168.6
		v-18.5l-13.1,18.5H484.4z"/>
	<path class="st1" d="M502.5,1148.7l9.1-4.4h0.9v31.5c0,2.1,0.1,3.4,0.3,3.9s0.5,0.9,1.1,1.2s1.7,0.4,3.3,0.5v1h-14v-1
		c1.8,0,2.9-0.2,3.4-0.4s0.9-0.6,1.1-1.1c0.2-0.4,0.3-1.8,0.3-4v-20.2c0-2.7-0.1-4.5-0.3-5.2c-0.1-0.6-0.4-1-0.7-1.3
		c-0.3-0.3-0.8-0.4-1.2-0.4c-0.7,0-1.6,0.3-2.8,0.9L502.5,1148.7z"/>
	<path class="st1" d="M526.1,1163.9c0-4.3,0.6-7.9,1.9-11c1.3-3.1,3-5.4,5.1-6.9c1.6-1.2,3.3-1.8,5.1-1.8c2.9,0,5.4,1.5,7.7,4.4
		c2.8,3.6,4.3,8.5,4.3,14.7c0,4.3-0.6,8-1.9,11c-1.3,3-2.8,5.2-4.8,6.6c-1.9,1.4-3.8,2.1-5.6,2.1c-3.6,0-6.5-2.1-8.9-6.3
		C527.1,1173.2,526.1,1168.9,526.1,1163.9z M531.5,1164.6c0,5.1,0.6,9.3,1.9,12.6c1,2.7,2.6,4.1,4.7,4.1c1,0,2-0.4,3.1-1.3
		s1.9-2.4,2.4-4.5c0.8-3.2,1.3-7.6,1.3-13.4c0-4.2-0.4-7.8-1.3-10.6c-0.7-2.1-1.5-3.6-2.6-4.5c-0.8-0.6-1.7-0.9-2.7-0.9
		c-1.3,0-2.4,0.6-3.3,1.7c-1.3,1.5-2.2,3.9-2.7,7.2S531.5,1161.5,531.5,1164.6z"/>
	<path class="st1" d="M558.8,1148.7l9.1-4.4h0.9v31.5c0,2.1,0.1,3.4,0.3,3.9s0.5,0.9,1.1,1.2s1.7,0.4,3.3,0.5v1h-14v-1
		c1.8,0,2.9-0.2,3.4-0.4s0.9-0.6,1.1-1.1c0.2-0.4,0.3-1.8,0.3-4v-20.2c0-2.7-0.1-4.5-0.3-5.2c-0.1-0.6-0.4-1-0.7-1.3
		s-0.8-0.4-1.2-0.4c-0.7,0-1.6,0.3-2.8,0.9L558.8,1148.7z"/>
	<path class="st1" d="M583.4,1183.1v-1c2.4,0,4.6-0.6,6.7-1.7c2.1-1.1,4-2.9,5.9-5.6s3.2-5.6,4-8.8c-2.9,1.8-5.5,2.8-7.8,2.8
		c-2.6,0-4.9-1-6.8-3c-1.9-2-2.8-4.7-2.8-8.1c0-3.3,0.9-6.2,2.8-8.7c2.3-3.1,5.2-4.6,8.9-4.6c3.1,0,5.7,1.3,7.9,3.8
		c2.7,3.1,4,7,4,11.6c0,4.1-1,8-3,11.6s-4.9,6.6-8.5,8.9c-2.9,2-6.2,2.9-9.6,2.9h-1.7V1183.1z M600.4,1163.9
		c0.3-2.4,0.5-4.3,0.5-5.7c0-1.8-0.3-3.7-0.9-5.8c-0.6-2.1-1.5-3.6-2.6-4.8c-1.1-1.1-2.4-1.7-3.8-1.7c-1.6,0-3.1,0.7-4.3,2.2
		s-1.8,3.7-1.8,6.5c0,3.9,0.8,6.9,2.5,9.1c1.2,1.6,2.7,2.4,4.4,2.4c0.8,0,1.8-0.2,3-0.6C598.5,1165.3,599.5,1164.7,600.4,1163.9z"/>
	<path class="st1" d="M648.5,1144.2v12.9h-1c-0.3-2.5-0.9-4.5-1.8-5.9c-0.9-1.5-2.1-2.6-3.7-3.5c-1.6-0.9-3.2-1.3-4.9-1.3
		c-1.9,0-3.5,0.6-4.7,1.7c-1.3,1.2-1.9,2.5-1.9,4c0,1.1,0.4,2.2,1.2,3.1c1.1,1.4,3.8,3.2,8.1,5.5c3.5,1.9,5.9,3.3,7.1,4.3
		c1.3,1,2.3,2.2,2.9,3.5s1,2.8,1,4.3c0,2.8-1.1,5.3-3.3,7.3s-5,3.1-8.4,3.1c-1.1,0-2.1-0.1-3.1-0.2c-0.6-0.1-1.7-0.4-3.5-1
		s-2.9-0.9-3.4-0.9s-0.8,0.1-1.1,0.4s-0.5,0.8-0.6,1.7h-1v-12.8h1c0.5,2.7,1.1,4.7,1.9,6c0.8,1.3,2,2.4,3.7,3.3s3.5,1.3,5.5,1.3
		c2.3,0,4.1-0.6,5.4-1.8c1.3-1.2,2-2.6,2-4.3c0-0.9-0.2-1.8-0.8-2.8c-0.5-0.9-1.3-1.8-2.4-2.6c-0.7-0.5-2.7-1.7-5.8-3.5
		c-3.2-1.8-5.5-3.2-6.8-4.3c-1.4-1.1-2.4-2.2-3.1-3.5s-1-2.7-1-4.2c0-2.7,1-5,3.1-6.9s4.7-2.9,7.9-2.9c2,0,4.1,0.5,6.3,1.5
		c1,0.5,1.8,0.7,2.2,0.7c0.5,0,0.8-0.1,1.1-0.4s0.6-0.9,0.7-1.7L648.5,1144.2L648.5,1144.2z"/>
	<path class="st1" d="M659.9,1166.6c0,3.8,0.9,6.7,2.7,8.8c1.8,2.1,4,3.2,6.5,3.2c1.7,0,3.1-0.4,4.3-1.4c1.2-0.9,2.2-2.5,3.1-4.7
		l0.9,0.5c-0.4,2.5-1.5,4.8-3.3,6.9s-4.2,3.1-7,3.1c-3,0-5.6-1.2-7.8-3.5c-2.2-2.4-3.2-5.5-3.2-9.5c0-4.3,1.1-7.7,3.3-10.1
		s5-3.6,8.3-3.6c2.8,0,5.1,0.9,7,2.8c1.8,1.9,2.7,4.3,2.7,7.5L659.9,1166.6L659.9,1166.6z M659.9,1165.1h11.7
		c-0.1-1.6-0.3-2.8-0.6-3.4c-0.5-1-1.1-1.8-2.1-2.4c-0.9-0.6-1.9-0.9-2.8-0.9c-1.5,0-2.9,0.6-4.1,1.8
		C660.9,1161.3,660.2,1162.9,659.9,1165.1z"/>
	<path class="st1" d="M679.5,1157.2h11.9v1h-0.8c-0.7,0-1.2,0.2-1.6,0.5c-0.4,0.4-0.6,0.8-0.6,1.4s0.2,1.4,0.6,2.3l5.8,13.9
		l5.9-14.5c0.4-1,0.6-1.8,0.6-2.3c0-0.2-0.1-0.5-0.2-0.6c-0.2-0.3-0.4-0.5-0.8-0.6c-0.3-0.1-1-0.2-1.9-0.2v-1h8.2v1
		c-1,0.1-1.6,0.3-2,0.6c-0.6,0.5-1.2,1.5-1.7,2.8l-8.9,21.6h-1.1l-9-21.3c-0.4-1-0.8-1.7-1.1-2.1c-0.4-0.4-0.8-0.8-1.4-1.1
		c-0.3-0.2-0.9-0.3-1.8-0.5v-0.9H679.5z"/>
	<path class="st1" d="M717.6,1156.4v20.2c0,1.6,0.1,2.6,0.3,3.2c0.2,0.5,0.6,0.9,1,1.2c0.4,0.3,1.3,0.4,2.5,0.4v1h-12.2v-1
		c1.2,0,2.1-0.1,2.5-0.4c0.4-0.2,0.8-0.6,1-1.2c0.2-0.5,0.4-1.6,0.4-3.2v-9.7c0-2.7-0.1-4.5-0.2-5.3c-0.1-0.6-0.3-1-0.6-1.2
		s-0.6-0.3-1.1-0.3s-1.1,0.1-1.8,0.4l-0.4-1l7.6-3.1H717.6z M715.3,1143.2c0.8,0,1.4,0.3,2,0.8c0.5,0.5,0.8,1.2,0.8,2
		s-0.3,1.4-0.8,2s-1.2,0.8-2,0.8s-1.4-0.3-2-0.8s-0.8-1.2-0.8-2s0.3-1.4,0.8-2C713.9,1143.5,714.5,1143.2,715.3,1143.2z"/>
	<path class="st1" d="M733.2,1143.2v33.4c0,1.6,0.1,2.6,0.3,3.2c0.2,0.5,0.6,0.9,1.1,1.2c0.5,0.3,1.4,0.4,2.7,0.4v1H725v-1
		c1.2,0,2-0.1,2.4-0.4c0.4-0.2,0.7-0.6,1-1.2c0.2-0.5,0.3-1.6,0.3-3.2v-22.9c0-2.8-0.1-4.6-0.2-5.2c-0.1-0.7-0.3-1.1-0.6-1.3
		c-0.3-0.2-0.6-0.4-1.1-0.4s-1.1,0.1-1.8,0.4l-0.5-1l7.5-3.1L733.2,1143.2L733.2,1143.2z"/>
	<path class="st1" d="M748.9,1143.2v33.4c0,1.6,0.1,2.6,0.3,3.2c0.2,0.5,0.6,0.9,1.1,1.2c0.5,0.3,1.4,0.4,2.7,0.4v1h-12.3v-1
		c1.2,0,2-0.1,2.4-0.4c0.4-0.2,0.7-0.6,1-1.2c0.2-0.5,0.3-1.6,0.3-3.2v-22.9c0-2.8-0.1-4.6-0.2-5.2c-0.1-0.7-0.3-1.1-0.6-1.3
		c-0.3-0.2-0.6-0.4-1.1-0.4s-1.1,0.1-1.8,0.4l-0.5-1l7.5-3.1L748.9,1143.2L748.9,1143.2z"/>
	<path class="st1" d="M770.1,1178.7c-2.6,2-4.2,3.1-4.9,3.5c-1,0.5-2.1,0.7-3.2,0.7c-1.7,0-3.2-0.6-4.3-1.8
		c-1.1-1.2-1.7-2.8-1.7-4.7c0-1.2,0.3-2.3,0.8-3.2c0.8-1.3,2.1-2.4,3.9-3.5s5-2.4,9.3-4v-1c0-2.5-0.4-4.2-1.2-5.2
		c-0.8-0.9-2-1.4-3.5-1.4c-1.1,0-2.1,0.3-2.7,0.9c-0.7,0.6-1.1,1.4-1.1,2.2l0.1,1.6c0,0.8-0.2,1.5-0.6,1.9c-0.4,0.5-1,0.7-1.7,0.7
		s-1.2-0.2-1.7-0.7c-0.4-0.5-0.6-1.1-0.6-1.9c0-1.6,0.8-3,2.4-4.3c1.6-1.3,3.9-2,6.8-2c2.2,0,4.1,0.4,5.5,1.1
		c1.1,0.6,1.9,1.5,2.4,2.7c0.3,0.8,0.5,2.4,0.5,4.9v8.5c0,2.4,0,3.9,0.1,4.4s0.2,0.9,0.5,1.1c0.2,0.2,0.5,0.3,0.7,0.3
		c0.3,0,0.5-0.1,0.8-0.2c0.4-0.2,1.1-0.9,2.3-2v1.5c-2.1,2.7-4,4.1-5.9,4.1c-0.9,0-1.6-0.3-2.1-0.9S770.2,1180.2,770.1,1178.7z
		 M770.1,1176.9v-9.6c-2.8,1.1-4.5,1.9-5.4,2.4c-1.4,0.8-2.5,1.6-3.1,2.5s-0.9,1.8-0.9,2.9c0,1.3,0.4,2.4,1.2,3.3s1.7,1.3,2.7,1.3
		C766,1179.7,767.9,1178.8,770.1,1176.9z"/>
</g>
<g>
	<g>
		<path class="st1" d="M577.8,545.5c0.3,0.2,0.6,0.4,0.8,0.5c-0.7,0.7-1.2,1.1-1.4,1.2c-3.4,0.9-7.2,1.4-11.6,1.6l-6.5,0.1l-6.5-0.1
			l-13.9-0.6c-7-0.5-13.4-0.7-19.2-0.7c-3,0-6.2,0.2-9.5,0.7c-11.4,1.5-19.6,7.2-24.7,16.9c-3.6,6.6-6.2,12.6-7.9,18.2l-8.2,26.3
			c-1.8,6.6-4.1,15.4-6.8,26.6l-8.8,34.1l-3.3,12.6l-2.6,9.8c-0.1,0.4-0.3,1.4-0.6,3c0.4,0.4,0.8,0.6,1.2,0.6c0.4,0,0.7,0,0.9-0.1
			c0.2-0.1,0.5-0.2,0.6-0.3l10.5-2.2c1.9-0.4,4.3-0.9,7.2-1.5c2.9-0.6,6.3-1.3,10.1-2c3.5-0.8,7-1.2,10.5-1.3
			c1.7-0.1,3.2,0.3,4.4,1.2c1.2,0.9,2,2.3,2.5,4.1v0.4c0,0.4-0.1,0.7-0.4,1c-0.2,0.2-0.5,0.3-0.8,0.2c-0.3,0-0.6-0.1-0.6-0.1l-1-0.7
			c-0.7-0.8-1.8-1.1-3.3-0.9c-2.6,0.4-4.4,0.6-5.5,0.7c-0.9,0.1-2,0.2-3.4,0.4s-3,0.5-4.8,0.9c-6,1.2-10.5,2.1-13.4,2.7l-13.6,2.7
			l-1.6,0.4c-1.2,0.3-2,1.1-2.5,2.5l-4.3,14.7l-1.3,4.6c-1.7,6.1-2.7,9.6-3,10.7c-0.2,0.6-0.8,2.8-1.9,6.7s-1.8,7.7-2.3,11.5
			c-0.1,0.5-0.2,1-0.3,1.7c-0.1,0.6-0.1,1.4-0.1,2.2c0,1.3,0.2,2.3,0.6,3.2c0.3,0.1,0.7,0.1,1.2,0.1s1,0,1.7-0.1
			c0.6-0.1,1.1-0.2,1.4-0.3l5.8-1.2c13.7-2.5,20.9-3.8,21.8-3.9c8.2-1.4,17.5-2.3,27.9-2.6l7.8-0.1c6.7-0.2,11.7-0.3,14.9-0.3
			c3.7,0,7.3,0.1,11,0.4c1.1,0.1,1.9,0.3,2.5,0.6s1.1,1,1.4,2c-0.8,0.6-1.3,0.9-1.6,1c-0.7,0.1-1.7,0.1-3.2,0.1
			c-1.7-0.1-4.4-0.1-7.9-0.1c-7,0-15.5,0.3-25.4,1c-16.6,1.1-33,3.4-49.4,6.9c-1.3,0.3-3.6,0.6-6.8,1c-2.9,0.4-5.6-0.6-8.2-2.9
			c-1.4-1.3-2.2-2.8-2.2-4.6v-2.2c0-1.2,0-2,0.1-2.6c0.5-3.8,1.2-7.4,2.1-11.1c0.9-3.6,2.1-8.1,3.7-13.5c1.3-4.4,3.2-11.1,5.9-19.9
			c0.1-0.3,0.1-0.8,0.1-1.4c-0.4-0.7-1.1-0.8-2.2-0.4l-9,2.7l-1.2,0.3c-0.5,0-0.9-0.2-1.2-0.6c-0.3-0.4-0.6-1.1-1-2.2
			c1.4-1.1,3.1-2,4.8-2.7c1.8-0.8,3.6-1.4,5.4-2c2-0.6,4-1.3,6.1-2.2c0.8-1.2,1.3-2.6,1.7-4.4c0.4-1.8,0.7-3.1,1-4
			c3.7-12.4,7.8-28.1,12.6-47.1c1.5-6.5,4.8-18.5,9.7-35.8c4.9-17.3,8.8-29.3,11.6-36.2c1.8-4.7,3.9-9,6.4-12.7
			c5.4-8.5,13.2-13.6,23.4-15.3c2.9-0.6,6.5-0.9,10.8-0.9c3.1,0,5.4,0,6.9,0.1l34.1,2.2c3.1,0.3,6.2,0.4,9.2,0.4
			c2.7,0,5.4-0.1,8.2-0.4c0.9,0,2.1,0.1,3.6,0.3C577.2,545.2,577.5,545.3,577.8,545.5z"/>
		<path class="st1" d="M609.9,683.3c-0.9,0.2-1.3,0.2-1.4,0.1c-1.2-0.6-2.3-0.9-3.5-0.9c-1.1,0-2.1,0.1-3,0.4c-6,1.5-10.3,3-13,4.3
			c-2.7,1.3-4.5,2.7-5.3,4.2c-0.8,1.5-1.5,3.7-2.1,6.6c-0.7,3.2-1.4,6-2.2,8.6c-0.8,2.6-2.3,5.6-4.4,9
			c-7.1,11.6-14.7,21.4-22.8,29.5c-3.8,3.8-7.3,6.6-10.5,8.5c-1.3,0.8-3.5,1.7-6.4,2.9c-0.7,0.3-1.3,0.4-2,0.4
			c-0.7,0-1.6-0.2-2.7-0.6c-1.9-0.7-3.3-1.4-4-2.3c-0.8-0.9-1.2-2.1-1.2-3.8c0-3.5,0.9-7.2,2.7-11.1c3.6-7.5,8.5-14.6,14.7-21.4
			c7.6-8.3,17.7-16,30.2-23.1l3.3-1.9c0-1.3,0-2.3-0.1-2.9c-0.3-2-1.3-3.3-3.2-3.9c-3.4-1.2-6.6-1.8-9.5-1.9l-6.9-0.3
			c-2.9-0.2-5.3-1.3-7.1-3.3c-0.8-1-1.2-1.8-1.2-2.5c0-0.8,0.3-1.5,1-2.3c1.3-1.7,2.6-3.1,3.9-4c6.5-5.2,12.5-9.1,17.9-11.8
			c0.3-0.1,1.1-0.5,2.3-1.2c1.3-0.7,2.6-1,3.9-1c1.6,0,2.7,0.6,3.2,1.9c-7.9,4.9-13.6,8.7-17.1,11.4s-6.2,5.3-8.2,7.9
			c0.2,0.6,0.8,0.9,1.7,0.9c1.1,0,4,0.2,8.8,0.7c3.9,0.4,6.6,0.8,8.4,1.4c1.7,0.5,3.7,1.9,5.8,4l1,0.7l2.6-1
			c3.3-1.4,7.1-2.9,11.4-4.3c1.6-0.6,4.1-1.2,7.4-1.7c1.2-0.2,2.2-0.1,3.2,0.3c1,0.4,2.2,1,3.5,1.9
			C609.3,681.8,609.5,682.3,609.9,683.3z M573.4,703.5c0.6-1.3,1-2.7,1.3-4.3c-2.6,1.1-6.7,3.7-12.3,7.8s-9.7,7.6-12.4,10.3
			c-5.2,5.2-9.5,10.4-12.9,15.6c-2.2,3.5-4.2,8-5.9,13.6c-0.2,0.8-0.3,1.7-0.3,2.7c0,1.1,0,1.7,0,2s0.1,0.7,0.4,1.2
			c0.3,0.5,0.5,0.9,0.7,1.3c0.6-0.4,1.3-0.8,2.1-1.2c0.8-0.4,1.5-0.7,2-1c1.3-1,3.3-2.5,5.8-4.6c3.5-3,7.6-7.5,12.4-13.6
			c4-5.1,7.5-9.8,10.5-14.2c2.9-4.3,5.5-8.8,7.6-13.4C572.5,705.5,572.8,704.8,573.4,703.5z"/>
		<path class="st1" d="M667.5,679.9c0,0.1,0,0.3-0.1,0.4c-7,7-12.2,12.4-15.6,16l-7.3,8.2l-7.4,8.2c-5.5,6-11.2,10-17,12.1
			c-2.7,1.1-5.4,1.6-8.1,1.6c-2.6,0-5-0.5-7.2-1.6c-6.4-2.8-9.5-8.3-9.5-16.6c0-3.2,0.6-6.8,1.7-11c1.6-5.7,4.2-11.4,7.8-17.2
			c2.5-4,5.6-7.8,9.2-11.1c3.2-2.9,6.6-4.7,10.4-5.5c1.2-0.2,2-0.3,2.5-0.3c2.7,0,5.1,1.1,7.1,3.3c1.3,1.3,2,3.2,2,5.6l-0.1,4.2
			l-1.2,0.7c-0.2-0.7-0.4-1.3-0.5-2s-0.3-1.3-0.5-2c-0.9-2.2-1.6-3.9-2.3-5.2c-0.8-1.3-1.9-1.8-3.5-1.3c-1.3,0.4-2.3,0.9-3.2,1.4
			c-2.9,1.9-5,3.5-6.2,4.8c-4.6,4.6-8.3,10-11.1,16.2c-2.7,5.9-4.5,11.8-5.5,17.6c-0.1,0.6-0.1,1.4-0.1,2.5c0,1.9,0.3,4.4,1,7.5
			c0.1,0.6,0.4,1.3,0.9,2c1.7,3.1,4,4.6,6.9,4.6c0.5,0,1.2-0.1,2.2-0.3c4.1-0.9,7.9-2.6,11.4-5.3c4-3.2,7.7-6.5,11-10.1
			c6.4-6.9,12.9-13.7,19.5-20.4l3.8-3.5c2.6-2.3,3.9-3.5,4-3.6c0.5-0.5,1-0.8,1.6-0.9c0.6-0.1,1.2-0.1,1.7-0.1c0.6,0,1,0,1.2,0
			c0.2,0,0.4,0.2,0.6,0.6C667.4,679.6,667.4,679.7,667.5,679.9z"/>
		<path class="st1" d="M729,679.8c0.6,0,1.2,0.3,1.9,0.9c-2.6,2.5-5,5.2-7.2,8.1c-2.2,2.9-4.7,6.5-7.6,10.7l-3.6,5.2
			c-4.7,6.8-8,11.5-10,14c-1.2,1.5-2.8,3.2-4.9,4.9c-1.2,1.1-2.6,1.6-4.3,1.6c-1.2,0-2.3-0.3-3.3-0.9c-1.1-0.6-1.9-1.5-2.6-2.7
			c-1.1-1.8-1.6-3.9-1.6-6.4c0-5.7,0.4-10.2,1.3-13.6l0.4-3c-0.5,0.6-0.9,1.1-1.2,1.4c-0.3,0.4-0.6,0.8-0.9,1.2
			c-2.6,4.4-6.8,9.7-12.6,15.7c-2.2,2.4-4.6,4.2-7.1,5.3c-1.3,0.6-2.6,0.9-3.9,0.9c-1.7,0-3.5-0.6-5.2-1.7c-1.5-1.2-2.6-2.6-3.2-4.5
			c-0.8-2.6-1.2-5.2-1.2-7.7c0-7,1.9-14.4,5.6-22.2c3.8-7.9,8-13.8,12.7-17.8c2.1-1.8,4.2-3.4,6.4-4.6c1.5-1,3.1-1.4,4.6-1.4
			c1.6,0,3.2,0.4,4.6,1.3c3.4,1.6,5.1,4,5.1,7.2c0,1.3-0.1,2.7-0.3,4.3c-0.2,1.6-0.3,2.7-0.4,3.4h0.4c0.6,0,1.1-0.4,1.4-1.3
			c0.9-2.2,2-4.6,3.3-7.2l1.3-2.7c0.4-0.9,0.9-2,1.4-3.3c0.6-1.3,1.2-2.5,1.7-3.3c1.3,0.2,2.2,0.4,2.5,0.6c0.3,0.2,1,0.8,2,1.7
			c-0.5,1.4-0.8,2.4-1,2.7c-4.6,9.3-8.5,21.2-11.6,35.5c-0.6,2.7-1.1,6.9-1.4,12.6c-0.1,1.6,0.1,3.7,0.6,6.1c0.1,1,0.6,1.4,1.6,1.4
			c0.4,0,0.8-0.1,1.2-0.4c1.6-1.2,3.1-2.5,4.5-4c1.1-1.1,2.1-2.4,3.2-4.1c1.1-1.7,2-2.9,2.5-3.7l7.1-9.8l6.9-9.8
			c1.2-1.7,3.4-4.3,6.5-7.8c0.7-0.8,1.6-1.5,2.7-2.2C728,680,728.5,679.8,729,679.8z M686.3,683.9c0.7-4.5,1-8.4,1-11.7
			c0-1.1-0.1-2.1-0.4-3c-0.5-1.6-1.3-2.5-2.6-2.5c-0.2,0-0.7,0.1-1.4,0.3c-2.4,0.9-4.8,2.5-7.2,4.9c-8.1,8.1-13.8,18.3-17.2,30.6
			c-0.8,2.8-1.2,5.4-1.2,7.9c0,1.8,0.2,3.5,0.6,5.1c0.5,2.1,1.3,3.7,2.5,4.8c3-1.2,6-3.4,9.1-6.6c2.7-2.8,5.1-5.7,7.1-8.6
			c2-2.9,4.7-7.1,7.9-12.5c0.7-1.2,1.1-2.4,1.3-3.8L686.3,683.9z"/>
		<path class="st1" d="M785.2,550.7c0.3,0.2,0.5,0.5,0.5,0.8s-0.1,0.7-0.4,1.3l-5.8,10.4c-4.6,8.5-8.6,16.1-12,23
			c-3.5,7-8.2,17.8-14.2,32.2c-8.6,20.8-15,39.1-19.2,54.7c-0.4,1.3-2.4,9.2-6.1,23.7c-0.9,4-1.5,6.6-1.9,7.9
			c-1.4,5.9-2.4,11.4-2.7,16.5c-0.1,1.2-0.1,2.2-0.1,3.1c0,0.9,0.1,1.7,0.1,2.4c1.7,0.3,2.6,0.4,2.7,0.4c1.1,0.5,1.6,1.1,1.6,1.7
			c0,0.4-0.1,0.8-0.4,1.2c-1.3,1.9-2.9,2.7-4.9,2.3c-2.5-0.6-3.9-1.8-4.3-3.8c-0.4-2.1-0.6-3.7-0.6-4.8c0-3.4,0.5-8.4,1.4-15.2
			c0.2-0.7,0.4-1.9,0.6-3.6c1.4-10.5,4.3-22.8,8.5-36.8c5.3-17.2,10.5-32.2,15.7-44.8c4.6-11.2,11.4-25.7,20.2-43.5
			c3.3-6.5,6.8-12.6,10.5-18.3c3.3-5,6-8.6,8.2-10.8l1-0.7C784.4,550.3,784.9,550.5,785.2,550.7z"/>
		<path class="st1" d="M815.5,679.8c0.6,0,1.2,0.3,1.9,0.9c-2.6,2.5-5,5.2-7.2,8.1c-2.2,2.9-4.7,6.5-7.6,10.7l-3.6,5.2
			c-4.7,6.8-8,11.5-10,14c-1.2,1.5-2.8,3.2-4.9,4.9c-1.2,1.1-2.6,1.6-4.3,1.6c-1.2,0-2.3-0.3-3.3-0.9c-1.1-0.6-1.9-1.5-2.6-2.7
			c-1.1-1.8-1.6-3.9-1.6-6.4c0-5.7,0.4-10.2,1.3-13.6l0.4-3c-0.5,0.6-0.9,1.1-1.2,1.4c-0.3,0.4-0.6,0.8-0.9,1.2
			c-2.6,4.4-6.8,9.7-12.6,15.7c-2.2,2.4-4.6,4.2-7.1,5.3c-1.3,0.6-2.6,0.9-3.9,0.9c-1.7,0-3.5-0.6-5.2-1.7c-1.5-1.2-2.6-2.6-3.2-4.5
			c-0.8-2.6-1.2-5.2-1.2-7.7c0-7,1.9-14.4,5.6-22.2c3.8-7.9,8-13.8,12.7-17.8c2.1-1.8,4.2-3.4,6.4-4.6c1.5-1,3.1-1.4,4.6-1.4
			c1.6,0,3.2,0.4,4.6,1.3c3.4,1.6,5.1,4,5.1,7.2c0,1.3-0.1,2.7-0.3,4.3c-0.2,1.6-0.3,2.7-0.4,3.4h0.4c0.6,0,1.1-0.4,1.4-1.3
			c0.9-2.2,2-4.6,3.3-7.2l1.3-2.7c0.4-0.9,0.9-2,1.4-3.3c0.6-1.3,1.2-2.5,1.7-3.3c1.3,0.2,2.2,0.4,2.5,0.6c0.3,0.2,1,0.8,2,1.7
			c-0.5,1.4-0.8,2.4-1,2.7c-4.6,9.3-8.5,21.2-11.6,35.5c-0.6,2.7-1.1,6.9-1.4,12.6c-0.1,1.6,0.1,3.7,0.6,6.1c0.1,1,0.6,1.4,1.6,1.4
			c0.4,0,0.8-0.1,1.2-0.4c1.6-1.2,3.1-2.5,4.5-4c1.1-1.1,2.1-2.4,3.2-4.1c1.1-1.7,2-2.9,2.5-3.7l7.1-9.8l6.9-9.8
			c1.2-1.7,3.4-4.3,6.5-7.8c0.7-0.8,1.6-1.5,2.7-2.2C814.5,680,815,679.8,815.5,679.8z M772.9,683.9c0.7-4.5,1-8.4,1-11.7
			c0-1.1-0.1-2.1-0.4-3c-0.5-1.6-1.3-2.5-2.6-2.5c-0.2,0-0.7,0.1-1.4,0.3c-2.4,0.9-4.8,2.5-7.2,4.9c-8.1,8.1-13.8,18.3-17.2,30.6
			c-0.8,2.8-1.2,5.4-1.2,7.9c0,1.8,0.2,3.5,0.6,5.1c0.5,2.1,1.3,3.7,2.5,4.8c3-1.2,6-3.4,9.1-6.6c2.7-2.8,5.1-5.7,7.1-8.6
			c2-2.9,4.7-7.1,7.9-12.5c0.7-1.2,1.1-2.4,1.3-3.8L772.9,683.9z"/>
	</g>
</g>
</svg>
